<svg xmlns="http://www.w3.org/2000/svg" width="208.754" height="41" viewBox="0 0 208.754 41">
  <g id="Сгруппировать_887" data-name="Сгруппировать 887" transform="translate(-15 -16169)">
    <g id="Сгруппировать_883" data-name="Сгруппировать 883" transform="translate(-20 16143)">
      <text id="WhatsApp" transform="translate(35 26)" fill="#e1e1e1" font-size="30" font-family="OpenSans-Bold, Open Sans" font-weight="700"><tspan x="0" y="32">WhatsApp</tspan></text>
    </g>
    <g id="Сгруппировать_885" data-name="Сгруппировать 885" transform="translate(-793 9289.48)">
      <rect id="Прямоугольник_1254" data-name="Прямоугольник 1254" width="38.272" height="33.716" transform="translate(973 6883.836)" fill="#fff"/>
      <g id="whatsapp-logo-variant" transform="translate(983.935 6882.925)">
        <path id="Контур_39" data-name="Контур 39" d="M31.894,15.537a15.686,15.686,0,0,1-23.225,13.6L0,31.894l2.826-8.338A15.378,15.378,0,0,1,.58,15.536a15.657,15.657,0,0,1,31.313,0ZM16.234,2.477A13.127,13.127,0,0,0,3.072,15.54,12.921,12.921,0,0,0,5.58,23.2l-1.643,4.85,5.056-1.607A13.178,13.178,0,0,0,29.4,15.537,13.126,13.126,0,0,0,16.234,2.477Zm7.908,16.638c-.1-.157-.354-.253-.736-.444s-2.271-1.112-2.622-1.237-.609-.192-.865.189-.989,1.239-1.215,1.494-.447.287-.831.1a10.581,10.581,0,0,1-3.088-1.89,11.457,11.457,0,0,1-2.134-2.637c-.226-.381-.023-.587.167-.776.172-.172.384-.445.576-.669a2.539,2.539,0,0,0,.384-.633.709.709,0,0,0-.032-.669c-.1-.191-.862-2.063-1.184-2.826s-.639-.635-.863-.635-.479-.031-.735-.031a1.4,1.4,0,0,0-1.022.474A4.262,4.262,0,0,0,8.6,12.1a7.363,7.363,0,0,0,1.566,3.938c.193.253,2.656,4.224,6.557,5.749s3.9,1.015,4.606.951a3.872,3.872,0,0,0,2.59-1.809A3.164,3.164,0,0,0,24.143,19.115Z" transform="translate(0 0)" fill="#e1e1e1"/>
      </g>
      <path id="Многоугольник_2" data-name="Многоугольник 2" d="M3.645,0,7.29,6.379H0Z" transform="translate(980.137 6903.143) rotate(47)" fill="#58f3ff"/>
      <g id="whatsapp-logo-variant-2" data-name="whatsapp-logo-variant" transform="translate(984.86 6882)">
        <path id="Контур_39-2" data-name="Контур 39" d="M31.894,15.537a15.686,15.686,0,0,1-23.225,13.6L0,31.894l2.826-8.338A15.378,15.378,0,0,1,.58,15.536a15.657,15.657,0,0,1,31.313,0ZM16.234,2.477A13.127,13.127,0,0,0,3.072,15.54,12.921,12.921,0,0,0,5.58,23.2l-1.643,4.85,5.056-1.607A13.178,13.178,0,0,0,29.4,15.537,13.126,13.126,0,0,0,16.234,2.477Zm7.908,16.638c-.1-.157-.354-.253-.736-.444s-2.271-1.112-2.622-1.237-.609-.192-.865.189-.989,1.239-1.215,1.494-.447.287-.831.1a10.581,10.581,0,0,1-3.088-1.89,11.457,11.457,0,0,1-2.134-2.637c-.226-.381-.023-.587.167-.776.172-.172.384-.445.576-.669a2.539,2.539,0,0,0,.384-.633.709.709,0,0,0-.032-.669c-.1-.191-.862-2.063-1.184-2.826s-.639-.635-.863-.635-.479-.031-.735-.031a1.4,1.4,0,0,0-1.022.474A4.262,4.262,0,0,0,8.6,12.1a7.363,7.363,0,0,0,1.566,3.938c.193.253,2.656,4.224,6.557,5.749s3.9,1.015,4.606.951a3.872,3.872,0,0,0,2.59-1.809A3.164,3.164,0,0,0,24.143,19.115Z" transform="translate(0 0)" fill="#e1e1e1"/>
      </g>
    </g>
  </g>
</svg>
