<svg width="500" height="500" viewBox="0 0 500 500" fill="none" xmlns="http://www.w3.org/2000/svg">
<rect width="500" height="500" fill="black"/>
<path d="M95.6 220C89.406 220 84.2987 217.501 80.278 212.502C76.366 207.503 74.41 201.038 74.41 193.105V97.587C74.41 96.0657 74.8447 94.8703 75.714 94.001C76.692 93.1317 77.8873 92.697 79.3 92.697C80.8213 92.697 82.0167 93.1317 82.886 94.001C83.7553 94.8703 84.19 96.0657 84.19 97.587V193.105C84.19 198.104 85.2223 202.233 87.287 205.493C89.4603 208.644 92.2313 210.22 95.6 210.22H99.675C102.392 210.22 103.75 211.85 103.75 215.11C103.75 216.523 103.315 217.718 102.446 218.696C101.577 219.565 100.381 220 98.86 220H95.6ZM157.419 220.978C148.726 220.978 140.902 219.022 133.947 215.11C127.101 211.089 121.668 205.656 117.647 198.81C113.735 191.855 111.779 184.086 111.779 175.501C111.779 166.808 113.735 159.038 117.647 152.192C121.668 145.237 127.101 139.804 133.947 135.892C140.902 131.871 148.726 129.861 157.419 129.861C166.112 129.861 173.882 131.871 180.728 135.892C187.574 139.804 192.953 145.237 196.865 152.192C200.886 159.038 202.896 166.808 202.896 175.501V215.11C202.896 216.523 202.461 217.718 201.592 218.696C200.723 219.565 199.527 220 198.006 220C196.593 220 195.398 219.565 194.42 218.696C193.551 217.718 193.116 216.523 193.116 215.11V202.396C189.53 208.047 184.64 212.556 178.446 215.925C172.252 219.294 165.243 220.978 157.419 220.978ZM157.419 211.85C164.265 211.85 170.35 210.274 175.675 207.123C181.108 203.863 185.346 199.516 188.389 194.083C191.54 188.541 193.116 182.347 193.116 175.501C193.116 168.546 191.54 162.352 188.389 156.919C185.346 151.377 181.108 147.03 175.675 143.879C170.35 140.619 164.265 138.989 157.419 138.989C150.682 138.989 144.596 140.619 139.163 143.879C133.73 147.03 129.437 151.377 126.286 156.919C123.135 162.352 121.559 168.546 121.559 175.501C121.559 182.347 123.135 188.541 126.286 194.083C129.437 199.516 133.73 203.863 139.163 207.123C144.596 210.274 150.682 211.85 157.419 211.85ZM232.189 220C230.776 220 229.581 219.565 228.603 218.696C227.734 217.718 227.299 216.523 227.299 215.11V135.729C227.299 134.208 227.734 133.012 228.603 132.143C229.581 131.274 230.776 130.839 232.189 130.839C233.71 130.839 234.906 131.274 235.775 132.143C236.644 133.012 237.079 134.208 237.079 135.729V144.205C240.665 139.75 245.12 136.218 250.445 133.61C255.878 131.002 261.746 129.698 268.049 129.698C275.873 129.698 282.882 131.328 289.076 134.588C295.379 137.739 300.323 142.412 303.909 148.606C307.495 154.691 309.288 162.244 309.288 171.263V215.11C309.288 216.523 308.799 217.718 307.821 218.696C306.952 219.565 305.811 220 304.398 220C302.985 220 301.79 219.565 300.812 218.696C299.943 217.718 299.508 216.523 299.508 215.11V171.263C299.508 164.091 298.095 158.169 295.27 153.496C292.553 148.823 288.804 145.346 284.023 143.064C279.35 140.673 274.026 139.478 268.049 139.478C262.181 139.478 256.911 140.619 252.238 142.901C247.565 145.074 243.871 148.117 241.154 152.029C238.437 155.941 237.079 160.342 237.079 165.232V215.11C237.079 216.523 236.644 217.718 235.775 218.696C234.906 219.565 233.71 220 232.189 220ZM377.724 220.978C369.03 220.978 361.206 219.022 354.252 215.11C347.406 211.089 341.972 205.656 337.952 198.81C334.04 191.855 332.084 184.031 332.084 175.338C332.084 166.645 334.04 158.875 337.952 152.029C341.972 145.183 347.406 139.804 354.252 135.892C361.206 131.871 369.03 129.861 377.724 129.861C385.548 129.861 392.557 131.545 398.751 134.914C405.053 138.283 409.943 142.792 413.421 148.443V97.587C413.421 96.0657 413.855 94.8703 414.725 94.001C415.703 93.1317 416.898 92.697 418.311 92.697C419.832 92.697 421.027 93.1317 421.897 94.001C422.766 94.8703 423.201 96.0657 423.201 97.587V176.316C423.092 184.792 421.027 192.399 417.007 199.136C412.986 205.873 407.553 211.198 400.707 215.11C393.969 219.022 386.308 220.978 377.724 220.978ZM377.724 211.85C384.57 211.85 390.655 210.274 395.98 207.123C401.413 203.863 405.651 199.516 408.694 194.083C411.845 188.541 413.421 182.293 413.421 175.338C413.421 168.383 411.845 162.189 408.694 156.756C405.651 151.323 401.413 147.03 395.98 143.879C390.655 140.619 384.57 138.989 377.724 138.989C370.986 138.989 364.901 140.619 359.468 143.879C354.034 147.03 349.742 151.323 346.591 156.756C343.439 162.189 341.864 168.383 341.864 175.338C341.864 182.293 343.439 188.541 346.591 194.083C349.742 199.516 354.034 203.863 359.468 207.123C364.901 210.274 370.986 211.85 377.724 211.85ZM85.82 384C84.4073 384 83.212 383.565 82.234 382.696C81.3647 381.718 80.93 380.523 80.93 379.11V299.729C80.93 298.208 81.3647 297.012 82.234 296.143C83.212 295.274 84.4073 294.839 85.82 294.839C87.3413 294.839 88.5367 295.274 89.406 296.143C90.2753 297.012 90.71 298.208 90.71 299.729V379.11C90.71 380.523 90.2753 381.718 89.406 382.696C88.5367 383.565 87.3413 384 85.82 384ZM85.657 276.094C83.5923 276.094 81.7993 275.388 80.278 273.975C78.8653 272.454 78.159 270.606 78.159 268.433C78.159 265.934 78.9197 264.086 80.441 262.891C82.071 261.587 83.864 260.935 85.82 260.935C87.6673 260.935 89.3517 261.587 90.873 262.891C92.503 264.086 93.318 265.934 93.318 268.433C93.318 270.606 92.5573 272.454 91.036 273.975C89.6233 275.388 87.8303 276.094 85.657 276.094ZM128.245 384C126.832 384 125.637 383.565 124.659 382.696C123.789 381.718 123.355 380.523 123.355 379.11V299.729C123.355 298.208 123.789 297.012 124.659 296.143C125.637 295.274 126.832 294.839 128.245 294.839C129.766 294.839 130.961 295.274 131.831 296.143C132.7 297.012 133.135 298.208 133.135 299.729V308.205C136.721 303.75 141.176 300.218 146.501 297.61C151.934 295.002 157.802 293.698 164.105 293.698C171.929 293.698 178.938 295.328 185.132 298.588C191.434 301.739 196.379 306.412 199.965 312.606C203.551 318.691 205.344 326.244 205.344 335.263V379.11C205.344 380.523 204.855 381.718 203.877 382.696C203.007 383.565 201.866 384 200.454 384C199.041 384 197.846 383.565 196.868 382.696C195.998 381.718 195.564 380.523 195.564 379.11V335.263C195.564 328.091 194.151 322.169 191.326 317.496C188.609 312.823 184.86 309.346 180.079 307.064C175.406 304.673 170.081 303.478 164.105 303.478C158.237 303.478 152.966 304.619 148.294 306.901C143.621 309.074 139.926 312.117 137.21 316.029C134.493 319.941 133.135 324.342 133.135 329.232V379.11C133.135 380.523 132.7 381.718 131.831 382.696C130.961 383.565 129.766 384 128.245 384ZM273.779 384.978C264.869 384.978 256.99 383.022 250.144 379.11C243.298 375.198 237.919 369.819 234.007 362.973C230.095 356.127 228.139 348.303 228.139 339.501C228.139 330.59 230.15 322.712 234.17 315.866C238.191 309.02 243.624 303.641 250.47 299.729C257.425 295.817 265.195 293.861 273.779 293.861C282.69 293.861 290.514 295.817 297.251 299.729C304.097 303.641 309.476 309.02 313.388 315.866C317.3 322.712 319.256 330.59 319.256 339.501V371.449C319.256 380.251 317.3 388.184 313.388 395.247C309.476 402.31 304.152 407.852 297.414 411.873C290.677 416.002 283.016 418.067 274.431 418.067C265.412 418.067 257.697 416.383 251.285 413.014C244.983 409.645 239.767 405.353 235.637 400.137C234.768 399.05 234.333 397.909 234.333 396.714C234.333 395.519 234.877 394.541 235.963 393.78C237.05 392.911 238.3 392.585 239.712 392.802C241.234 393.019 242.375 393.726 243.135 394.921C246.504 398.942 250.796 402.256 256.012 404.864C261.228 407.581 267.368 408.939 274.431 408.939C281.169 408.939 287.145 407.309 292.361 404.049C297.686 400.789 301.87 396.279 304.912 390.52C307.955 384.869 309.476 378.512 309.476 371.449V364.277C306.325 370.58 301.652 375.633 295.458 379.436C289.264 383.131 282.038 384.978 273.779 384.978ZM273.779 375.85C280.734 375.85 286.874 374.329 292.198 371.286C297.632 368.135 301.87 363.842 304.912 358.409C307.955 352.867 309.476 346.564 309.476 339.501C309.476 332.329 307.955 326.026 304.912 320.593C301.87 315.051 297.632 310.759 292.198 307.716C286.874 304.565 280.734 302.989 273.779 302.989C266.825 302.989 260.631 304.565 255.197 307.716C249.764 310.759 245.526 315.051 242.483 320.593C239.441 326.026 237.919 332.329 237.919 339.501C237.919 346.564 239.441 352.867 242.483 358.409C245.526 363.842 249.764 368.135 255.197 371.286C260.631 374.329 266.825 375.85 273.779 375.85Z" fill="white"/>
<path d="M146 158.605V190C176.453 176.834 162.562 147.065 146 158.605Z" fill="#FDD706"/>
<path d="M146 158.605V190C115.547 176.834 129.438 147.065 146 158.605Z" fill="#FDD706"/>
<path d="M366 158.605V190C396.453 176.834 382.562 147.065 366 158.605Z" fill="#FDD706"/>
<path d="M366 158.605V190C335.547 176.834 349.438 147.065 366 158.605Z" fill="#FDD706"/>
<path d="M385.5 318C382 364 339 357 339 357M374.5 306C374.5 306 380.5 323 402.5 321" stroke="#FDD706" stroke-width="9" stroke-linecap="round"/>
<path d="M115 98L126.634 119.416" stroke="white" stroke-width="9" stroke-linecap="round"/>
<path d="M158 89V109.353" stroke="white" stroke-width="9" stroke-linecap="round"/>
<path d="M199.408 98L186 119.547" stroke="white" stroke-width="9" stroke-linecap="round"/>
<path d="M336 101L349.931 118.643" stroke="white" stroke-width="9" stroke-linecap="round"/>
<path d="M377 89V109.154" stroke="white" stroke-width="9" stroke-linecap="round"/>
<path d="M407.287 116L405 119.293" stroke="white" stroke-width="9" stroke-linecap="round"/>
</svg>
