<svg width="500" height="500" viewBox="0 0 500 500" fill="none" xmlns="http://www.w3.org/2000/svg">
<rect width="500" height="500" fill="white"/>
<path d="M95.6 220C89.406 220 84.2987 217.501 80.278 212.502C76.366 207.503 74.41 201.038 74.41 193.105V97.587C74.41 96.0657 74.8447 94.8703 75.714 94.001C76.692 93.1317 77.8873 92.697 79.3 92.697C80.8213 92.697 82.0167 93.1317 82.886 94.001C83.7553 94.8703 84.19 96.0657 84.19 97.587V193.105C84.19 198.104 85.2223 202.233 87.287 205.493C89.4603 208.644 92.2313 210.22 95.6 210.22H99.675C102.392 210.22 103.75 211.85 103.75 215.11C103.75 216.523 103.315 217.718 102.446 218.696C101.577 219.565 100.381 220 98.86 220H95.6ZM157.419 220.978C148.726 220.978 140.902 219.022 133.947 215.11C127.101 211.089 121.668 205.656 117.647 198.81C113.735 191.855 111.779 184.086 111.779 175.501C111.779 166.808 113.735 159.038 117.647 152.192C121.668 145.237 127.101 139.804 133.947 135.892C140.902 131.871 148.726 129.861 157.419 129.861C166.112 129.861 173.882 131.871 180.728 135.892C187.574 139.804 192.953 145.237 196.865 152.192C200.886 159.038 202.896 166.808 202.896 175.501C202.896 184.086 200.886 191.855 196.865 198.81C192.953 205.656 187.574 211.089 180.728 215.11C173.882 219.022 166.112 220.978 157.419 220.978ZM157.419 211.85C164.265 211.85 170.35 210.274 175.675 207.123C181.108 203.863 185.346 199.516 188.389 194.083C191.54 188.541 193.116 182.347 193.116 175.501C193.116 168.546 191.54 162.352 188.389 156.919C185.346 151.377 181.108 147.03 175.675 143.879C170.35 140.619 164.265 138.989 157.419 138.989C150.682 138.989 144.596 140.619 139.163 143.879C133.73 147.03 129.437 151.377 126.286 156.919C123.135 162.352 121.559 168.546 121.559 175.501C121.559 182.347 123.135 188.541 126.286 194.083C129.437 199.516 133.73 203.863 139.163 207.123C144.596 210.274 150.682 211.85 157.419 211.85ZM268.049 220.978C259.138 220.978 251.26 219.022 244.414 215.11C237.568 211.198 232.189 205.819 228.277 198.973C224.365 192.127 222.409 184.303 222.409 175.501C222.409 166.59 224.419 158.712 228.44 151.866C232.461 145.02 237.894 139.641 244.74 135.729C251.695 131.817 259.464 129.861 268.049 129.861C276.96 129.861 284.784 131.817 291.521 135.729C298.367 139.641 303.746 145.02 307.658 151.866C311.57 158.712 313.526 166.59 313.526 175.501V207.449C313.526 216.251 311.57 224.184 307.658 231.247C303.746 238.31 298.421 243.852 291.684 247.873C284.947 252.002 277.286 254.067 268.701 254.067C259.682 254.067 251.966 252.383 245.555 249.014C239.252 245.645 234.036 241.353 229.907 236.137C229.038 235.05 228.603 233.909 228.603 232.714C228.603 231.519 229.146 230.541 230.233 229.78C231.32 228.911 232.569 228.585 233.982 228.802C235.503 229.019 236.644 229.726 237.405 230.921C240.774 234.942 245.066 238.256 250.282 240.864C255.498 243.581 261.638 244.939 268.701 244.939C275.438 244.939 281.415 243.309 286.631 240.049C291.956 236.789 296.139 232.279 299.182 226.52C302.225 220.869 303.746 214.512 303.746 207.449V200.277C300.595 206.58 295.922 211.633 289.728 215.436C283.534 219.131 276.308 220.978 268.049 220.978ZM268.049 211.85C275.004 211.85 281.143 210.329 286.468 207.286C291.901 204.135 296.139 199.842 299.182 194.409C302.225 188.867 303.746 182.564 303.746 175.501C303.746 168.329 302.225 162.026 299.182 156.593C296.139 151.051 291.901 146.759 286.468 143.716C281.143 140.565 275.004 138.989 268.049 138.989C261.094 138.989 254.9 140.565 249.467 143.716C244.034 146.759 239.796 151.051 236.753 156.593C233.71 162.026 232.189 168.329 232.189 175.501C232.189 182.564 233.71 188.867 236.753 194.409C239.796 199.842 244.034 204.135 249.467 207.286C254.9 210.329 261.094 211.85 268.049 211.85ZM378.679 220.978C369.985 220.978 362.161 219.022 355.207 215.11C348.361 211.089 342.927 205.656 338.907 198.81C334.995 191.855 333.039 184.086 333.039 175.501C333.039 166.808 334.995 159.038 338.907 152.192C342.927 145.237 348.361 139.804 355.207 135.892C362.161 131.871 369.985 129.861 378.679 129.861C387.372 129.861 395.142 131.871 401.988 135.892C408.834 139.804 414.213 145.237 418.125 152.192C422.145 159.038 424.156 166.808 424.156 175.501C424.156 184.086 422.145 191.855 418.125 198.81C414.213 205.656 408.834 211.089 401.988 215.11C395.142 219.022 387.372 220.978 378.679 220.978ZM378.679 211.85C385.525 211.85 391.61 210.274 396.935 207.123C402.368 203.863 406.606 199.516 409.649 194.083C412.8 188.541 414.376 182.347 414.376 175.501C414.376 168.546 412.8 162.352 409.649 156.919C406.606 151.377 402.368 147.03 396.935 143.879C391.61 140.619 385.525 138.989 378.679 138.989C371.941 138.989 365.856 140.619 360.423 143.879C354.989 147.03 350.697 151.377 347.546 156.919C344.394 162.352 342.819 168.546 342.819 175.501C342.819 182.347 344.394 188.541 347.546 194.083C350.697 199.516 354.989 203.863 360.423 207.123C365.856 210.274 371.941 211.85 378.679 211.85Z" fill="black"/>
<path d="M206.843 100L193 123.746" stroke="black" stroke-width="9" stroke-linecap="round"/>
<circle cx="165" cy="165" r="18" fill="#FDD706"/>
<circle cx="386" cy="165" r="18" fill="#FDD706"/>
<path d="M100 109.426L115.579 125.692M154.383 89V115.252" stroke="black" stroke-width="9" stroke-linecap="round"/>
<path d="M327.217 99L341 123.401" stroke="black" stroke-width="9" stroke-linecap="round"/>
<path d="M445 98.7754L418.341 125.692M382.537 89V115.252" stroke="black" stroke-width="9" stroke-linecap="round"/>
<path d="M84 370.913C179.093 286.647 261.476 414.694 423.417 344.08" stroke="black" stroke-width="9" stroke-linecap="round"/>
<path d="M84 371.324C179.093 287.059 220.255 484.56 382.197 413.946" stroke="black" stroke-width="9" stroke-linecap="round"/>
<circle cx="425.5" cy="337.5" r="17.5" fill="black"/>
<circle cx="425.5" cy="304.5" r="8.5" fill="black"/>
<circle cx="449.5" cy="314.5" r="8.5" fill="black"/>
<circle cx="458.5" cy="337.5" r="8.5" fill="black"/>
<circle cx="401.546" cy="371.665" r="8.5" transform="rotate(17.524 401.546 371.665)" fill="black"/>
<circle cx="421.546" cy="388.665" r="8.5" transform="rotate(17.524 421.546 388.665)" fill="black"/>
<circle cx="422.546" cy="413.665" r="8.5" transform="rotate(17.524 422.546 413.665)" fill="black"/>
<circle cx="391.5" cy="403.5" r="17.5" fill="black"/>
</svg>
