<?xml version="1.0" standalone="no"?>
<!DOCTYPE svg PUBLIC "-//W3C//DTD SVG 20010904//EN"
 "http://www.w3.org/TR/2001/REC-SVG-20010904/DTD/svg10.dtd">
<svg version="1.0" xmlns="http://www.w3.org/2000/svg"
 width="2161.000000pt" height="2161.000000pt" viewBox="0 0 2161.000000 2161.000000"
 preserveAspectRatio="xMidYMid meet">
<metadata>
Created by potrace 1.11, written by Peter Selinger 2001-2013
</metadata>
<g transform="translate(0.000000,2161.000000) scale(0.100000,-0.100000)"
fill="#000000" stroke="none">
<path d="M10130 19039 c-93 -8 -204 -25 -262 -40 -108 -26 -163 -43 -203 -59
-11 -5 -51 -19 -90 -32 -38 -13 -71 -26 -73 -30 -2 -5 -9 -8 -16 -8 -13 0
-177 -79 -186 -89 -3 -3 -15 -12 -27 -18 -57 -32 -68 -39 -81 -50 -7 -7 -17
-13 -21 -13 -5 0 -24 -13 -42 -30 -19 -16 -37 -30 -41 -30 -4 0 -13 -6 -20
-12 -7 -7 -35 -31 -63 -53 -78 -63 -265 -255 -265 -272 0 -5 -9 -15 -20 -23
-11 -8 -20 -20 -20 -27 0 -7 -4 -13 -10 -13 -5 0 -10 -5 -10 -11 0 -7 -8 -19
-18 -28 -9 -9 -23 -28 -31 -43 -8 -16 -18 -28 -23 -28 -4 0 -8 -9 -8 -20 0
-11 -4 -20 -8 -20 -5 0 -17 -17 -29 -37 -11 -21 -30 -55 -41 -76 -12 -21 -22
-44 -22 -52 0 -8 -4 -15 -10 -15 -5 0 -10 -9 -10 -20 0 -11 -4 -20 -10 -20 -5
0 -10 -6 -10 -13 0 -7 -9 -32 -20 -55 -11 -22 -20 -48 -20 -56 0 -8 -4 -18
-10 -21 -5 -3 -10 -17 -10 -31 0 -13 -4 -24 -10 -24 -5 0 -10 -13 -10 -29 0
-17 -4 -33 -10 -36 -5 -3 -10 -21 -10 -40 0 -19 -4 -37 -10 -40 -5 -3 -10 -21
-10 -39 0 -17 -4 -36 -9 -41 -5 -6 -12 -32 -14 -60 -3 -27 -11 -104 -18 -170
-7 -66 -12 -154 -12 -195 2 -122 28 -340 53 -440 6 -25 15 -61 19 -80 11 -47
39 -131 51 -152 6 -10 10 -25 10 -33 0 -8 4 -23 9 -33 6 -9 38 -74 71 -144 34
-71 66 -128 71 -128 5 0 9 -9 9 -20 0 -11 5 -20 10 -20 6 0 10 -7 10 -15 0 -8
5 -15 10 -15 6 0 10 -7 10 -15 0 -8 3 -15 8 -15 4 0 18 -18 32 -40 14 -22 28
-40 32 -40 5 0 8 -7 8 -15 0 -8 5 -15 10 -15 6 0 10 -4 10 -10 0 -27 294 -318
358 -354 9 -6 28 -20 42 -33 14 -13 28 -23 32 -23 3 0 13 -6 20 -13 43 -41
298 -172 423 -217 33 -12 67 -25 75 -29 24 -13 229 -63 295 -72 203 -30 425
-33 610 -8 79 11 311 63 350 78 11 5 31 13 45 19 14 5 41 15 60 22 68 24 279
125 290 138 3 4 25 18 50 31 25 14 51 31 58 38 7 7 17 13 20 13 4 0 19 10 32
23 14 12 40 32 58 45 89 63 301 275 362 362 13 19 27 37 30 40 13 10 70 99 70
108 0 6 3 12 8 14 9 4 41 57 49 81 3 9 9 17 14 17 5 0 9 9 9 20 0 11 5 20 10
20 6 0 10 9 10 20 0 11 5 20 10 20 6 0 10 9 10 20 0 11 5 20 10 20 6 0 10 7
10 15 0 8 4 23 9 33 5 9 14 31 21 47 7 17 16 38 21 47 5 10 9 27 9 37 0 11 5
23 10 26 6 3 10 17 10 30 0 13 5 27 10 30 6 3 10 21 10 40 0 19 5 37 10 40 6
3 10 22 10 41 0 19 4 34 9 34 10 0 14 36 32 245 15 169 15 186 1 340 -20 215
-23 240 -33 250 -5 5 -9 24 -9 41 0 18 -4 36 -10 39 -5 3 -10 21 -10 40 0 19
-4 37 -10 40 -5 3 -10 16 -10 29 0 12 -4 26 -8 31 -4 6 -14 28 -21 50 -13 42
-27 78 -42 107 -5 10 -9 25 -9 33 0 8 -4 15 -10 15 -5 0 -10 9 -10 20 0 11 -4
20 -10 20 -5 0 -10 9 -10 20 0 11 -4 20 -10 20 -5 0 -10 9 -10 19 0 11 -3 21
-7 23 -10 4 -42 57 -50 81 -3 9 -9 17 -14 17 -5 0 -9 5 -9 11 0 10 -56 98 -70
109 -3 3 -17 21 -30 40 -13 19 -29 40 -35 46 -5 7 -26 31 -45 55 -82 102 -210
218 -350 319 -30 22 -60 44 -67 50 -7 5 -14 10 -17 10 -3 0 -29 14 -58 32 -87
51 -159 88 -174 88 -8 0 -14 5 -14 10 0 6 -8 10 -18 10 -10 0 -22 4 -27 9 -6
5 -57 25 -115 46 -297 103 -570 140 -850 114z"/>
<path d="M7060 15493 c-139 -21 -249 -80 -355 -187 -59 -60 -91 -104 -102
-138 -3 -10 -9 -18 -14 -18 -5 0 -9 -9 -9 -19 0 -11 -4 -23 -10 -26 -5 -3 -10
-17 -10 -31 0 -13 -4 -24 -9 -24 -5 0 -12 -17 -15 -37 -16 -92 -19 -103 -27
-103 -5 0 -9 -15 -9 -34 0 -19 -4 -38 -10 -41 -5 -3 -10 -21 -10 -40 0 -19 -4
-37 -10 -40 -5 -3 -10 -21 -10 -40 0 -19 -4 -37 -10 -40 -5 -3 -10 -24 -10
-45 0 -21 -4 -42 -10 -45 -5 -3 -10 -23 -10 -44 0 -20 -4 -41 -9 -46 -9 -10
-15 -47 -27 -145 -3 -25 -9 -54 -14 -65 -5 -11 -11 -45 -15 -75 -3 -30 -10
-82 -16 -115 -76 -488 -84 -1130 -20 -1645 15 -125 55 -347 81 -450 6 -25 14
-58 16 -75 3 -16 9 -39 14 -50 5 -11 11 -32 14 -47 3 -16 9 -40 12 -55 3 -16
9 -37 14 -48 4 -11 22 -67 41 -125 18 -58 36 -109 41 -115 4 -5 8 -17 8 -27 0
-10 4 -26 9 -36 5 -9 14 -29 20 -44 6 -16 16 -40 22 -55 6 -16 15 -36 20 -45
5 -10 9 -25 9 -33 0 -8 5 -15 10 -15 6 0 10 -6 10 -14 0 -15 42 -103 134 -281
17 -33 33 -62 36 -65 10 -10 41 -65 47 -82 3 -10 9 -18 14 -18 5 0 9 -6 9 -13
0 -7 8 -22 18 -33 9 -10 23 -31 31 -46 8 -16 18 -28 23 -28 4 0 8 -6 8 -13 0
-7 8 -22 18 -33 10 -10 28 -35 42 -54 13 -19 27 -37 30 -40 3 -3 17 -20 29
-39 66 -93 290 -317 411 -411 25 -19 47 -37 50 -40 14 -15 160 -110 169 -110
6 0 11 -4 11 -8 0 -4 22 -19 50 -33 27 -13 50 -27 50 -31 0 -5 9 -8 20 -8 11
0 20 -3 20 -7 0 -9 49 -33 67 -33 7 0 13 -3 13 -8 0 -4 15 -12 33 -19 238 -85
265 -93 362 -114 256 -53 546 -53 790 1 183 40 290 78 485 172 58 28 107 54
110 57 3 4 26 18 53 31 26 14 47 28 47 31 0 4 14 12 30 19 17 7 30 16 30 20 0
4 14 13 30 20 17 7 30 16 30 21 0 4 8 10 18 13 9 4 31 19 49 34 17 15 46 38
63 51 18 14 45 36 60 50 15 14 54 48 85 75 62 54 176 170 221 226 16 19 40 46
54 60 14 14 37 41 50 60 13 19 31 42 40 50 9 8 27 31 40 50 13 19 30 41 37 48
7 7 20 26 30 42 9 17 21 30 25 30 4 0 8 7 8 15 0 8 5 15 10 15 6 0 10 7 10 15
0 8 4 15 8 15 5 0 15 12 23 28 8 15 17 29 20 32 14 12 69 100 69 109 0 6 5 11
10 11 6 0 10 7 10 15 0 8 5 15 10 15 6 0 10 6 10 14 0 8 3 16 8 18 9 4 41 57
49 81 3 9 9 17 14 17 5 0 9 9 9 20 0 11 3 20 8 20 4 0 13 15 21 33 8 17 17 34
20 37 4 3 22 37 41 75 19 39 38 71 42 73 5 2 8 12 8 23 0 10 5 19 10 19 6 0
10 9 10 20 0 11 5 20 10 20 6 0 10 9 10 20 0 11 5 20 10 20 6 0 10 6 10 14 0
7 14 42 31 77 17 35 40 81 50 102 11 22 19 45 19 53 0 8 5 14 10 14 6 0 10 7
10 15 0 8 5 24 10 35 6 11 15 29 20 40 6 11 10 27 10 35 0 8 5 15 10 15 6 0
10 11 10 24 0 14 5 28 10 31 6 3 10 15 10 26 0 10 5 19 10 19 6 0 10 7 10 15
0 8 4 23 9 33 5 9 14 31 21 47 7 17 16 38 21 47 5 10 9 27 9 38 0 11 5 20 10
20 6 0 10 6 10 13 0 12 29 80 50 119 6 10 10 25 10 33 0 8 5 15 10 15 6 0 10
6 10 13 0 15 142 301 152 305 5 2 8 12 8 22 0 10 3 20 8 22 9 4 41 57 49 81 3
9 9 17 14 17 5 0 9 7 9 15 0 9 9 25 20 37 11 12 20 28 20 35 0 7 5 13 10 13 6
0 10 6 10 13 0 7 9 23 20 35 11 12 20 25 20 29 0 4 12 22 26 38 14 17 33 42
42 58 9 15 20 27 24 27 4 0 8 7 8 15 0 8 5 15 10 15 6 0 10 5 10 10 0 6 10 21
23 34 12 12 33 38 47 56 32 44 249 260 260 260 5 0 20 11 34 25 14 14 29 25
34 25 4 0 17 8 28 18 10 10 60 38 109 62 95 46 105 50 173 71 57 17 244 17
307 0 62 -16 185 -72 185 -83 0 -4 5 -8 11 -8 34 0 230 -176 289 -260 13 -19
32 -44 42 -54 10 -11 18 -25 18 -32 0 -7 3 -14 8 -16 16 -7 129 -217 163 -305
5 -13 13 -33 18 -45 23 -55 51 -146 51 -166 0 -11 5 -24 10 -27 6 -3 10 -19
10 -34 0 -15 4 -31 9 -36 5 -6 11 -28 14 -50 4 -22 11 -65 17 -95 25 -130 34
-259 34 -470 0 -243 -10 -357 -55 -590 -5 -30 -13 -72 -16 -93 -3 -20 -9 -40
-14 -43 -5 -3 -9 -16 -9 -29 0 -13 -4 -34 -9 -47 -5 -13 -14 -43 -21 -68 -23
-81 -34 -115 -42 -125 -4 -5 -8 -17 -8 -27 0 -10 -4 -26 -9 -36 -12 -23 -26
-60 -41 -102 -13 -37 -40 -100 -71 -163 -11 -22 -19 -45 -19 -53 0 -8 -4 -14
-10 -14 -5 0 -10 -8 -10 -18 0 -10 -4 -22 -9 -27 -11 -13 -45 -116 -61 -185
-16 -72 -1 -272 21 -286 5 -3 9 -16 9 -29 0 -13 5 -27 10 -30 6 -3 10 -15 10
-26 0 -10 4 -19 9 -19 5 0 11 -8 14 -17 25 -80 176 -225 287 -275 131 -61 270
-71 445 -33 41 9 165 67 165 77 0 4 6 8 14 8 31 0 206 195 206 229 0 6 5 11
10 11 6 0 10 9 10 20 0 11 5 20 10 20 6 0 10 6 10 14 0 11 29 76 71 158 5 10
9 25 9 33 0 8 5 15 10 15 6 0 10 9 10 19 0 11 5 23 10 26 6 3 10 17 10 31 0
13 5 24 10 24 6 0 10 9 10 19 0 11 5 23 10 26 6 3 10 17 10 31 0 13 5 24 10
24 6 0 10 11 10 24 0 14 5 28 10 31 6 3 10 17 10 30 0 13 5 27 10 30 6 3 10
16 10 29 0 12 4 26 8 31 5 6 14 30 21 55 7 25 17 53 22 62 5 10 9 29 9 42 0
14 4 28 10 31 5 3 10 19 10 35 0 16 5 32 10 35 6 3 10 21 10 40 0 19 5 37 10
40 6 3 10 24 10 45 0 21 4 41 9 44 5 3 11 23 15 43 3 21 10 65 16 98 57 318
73 498 74 805 0 218 -9 362 -34 550 -6 41 -13 98 -16 125 -3 28 -10 54 -15 60
-5 5 -9 28 -9 51 0 24 -4 45 -9 48 -5 3 -11 23 -15 43 -13 88 -19 113 -27 119
-5 3 -9 18 -9 34 0 16 -4 32 -10 35 -5 3 -10 17 -10 31 0 13 -4 32 -9 42 -5 9
-15 37 -22 62 -7 25 -16 49 -21 55 -4 5 -8 19 -8 32 0 13 -4 23 -10 23 -5 0
-10 9 -10 20 0 11 -4 28 -9 38 -5 9 -13 28 -18 42 -6 14 -20 45 -32 68 -11 24
-21 50 -21 58 0 8 -4 14 -10 14 -5 0 -10 9 -10 20 0 11 -4 20 -10 20 -5 0 -10
9 -10 20 0 11 -4 20 -10 20 -5 0 -10 9 -10 20 0 11 -4 20 -10 20 -5 0 -10 9
-10 20 0 11 -3 20 -8 20 -4 0 -15 17 -24 38 -18 37 -49 93 -58 102 -3 3 -11
17 -19 33 -8 15 -18 27 -23 27 -4 0 -8 5 -8 11 0 12 -54 93 -82 123 -10 11
-18 24 -18 29 0 5 -8 17 -18 26 -10 9 -29 32 -42 51 -66 94 -293 317 -416 408
-38 29 -74 56 -80 60 -5 5 -21 15 -35 22 -13 7 -26 16 -29 19 -12 15 -153 94
-250 140 -158 74 -311 123 -497 158 -129 24 -475 24 -605 0 -212 -39 -442
-114 -583 -191 -174 -94 -314 -181 -364 -225 -13 -12 -27 -21 -30 -21 -3 0
-17 -10 -31 -23 -14 -12 -45 -38 -70 -57 -53 -41 -320 -307 -370 -369 -19 -23
-43 -53 -54 -64 -10 -12 -30 -38 -45 -57 -14 -19 -28 -37 -31 -40 -3 -3 -17
-21 -30 -40 -13 -19 -30 -41 -37 -48 -7 -7 -20 -26 -30 -42 -9 -17 -21 -30
-25 -30 -4 0 -8 -6 -8 -13 0 -7 -8 -22 -17 -33 -10 -10 -24 -31 -32 -46 -8
-16 -18 -28 -23 -28 -4 0 -8 -6 -8 -13 0 -7 -8 -22 -17 -33 -17 -19 -24 -31
-55 -86 -7 -13 -15 -25 -18 -28 -6 -6 -27 -43 -54 -95 -12 -22 -23 -42 -26
-45 -9 -9 -57 -102 -135 -260 -43 -85 -86 -172 -96 -193 -10 -22 -19 -45 -19
-53 0 -8 -4 -14 -10 -14 -5 0 -10 -6 -10 -13 0 -8 -6 -27 -14 -43 -14 -30 -42
-93 -57 -131 -5 -13 -13 -33 -18 -45 -5 -13 -18 -44 -30 -70 -12 -26 -21 -55
-21 -63 0 -8 -4 -15 -10 -15 -5 0 -10 -7 -10 -15 0 -8 -9 -37 -21 -63 -12 -26
-24 -56 -29 -67 -4 -11 -17 -40 -29 -63 -11 -24 -21 -50 -21 -58 0 -8 -4 -14
-10 -14 -5 0 -10 -6 -10 -12 0 -16 -142 -302 -152 -306 -5 -2 -8 -12 -8 -22 0
-10 -3 -20 -7 -22 -7 -3 -37 -55 -67 -115 -6 -13 -14 -23 -18 -23 -5 0 -8 -5
-8 -10 0 -13 -140 -224 -152 -228 -4 -2 -8 -10 -8 -18 0 -8 -4 -14 -10 -14 -5
0 -10 -6 -10 -13 0 -7 -9 -19 -20 -27 -11 -8 -20 -18 -20 -23 0 -5 -6 -14 -12
-22 -7 -7 -29 -32 -48 -56 -76 -95 -283 -292 -339 -323 -9 -5 -18 -12 -21 -16
-3 -4 -25 -17 -50 -31 -25 -13 -46 -27 -48 -31 -2 -5 -12 -8 -23 -8 -10 0 -19
-4 -19 -10 0 -5 -7 -10 -15 -10 -8 0 -23 -4 -33 -9 -83 -42 -145 -55 -272 -54
-93 0 -127 4 -180 23 -36 12 -69 26 -74 31 -6 5 -18 9 -28 9 -10 0 -18 5 -18
10 0 6 -5 10 -11 10 -11 0 -83 48 -129 85 -30 24 -179 174 -200 201 -8 10 -26
35 -40 54 -13 19 -32 44 -42 54 -10 11 -18 26 -18 33 0 7 -4 13 -9 13 -5 0
-11 8 -14 18 -6 17 -38 73 -47 82 -6 6 -108 213 -122 250 -6 14 -14 33 -19 42
-5 10 -9 25 -9 33 0 8 -4 15 -8 15 -4 0 -13 21 -20 48 -8 26 -18 55 -23 64 -5
10 -9 27 -9 37 0 11 -4 23 -10 26 -5 3 -10 17 -10 30 0 13 -4 26 -9 29 -5 3
-11 20 -14 38 -3 18 -11 53 -17 78 -6 25 -14 59 -16 75 -3 17 -9 39 -14 50 -5
11 -11 38 -14 60 -3 22 -10 67 -16 100 -50 274 -69 768 -42 1075 17 184 43
392 61 485 6 28 15 74 21 103 5 28 15 76 21 105 5 28 13 71 16 95 3 23 9 42
14 42 5 0 9 15 9 34 0 19 4 37 9 40 5 3 11 20 14 38 9 55 18 92 27 113 5 11
11 36 15 55 3 19 11 60 17 90 18 87 9 262 -13 276 -5 3 -9 14 -9 25 0 10 -4
27 -9 37 -5 9 -15 31 -22 47 -8 17 -16 32 -19 35 -3 3 -12 18 -20 34 -19 37
-123 143 -175 178 -123 83 -307 124 -455 101z"/>
<path d="M10080 9398 c-151 -11 -401 -43 -530 -68 -92 -17 -156 -30 -195 -39
-22 -6 -60 -15 -85 -20 -25 -6 -81 -20 -125 -32 -44 -11 -96 -24 -115 -29 -44
-10 -323 -103 -370 -123 -19 -9 -56 -25 -82 -36 -26 -12 -55 -21 -63 -21 -8 0
-15 -4 -15 -10 0 -5 -7 -10 -15 -10 -8 0 -69 -27 -137 -60 -67 -33 -128 -60
-135 -60 -7 0 -13 -3 -13 -7 0 -5 -10 -13 -23 -18 -31 -15 -111 -59 -117 -65
-3 -3 -25 -16 -50 -29 -25 -13 -64 -37 -87 -53 -23 -15 -44 -28 -48 -28 -3 0
-15 -9 -27 -20 -12 -11 -28 -20 -35 -20 -7 0 -13 -4 -13 -9 0 -5 -8 -12 -17
-15 -10 -4 -33 -20 -52 -36 -18 -17 -36 -30 -40 -30 -3 0 -21 -14 -40 -30 -18
-17 -37 -30 -40 -30 -3 0 -17 -10 -31 -23 -14 -12 -38 -33 -55 -46 -143 -110
-442 -413 -555 -561 -14 -18 -31 -39 -37 -46 -7 -7 -13 -16 -13 -21 0 -5 -9
-15 -20 -23 -11 -8 -20 -19 -20 -25 0 -6 -8 -20 -18 -31 -22 -24 -82 -110 -82
-119 0 -3 -9 -15 -20 -27 -11 -12 -20 -28 -20 -35 0 -7 -4 -13 -9 -13 -5 0
-11 -8 -14 -17 -6 -18 -37 -73 -47 -83 -9 -9 -41 -65 -58 -102 -9 -21 -20 -38
-24 -38 -5 0 -8 -9 -8 -20 0 -11 -4 -20 -10 -20 -5 0 -10 -9 -10 -20 0 -11 -4
-20 -10 -20 -5 0 -10 -9 -10 -20 0 -11 -4 -20 -10 -20 -5 0 -10 -6 -10 -14 0
-12 -14 -44 -51 -118 -5 -10 -9 -25 -9 -33 0 -8 -4 -15 -10 -15 -5 0 -10 -7
-10 -15 0 -8 -4 -23 -9 -33 -15 -29 -29 -65 -42 -107 -7 -22 -17 -44 -21 -49
-4 -6 -8 -20 -8 -32 0 -13 -4 -26 -10 -29 -5 -3 -10 -17 -10 -30 0 -13 -4 -27
-10 -30 -5 -3 -10 -17 -10 -30 0 -13 -4 -27 -10 -30 -5 -3 -10 -19 -10 -35 0
-16 -4 -32 -10 -35 -5 -3 -10 -19 -10 -35 0 -16 -4 -31 -9 -34 -5 -3 -11 -23
-14 -43 -3 -21 -11 -58 -17 -83 -6 -25 -14 -61 -16 -80 -3 -19 -9 -44 -14 -55
-5 -11 -11 -38 -14 -60 -3 -22 -10 -69 -16 -105 -6 -36 -16 -99 -22 -140 -16
-106 -15 -1324 1 -1440 16 -114 29 -214 36 -275 3 -27 10 -59 15 -70 5 -11 11
-40 14 -65 3 -25 9 -69 12 -98 4 -29 10 -55 15 -58 5 -3 9 -25 9 -49 0 -24 4
-46 9 -49 5 -3 11 -23 14 -43 3 -21 10 -59 16 -85 21 -95 30 -134 36 -163 4
-16 10 -39 15 -50 9 -21 18 -59 27 -113 3 -18 9 -35 14 -38 5 -3 9 -18 9 -34
0 -16 5 -32 10 -35 6 -3 10 -16 10 -27 0 -45 71 -227 93 -236 4 -2 7 -10 7
-18 0 -19 150 -170 178 -178 12 -4 22 -12 22 -17 0 -5 9 -9 20 -9 11 0 20 -4
20 -10 0 -5 6 -10 13 -10 8 0 28 -7 46 -16 44 -22 155 -44 221 -44 89 0 247
40 309 78 105 63 182 131 218 192 9 17 21 30 25 30 4 0 8 9 8 20 0 11 5 20 10
20 6 0 10 9 10 20 0 11 5 20 10 20 6 0 10 11 10 24 0 14 5 28 10 31 6 3 10 19
10 34 0 15 5 32 11 38 19 19 -1 325 -22 339 -5 3 -9 18 -9 34 0 16 -4 31 -9
34 -5 3 -12 23 -15 43 -16 91 -19 103 -27 109 -5 3 -9 20 -9 39 0 19 -4 36 -9
39 -5 3 -11 23 -14 43 -3 21 -11 58 -17 83 -6 25 -15 65 -20 90 -5 25 -14 68
-20 95 -94 428 -136 1009 -102 1405 11 122 16 169 37 320 4 25 10 54 15 65 5
11 11 38 14 60 2 22 10 60 16 85 6 25 14 60 17 78 3 18 9 35 14 38 5 3 9 16 9
30 0 13 4 32 10 42 5 9 19 46 30 82 12 36 26 75 31 88 5 12 13 32 18 45 44
111 141 307 161 327 10 10 41 65 47 83 3 9 9 17 14 17 5 0 9 6 9 13 0 7 8 22
18 33 10 10 28 35 42 54 13 19 27 37 30 40 3 3 17 21 30 40 64 91 309 336 402
402 18 13 44 33 58 46 13 12 28 22 32 22 3 0 13 6 20 13 22 22 106 77 117 77
6 0 11 3 11 8 0 4 21 18 48 32 26 13 49 27 52 31 6 7 272 138 342 169 26 11
54 20 61 20 7 0 17 4 23 9 10 10 209 79 264 92 19 4 71 17 115 28 143 38 325
71 560 103 154 20 741 16 915 -7 289 -37 499 -75 643 -115 20 -5 56 -15 80
-21 23 -6 53 -15 67 -19 14 -4 45 -13 70 -20 25 -7 54 -16 65 -20 11 -4 38
-13 60 -19 39 -12 53 -17 105 -39 14 -5 41 -15 60 -22 38 -14 63 -24 210 -88
19 -8 94 -44 165 -80 72 -36 140 -70 152 -76 13 -6 23 -14 23 -18 0 -5 9 -8
20 -8 11 0 20 -4 20 -9 0 -5 8 -11 18 -14 17 -6 73 -37 82 -47 3 -3 31 -21 63
-40 31 -19 57 -38 57 -42 0 -4 6 -8 13 -8 6 0 25 -11 41 -25 16 -14 33 -25 37
-25 4 0 14 -6 21 -13 7 -7 29 -24 48 -37 19 -13 37 -27 40 -30 3 -3 25 -21 50
-40 25 -19 56 -46 70 -60 14 -14 38 -36 54 -48 51 -40 159 -145 226 -222 36
-41 72 -82 80 -90 9 -8 27 -31 40 -50 14 -19 37 -48 52 -64 16 -16 28 -35 28
-42 0 -8 4 -14 8 -14 4 0 16 -13 25 -30 10 -16 23 -35 30 -43 11 -12 18 -23
50 -79 6 -13 14 -25 17 -28 10 -10 41 -65 47 -82 3 -10 9 -18 14 -18 5 0 9 -6
9 -12 0 -7 18 -51 41 -98 23 -47 45 -94 49 -105 4 -11 15 -36 24 -56 20 -47
76 -213 87 -261 5 -21 14 -57 20 -80 51 -204 74 -502 59 -765 -13 -225 -31
-371 -60 -493 -16 -66 -30 -131 -36 -165 -3 -16 -9 -39 -14 -50 -4 -11 -13
-40 -20 -65 -6 -25 -16 -53 -21 -62 -5 -10 -9 -29 -9 -42 0 -14 -4 -28 -10
-31 -5 -3 -10 -16 -10 -29 0 -12 -4 -26 -8 -31 -5 -6 -15 -30 -22 -55 -8 -25
-17 -49 -20 -55 -4 -5 -13 -31 -21 -58 -7 -26 -17 -47 -21 -47 -4 0 -8 -7 -8
-15 0 -8 -9 -37 -21 -63 -12 -26 -24 -56 -29 -67 -4 -11 -21 -49 -39 -84 -17
-35 -31 -70 -31 -77 0 -8 -4 -14 -10 -14 -5 0 -10 -7 -10 -15 0 -8 -8 -29 -19
-47 -26 -47 -57 -142 -72 -219 -18 -97 4 -240 55 -349 32 -71 89 -152 138
-195 67 -60 80 -70 142 -104 l57 -31 250 0 c159 0 249 4 249 10 0 6 9 10 20
10 11 0 20 5 20 10 0 6 5 10 11 10 30 0 209 156 209 182 0 5 9 18 20 30 11 12
20 28 20 35 0 7 5 13 10 13 6 0 10 9 10 20 0 11 5 20 10 20 6 0 10 6 10 14 0
8 8 31 19 53 10 21 33 67 50 102 17 35 31 70 31 77 0 8 5 14 10 14 6 0 10 7
10 15 0 8 5 24 10 35 6 11 15 29 20 40 6 11 10 27 10 35 0 8 5 15 10 15 6 0
10 9 10 19 0 11 5 23 10 26 6 3 10 15 10 26 0 10 4 27 9 37 5 9 14 31 21 47 7
17 16 38 21 47 5 10 9 27 9 38 0 11 5 20 10 20 6 0 10 14 10 30 0 17 5 30 10
30 6 0 10 14 10 30 0 17 5 30 10 30 6 0 10 14 10 30 0 17 5 30 10 30 6 0 10
11 10 25 0 14 4 33 9 43 14 29 31 87 31 110 0 11 5 24 10 27 6 3 10 19 10 35
0 16 4 31 9 34 9 6 17 42 27 123 4 24 10 43 15 43 5 0 9 17 9 38 0 21 4 42 9
48 8 8 13 33 27 152 3 26 9 56 14 67 18 40 22 160 22 685 1 342 -3 560 -10
605 -6 39 -14 90 -17 115 -3 25 -10 54 -15 65 -8 19 -15 54 -26 143 -4 23 -10
42 -14 42 -7 0 -10 12 -26 103 -3 20 -10 40 -15 43 -5 3 -9 18 -9 34 0 16 -4
32 -10 35 -5 3 -10 15 -10 26 0 10 -4 28 -10 39 -5 11 -14 29 -20 40 -5 11
-10 29 -10 39 0 11 -4 23 -10 26 -5 3 -10 17 -10 31 0 13 -4 24 -10 24 -5 0
-10 7 -10 15 0 8 -5 25 -12 38 -24 47 -28 57 -28 72 0 8 -4 15 -10 15 -5 0
-10 7 -10 15 0 8 -4 23 -9 33 -5 9 -27 53 -49 97 -55 112 -106 209 -112 215
-3 3 -11 15 -17 28 -7 12 -19 32 -25 45 -7 12 -15 24 -18 27 -3 3 -10 14 -16
25 -27 50 -40 70 -56 89 -10 11 -18 26 -18 33 0 7 -3 13 -8 13 -4 0 -18 18
-32 40 -14 22 -28 40 -32 40 -5 0 -8 7 -8 15 0 8 -4 15 -10 15 -5 0 -10 4 -10
10 0 5 -8 19 -17 31 -10 11 -25 29 -33 39 -8 9 -26 32 -40 50 -14 18 -31 39
-37 46 -7 7 -13 15 -13 19 0 3 -10 16 -22 29 -13 13 -48 51 -78 86 -78 89
-293 305 -370 370 -36 30 -72 62 -80 70 -8 9 -35 31 -60 50 -25 19 -51 40 -58
47 -7 7 -16 13 -20 13 -4 0 -23 14 -42 31 -19 17 -46 39 -60 48 -14 9 -29 20
-35 24 -5 5 -48 35 -95 67 -47 32 -90 62 -95 67 -6 4 -30 19 -55 32 -25 14
-47 27 -50 31 -5 6 -108 67 -210 124 -100 56 -386 197 -475 235 -44 18 -94 39
-110 47 -260 113 -787 270 -1090 324 -265 48 -476 74 -707 90 -171 12 -662 11
-828 -2z"/>
</g>
</svg>
