<?xml version="1.0" standalone="no"?>
<!DOCTYPE svg PUBLIC "-//W3C//DTD SVG 20010904//EN"
 "http://www.w3.org/TR/2001/REC-SVG-20010904/DTD/svg10.dtd">
<svg version="1.0" xmlns="http://www.w3.org/2000/svg"
 width="1080.000000pt" height="1080.000000pt" viewBox="0 0 1080.000000 1080.000000"
 preserveAspectRatio="xMidYMid meet">
<metadata>
Created by potrace 1.11, written by Peter Selinger 2001-2013
</metadata>
<g transform="translate(0.000000,1080.000000) scale(0.100000,-0.100000)"
fill="#000000" stroke="none">
<path d="M5022 9509 c-417 -54 -751 -355 -855 -769 -32 -130 -30 -340 6 -475
91 -347 355 -618 702 -720 122 -37 331 -46 456 -21 334 68 607 283 737 581 66
151 77 212 76 410 0 166 -3 187 -28 270 -61 203 -178 381 -335 507 -213 172
-493 252 -759 217z"/>
<path d="M3513 7740 c-87 -18 -174 -83 -212 -159 -26 -50 -65 -189 -96 -337
-132 -639 -74 -1244 163 -1719 77 -154 152 -264 257 -373 147 -154 285 -246
450 -301 559 -185 1124 158 1498 909 46 91 109 230 141 310 201 499 442 795
684 840 293 54 562 -342 564 -830 1 -262 -34 -410 -176 -745 -19 -43 -26 -78
-26 -126 0 -98 23 -153 94 -225 77 -77 134 -99 241 -92 136 9 220 74 290 223
146 310 217 626 217 955 -1 482 -162 904 -451 1183 -389 375 -889 404 -1329
78 -270 -200 -501 -540 -703 -1031 -132 -323 -253 -524 -409 -681 -75 -76
-111 -104 -172 -134 -101 -49 -194 -58 -278 -26 -275 105 -490 598 -490 1123
0 198 28 413 82 633 16 66 33 141 38 168 11 56 -1 134 -31 192 -62 120 -214
193 -346 165z"/>
<path d="M5000 4693 c-546 -54 -997 -247 -1340 -570 -261 -246 -436 -548 -528
-908 -58 -227 -64 -298 -59 -678 4 -314 7 -354 31 -486 34 -186 110 -491 136
-541 31 -60 78 -108 134 -138 45 -23 63 -27 146 -27 79 0 103 4 142 23 99 49
166 145 175 253 4 45 -4 93 -40 240 -90 356 -120 628 -99 886 44 542 281 916
726 1142 502 256 1252 233 1826 -54 348 -175 598 -417 739 -716 180 -384 159
-811 -67 -1324 -51 -117 -67 -163 -70 -211 -8 -116 42 -222 135 -283 46 -31
48 -31 180 -31 133 0 135 0 178 30 69 47 100 94 169 250 108 245 179 483 212
709 13 93 15 164 11 365 -4 219 -8 265 -30 361 -88 389 -282 727 -578 1009
-393 374 -932 615 -1542 691 -110 14 -482 19 -587 8z"/>
</g>
</svg>
