<svg xmlns="http://www.w3.org/2000/svg" width="192" height="41"><g data-name="Сгруппировать 886"><g data-name="Сгруппировать 882" transform="translate(-754 -6882)"><path data-name="Прямоугольник 1253" fill="#fff" d="M907 6884h39v37h-39z"/><path d="M911.423 6899.368q14.19-6.182 18.924-8.151c9.012-3.748 10.884-4.4 12.1-4.421a2.134 2.134 0 011.257.377 1.367 1.367 0 01.462.879 5.725 5.725 0 01.054 1.277c-.488 5.131-2.6 17.583-3.676 23.329-.455 2.432-1.351 3.247-2.218 3.327-1.884.173-3.315-1.245-5.141-2.442-2.856-1.872-4.469-3.038-7.242-4.864-3.2-2.111-1.127-3.272.7-5.168.478-.5 8.781-8.048 8.941-8.733a.663.663 0 00-.151-.574.747.747 0 00-.672-.065q-.43.1-13.687 9.047a6.161 6.161 0 01-3.519 1.3 23.158 23.158 0 01-5.044-1.194c-2.032-.661-3.647-1.01-3.507-2.132q.115-.876 2.419-1.792z" fill="#e1e1e1" fill-rule="evenodd"/><circle data-name="Эллипс 199" cx="2.5" cy="2.5" r="2.5" transform="translate(917 6908)" fill="#ff7276"/></g><text fill="#e1e1e1" font-size="30" font-family="OpenSans-Bold, Open Sans" font-weight="700" data-name="Сгруппировать 884"><tspan x="0" y="32">Telegram</tspan></text></g></svg>