<svg xmlns="http://www.w3.org/2000/svg" width="208.754" height="41"><g data-name="Сгруппировать 887"><text fill="#e1e1e1" font-size="30" font-family="OpenSans-Bold, Open Sans" font-weight="700" data-name="Сгруппировать 883"><tspan x="0" y="32">WhatsApp</tspan></text><g data-name="Сгруппировать 885"><path data-name="Прямоугольник 1254" fill="#fff" d="M165 4.316h38.272v33.716H165z"/><path data-name="Контур 39" d="M207.829 18.942a15.686 15.686 0 01-23.225 13.6l-8.669 2.757 2.826-8.338a15.378 15.378 0 01-2.246-8.02 15.657 15.657 0 0131.313 0zm-15.66-13.06a13.127 13.127 0 00-13.162 13.063 12.921 12.921 0 002.508 7.66l-1.643 4.85 5.056-1.607a13.178 13.178 0 0020.407-10.906 13.126 13.126 0 00-13.166-13.06zm7.908 16.638c-.1-.157-.354-.253-.736-.444s-2.271-1.112-2.622-1.237-.609-.192-.865.189-.989 1.239-1.215 1.494-.447.287-.831.1a10.581 10.581 0 01-3.088-1.89 11.457 11.457 0 01-2.134-2.637c-.226-.381-.023-.587.167-.776.172-.172.384-.445.576-.669a2.539 2.539 0 00.384-.633.709.709 0 00-.032-.669c-.1-.191-.862-2.063-1.184-2.826s-.639-.635-.863-.635-.479-.031-.735-.031a1.4 1.4 0 00-1.022.474 4.262 4.262 0 00-1.342 3.175 7.363 7.363 0 001.566 3.938c.193.253 2.656 4.224 6.557 5.749s3.9 1.015 4.606.951a3.872 3.872 0 002.59-1.809 3.164 3.164 0 00.224-1.814z" fill="#e1e1e1"/><path data-name="Многоугольник 2" d="M174.623 26.289l-2.18 7.016-4.971-5.332z" fill="#58f3ff"/><g data-name="whatsapp-logo-variant"><path data-name="Контур 39" d="M208.754 18.017a15.686 15.686 0 01-23.225 13.6l-8.669 2.757 2.826-8.338a15.378 15.378 0 01-2.246-8.02 15.657 15.657 0 0131.313 0zm-15.66-13.06a13.127 13.127 0 00-13.162 13.063 12.921 12.921 0 002.508 7.66l-1.643 4.85 5.056-1.607a13.178 13.178 0 0020.407-10.906 13.126 13.126 0 00-13.166-13.06zm7.908 16.638c-.1-.157-.354-.253-.736-.444s-2.271-1.112-2.622-1.237-.609-.192-.865.189-.989 1.239-1.215 1.494-.447.287-.831.1a10.581 10.581 0 01-3.088-1.89 11.457 11.457 0 01-2.134-2.637c-.226-.381-.023-.587.167-.776.172-.172.384-.445.576-.669a2.539 2.539 0 00.384-.633.709.709 0 00-.032-.669c-.1-.191-.862-2.063-1.184-2.826s-.639-.635-.863-.635-.479-.031-.735-.031a1.4 1.4 0 00-1.022.474 4.262 4.262 0 00-1.342 3.175 7.363 7.363 0 001.566 3.938c.193.253 2.656 4.224 6.557 5.749s3.9 1.015 4.606.951a3.872 3.872 0 002.59-1.809 3.164 3.164 0 00.224-1.814z" fill="#e1e1e1"/></g></g></g></svg>