<svg width="500" height="500" fill="none" xmlns="http://www.w3.org/2000/svg"><path fill="#000" d="M0 0h500v500H0z"/><path d="M123.147 220.978c-8.476 0-16.137-1.956-22.983-5.868-6.846-3.912-12.28-9.237-16.3-15.974-3.912-6.737-5.977-14.344-6.194-22.82V97.587c0-1.521.435-2.717 1.304-3.586.978-.87 2.173-1.304 3.586-1.304 1.521 0 2.717.435 3.586 1.304.87.87 1.304 2.065 1.304 3.586v50.856c3.477-5.651 8.313-10.16 14.507-13.529 6.303-3.369 13.366-5.053 21.19-5.053 8.693 0 16.463 2.01 23.309 6.031 6.955 3.912 12.388 9.291 16.3 16.137 4.021 6.846 6.031 14.616 6.031 23.309 0 8.693-2.01 16.517-6.031 23.472-3.912 6.846-9.345 12.279-16.3 16.3-6.846 3.912-14.616 5.868-23.309 5.868zm0-9.128c6.846 0 12.931-1.576 18.256-4.727 5.433-3.26 9.726-7.607 12.877-13.04 3.151-5.542 4.727-11.79 4.727-18.745 0-6.955-1.576-13.149-4.727-18.582-3.151-5.433-7.444-9.726-12.877-12.877-5.325-3.26-11.41-4.89-18.256-4.89-6.737 0-12.823 1.63-18.256 4.89-5.433 3.151-9.726 7.444-12.877 12.877-3.043 5.433-4.564 11.627-4.564 18.582s1.521 13.203 4.564 18.745c3.151 5.433 7.444 9.78 12.877 13.04 5.433 3.151 11.519 4.727 18.256 4.727zm78.237 8.15c-1.412 0-2.608-.435-3.586-1.304-.869-.978-1.304-2.173-1.304-3.586v-79.381c0-1.521.435-2.717 1.304-3.586.978-.869 2.174-1.304 3.586-1.304 1.522 0 2.717.435 3.586 1.304.87.869 1.304 2.065 1.304 3.586v79.381c0 1.413-.434 2.608-1.304 3.586-.869.869-2.064 1.304-3.586 1.304zm-.163-107.906c-2.064 0-3.857-.706-5.379-2.119-1.412-1.521-2.119-3.369-2.119-5.542 0-2.499.761-4.347 2.282-5.542 1.63-1.304 3.423-1.956 5.379-1.956 1.848 0 3.532.652 5.053 1.956 1.63 1.195 2.445 3.043 2.445 5.542 0 2.173-.76 4.021-2.282 5.542-1.412 1.413-3.205 2.119-5.379 2.119zm78.448 108.884c-8.911 0-16.789-1.956-23.635-5.868-6.846-3.912-12.225-9.291-16.137-16.137-3.912-6.846-5.868-14.67-5.868-23.472 0-8.911 2.01-16.789 6.031-23.635s9.454-12.225 16.3-16.137c6.955-3.912 14.724-5.868 23.309-5.868 8.911 0 16.735 1.956 23.472 5.868 6.846 3.912 12.225 9.291 16.137 16.137 3.912 6.846 5.868 14.724 5.868 23.635v31.948c0 8.802-1.956 16.735-5.868 23.798-3.912 7.063-9.237 12.605-15.974 16.626-6.737 4.129-14.398 6.194-22.983 6.194-9.019 0-16.735-1.684-23.146-5.053-6.303-3.369-11.519-7.661-15.648-12.877-.869-1.087-1.304-2.228-1.304-3.423 0-1.195.543-2.173 1.63-2.934 1.087-.869 2.336-1.195 3.749-.978 1.521.217 2.662.924 3.423 2.119 3.369 4.021 7.661 7.335 12.877 9.943 5.216 2.717 11.356 4.075 18.419 4.075 6.737 0 12.714-1.63 17.93-4.89 5.325-3.26 9.508-7.77 12.551-13.529 3.043-5.651 4.564-12.008 4.564-19.071v-7.172c-3.151 6.303-7.824 11.356-14.018 15.159-6.194 3.695-13.42 5.542-21.679 5.542zm0-9.128c6.955 0 13.094-1.521 18.419-4.564 5.433-3.151 9.671-7.444 12.714-12.877 3.043-5.542 4.564-11.845 4.564-18.908 0-7.172-1.521-13.475-4.564-18.908-3.043-5.542-7.281-9.834-12.714-12.877-5.325-3.151-11.464-4.727-18.419-4.727s-13.149 1.576-18.582 4.727c-5.433 3.043-9.671 7.335-12.714 12.877-3.043 5.433-4.564 11.736-4.564 18.908 0 7.063 1.521 13.366 4.564 18.908 3.043 5.433 7.281 9.726 12.714 12.877 5.433 3.043 11.627 4.564 18.582 4.564zM107.988 384.978c-5.651 0-11.573-1.032-17.767-3.097-6.194-2.065-11.356-5.542-15.485-10.432-.87-1.087-1.25-2.228-1.141-3.423.217-1.304.924-2.391 2.119-3.26 1.087-.761 2.228-1.032 3.423-.815 1.304.217 2.336.815 3.097 1.793 3.151 3.695 6.955 6.303 11.41 7.824 4.564 1.413 9.508 2.119 14.833 2.119 9.128 0 15.594-1.63 19.397-4.89 3.803-3.26 5.705-7.063 5.705-11.41 0-8.585-8.313-14.072-24.939-16.463-10.867-1.521-18.908-4.455-24.124-8.802-5.216-4.347-7.824-9.4-7.824-15.159 0-8.15 2.934-14.344 8.802-18.582 5.977-4.347 13.529-6.52 22.657-6.52 7.389 0 13.638 1.358 18.745 4.075 5.107 2.608 9.237 6.14 12.388 10.595.869 1.087 1.141 2.282.815 3.586-.217 1.195-1.032 2.173-2.445 2.934a5.336 5.336 0 01-3.423.489c-1.195-.217-2.228-.869-3.097-1.956-5.542-7.063-13.312-10.595-23.309-10.595-6.846 0-12.17 1.467-15.974 4.401-3.803 2.934-5.705 6.466-5.705 10.595 0 4.238 1.847 7.715 5.542 10.432 3.695 2.608 9.997 4.564 18.908 5.868 8.15 1.087 14.561 2.934 19.234 5.542 4.781 2.608 8.15 5.651 10.106 9.128 2.065 3.369 3.097 7.009 3.097 10.921 0 5.107-1.63 9.563-4.89 13.366-3.26 3.803-7.552 6.737-12.877 8.802-5.325 1.956-11.084 2.934-17.278 2.934zM173.21 384c-1.413 0-2.608-.435-3.586-1.304-.87-.978-1.304-2.173-1.304-3.586v-79.381c0-1.521.434-2.717 1.304-3.586.978-.869 2.173-1.304 3.586-1.304 1.521 0 2.716.435 3.586 1.304.869.869 1.304 2.065 1.304 3.586v79.381c0 1.413-.435 2.608-1.304 3.586-.87.869-2.065 1.304-3.586 1.304zm-.163-107.906c-2.065 0-3.858-.706-5.379-2.119-1.413-1.521-2.119-3.369-2.119-5.542 0-2.499.76-4.347 2.282-5.542 1.63-1.304 3.423-1.956 5.379-1.956 1.847 0 3.531.652 5.053 1.956 1.63 1.195 2.445 3.043 2.445 5.542 0 2.173-.761 4.021-2.282 5.542-1.413 1.413-3.206 2.119-5.379 2.119zM247.256 384c-5.976-.109-11.301-1.467-15.974-4.075-4.672-2.717-8.313-6.411-10.921-11.084-2.608-4.781-3.912-10.16-3.912-16.137v-45.803h-12.714c-1.304 0-2.39-.38-3.26-1.141-.76-.869-1.141-1.956-1.141-3.26 0-1.304.381-2.336 1.141-3.097.87-.869 1.956-1.304 3.26-1.304h12.714V271.53c0-1.521.435-2.717 1.304-3.586.978-.978 2.174-1.467 3.586-1.467 1.522 0 2.717.489 3.586 1.467.978.869 1.467 2.065 1.467 3.586v26.569h21.516c1.304 0 2.337.435 3.097 1.304.87.761 1.304 1.793 1.304 3.097s-.434 2.391-1.304 3.26c-.76.761-1.793 1.141-3.097 1.141h-21.516v45.803c0 6.303 1.956 11.464 5.868 15.485 3.912 3.912 8.965 5.868 15.159 5.868h3.586c1.522 0 2.717.489 3.586 1.467.978.869 1.467 2.065 1.467 3.586 0 1.413-.489 2.608-1.467 3.586-.869.869-2.064 1.304-3.586 1.304h-3.749zm68.675.815c-8.584 0-16.245-1.902-22.983-5.705-6.628-3.912-11.844-9.291-15.648-16.137-3.803-6.846-5.705-14.67-5.705-23.472 0-8.911 1.793-16.735 5.379-23.472 3.586-6.846 8.531-12.225 14.833-16.137 6.303-3.912 13.529-5.868 21.679-5.868 8.042 0 15.159 1.902 21.353 5.705 6.194 3.695 11.03 8.856 14.507 15.485 3.478 6.52 5.216 14.072 5.216 22.657 0 1.413-.434 2.554-1.304 3.423-.869.761-2.01 1.141-3.423 1.141h-68.297c.326 6.52 2.011 12.279 5.053 17.278 3.043 4.999 7.064 8.911 12.062 11.736 5.108 2.825 10.867 4.238 17.278 4.238 4.238 0 8.476-.706 12.714-2.119 4.347-1.521 7.77-3.477 10.269-5.868.87-.869 1.902-1.304 3.097-1.304 1.304-.109 2.391.217 3.26.978 1.196.978 1.793 2.065 1.793 3.26.109 1.195-.38 2.282-1.467 3.26-3.477 3.151-8.041 5.759-13.692 7.824-5.542 2.065-10.866 3.097-15.974 3.097zm-2.445-81.663c-5.65 0-10.758 1.304-15.322 3.912-4.564 2.608-8.313 6.248-11.247 10.921-2.825 4.564-4.564 9.889-5.216 15.974h63.407c-.76-9.128-4.02-16.517-9.78-22.168-5.759-5.759-13.04-8.639-21.842-8.639z" fill="#fff"/><circle cx="131" cy="182" r="18" fill="#FDD706"/><circle cx="289" cy="182" r="18" fill="#FDD706"/><path d="M429 189v121.87" stroke="#fff" stroke-width="9" stroke-linecap="round"/><path d="M452 161l-23.335-23.335L405.331 161M452 127l-23.335-23.335L405.331 127M452 339l-23.335 23.335L405.331 339M452 371l-23.335 23.335L405.331 371" stroke="#FDD706" stroke-width="9" stroke-linecap="round" stroke-linejoin="round"/><path d="M237 104l13.931 17.643M279 92v20.154M320.17 102L306 122.697M97 119l1.437 1.189M123 92v20.154M164.17 102L150 122.697" stroke="#fff" stroke-width="9" stroke-linecap="round"/></svg>