<svg width="500" height="500" fill="none" xmlns="http://www.w3.org/2000/svg"><path fill="#000" d="M0 0h500v500H0z"/><path d="M123.147 220.978c-8.476 0-16.137-1.956-22.983-5.868-6.846-3.912-12.28-9.237-16.3-15.974-3.912-6.737-5.977-14.344-6.194-22.82V97.587c0-1.521.435-2.717 1.304-3.586.978-.87 2.173-1.304 3.586-1.304 1.521 0 2.717.435 3.586 1.304.87.87 1.304 2.065 1.304 3.586v50.856c3.477-5.651 8.313-10.16 14.507-13.529 6.303-3.369 13.366-5.053 21.19-5.053 8.693 0 16.463 2.01 23.309 6.031 6.955 3.912 12.388 9.291 16.3 16.137 4.021 6.846 6.031 14.616 6.031 23.309 0 8.693-2.01 16.517-6.031 23.472-3.912 6.846-9.345 12.279-16.3 16.3-6.846 3.912-14.616 5.868-23.309 5.868zm0-9.128c6.846 0 12.931-1.576 18.256-4.727 5.433-3.26 9.726-7.607 12.877-13.04 3.151-5.542 4.727-11.79 4.727-18.745 0-6.955-1.576-13.149-4.727-18.582-3.151-5.433-7.444-9.726-12.877-12.877-5.325-3.26-11.41-4.89-18.256-4.89-6.737 0-12.823 1.63-18.256 4.89-5.433 3.151-9.726 7.444-12.877 12.877-3.043 5.433-4.564 11.627-4.564 18.582s1.521 13.203 4.564 18.745c3.151 5.433 7.444 9.78 12.877 13.04 5.433 3.151 11.519 4.727 18.256 4.727zm74.977 8.15c-1.412 0-2.608-.435-3.586-1.304-.869-.978-1.304-2.173-1.304-3.586v-79.381c0-1.521.435-2.717 1.304-3.586.978-.869 2.174-1.304 3.586-1.304 1.522 0 2.717.435 3.586 1.304.87.869 1.304 2.065 1.304 3.586v10.106c3.152-4.999 7.118-8.911 11.899-11.736 4.89-2.825 10.269-4.238 16.137-4.238 4.13 0 7.335.489 9.617 1.467 2.282.978 3.152 2.717 2.608 5.216-.326 1.63-1.086 2.608-2.282 2.934-1.195.326-2.662.38-4.401.163-1.63-.326-3.477-.489-5.542-.489-5.433 0-10.269 1.141-14.507 3.423-4.238 2.282-7.552 5.433-9.943 9.454-2.39 3.912-3.586 8.422-3.586 13.529v49.552c0 1.413-.434 2.608-1.304 3.586-.869.869-2.064 1.304-3.586 1.304zm100.806.978c-8.694 0-16.518-1.956-23.472-5.868-6.846-4.021-12.28-9.454-16.3-16.3-3.912-6.955-5.868-14.724-5.868-23.309 0-8.693 1.956-16.463 5.868-23.309 4.02-6.955 9.454-12.388 16.3-16.3 6.954-4.021 14.778-6.031 23.472-6.031 8.693 0 16.463 2.01 23.309 6.031 6.846 3.912 12.225 9.345 16.137 16.3 4.02 6.846 6.031 14.616 6.031 23.309v39.609c0 1.413-.435 2.608-1.304 3.586-.87.869-2.065 1.304-3.586 1.304-1.413 0-2.608-.435-3.586-1.304-.87-.978-1.304-2.173-1.304-3.586v-12.714c-3.586 5.651-8.476 10.16-14.67 13.529-6.194 3.369-13.203 5.053-21.027 5.053zm0-9.128c6.846 0 12.931-1.576 18.256-4.727 5.433-3.26 9.671-7.607 12.714-13.04 3.151-5.542 4.727-11.736 4.727-18.582 0-6.955-1.576-13.149-4.727-18.582-3.043-5.542-7.281-9.889-12.714-13.04-5.325-3.26-11.41-4.89-18.256-4.89-6.738 0-12.823 1.63-18.256 4.89-5.434 3.151-9.726 7.498-12.877 13.04-3.152 5.433-4.727 11.627-4.727 18.582 0 6.846 1.575 13.04 4.727 18.582 3.151 5.433 7.443 9.78 12.877 13.04 5.433 3.151 11.518 4.727 18.256 4.727zM82.56 384c-1.413 0-2.608-.435-3.586-1.304-.87-.978-1.304-2.173-1.304-3.586v-79.381c0-1.521.435-2.717 1.304-3.586.978-.869 2.173-1.304 3.586-1.304 1.521 0 2.717.435 3.586 1.304.87.869 1.304 2.065 1.304 3.586v8.476c3.586-4.455 8.041-7.987 13.366-10.595 5.433-2.608 11.301-3.912 17.604-3.912 7.824 0 14.833 1.63 21.027 4.89 6.303 3.151 11.247 7.824 14.833 14.018 3.586 6.085 5.379 13.638 5.379 22.657v43.847c0 1.413-.489 2.608-1.467 3.586-.869.869-2.01 1.304-3.423 1.304-1.413 0-2.608-.435-3.586-1.304-.869-.978-1.304-2.173-1.304-3.586v-43.847c0-7.172-1.413-13.094-4.238-17.767-2.717-4.673-6.466-8.15-11.247-10.432-4.673-2.391-9.997-3.586-15.974-3.586-5.868 0-11.138 1.141-15.811 3.423-4.673 2.173-8.367 5.216-11.084 9.128-2.717 3.912-4.075 8.313-4.075 13.203v49.878c0 1.413-.435 2.608-1.304 3.586-.87.869-2.065 1.304-3.586 1.304zm145.535.978c-8.694 0-16.518-1.956-23.472-5.868-6.846-4.021-12.28-9.454-16.3-16.3-3.912-6.955-5.868-14.779-5.868-23.472 0-8.693 1.956-16.463 5.868-23.309 4.02-6.846 9.454-12.225 16.3-16.137 6.954-4.021 14.778-6.031 23.472-6.031 7.824 0 14.833 1.684 21.027 5.053 6.302 3.369 11.192 7.878 14.67 13.529v-50.856c0-1.521.434-2.717 1.304-3.586.978-.869 2.173-1.304 3.586-1.304 1.521 0 2.716.435 3.586 1.304.869.869 1.304 2.065 1.304 3.586v78.729c-.109 8.476-2.174 16.083-6.194 22.82-4.021 6.737-9.454 12.062-16.3 15.974-6.738 3.912-14.399 5.868-22.983 5.868zm0-9.128c6.846 0 12.931-1.576 18.256-4.727 5.433-3.26 9.671-7.607 12.714-13.04 3.151-5.542 4.727-11.79 4.727-18.745 0-6.955-1.576-13.149-4.727-18.582-3.043-5.433-7.281-9.726-12.714-12.877-5.325-3.26-11.41-4.89-18.256-4.89-6.738 0-12.823 1.63-18.256 4.89-5.434 3.151-9.726 7.444-12.877 12.877-3.152 5.433-4.727 11.627-4.727 18.582s1.575 13.203 4.727 18.745c3.151 5.433 7.443 9.78 12.877 13.04 5.433 3.151 11.518 4.727 18.256 4.727z" fill="#fff"/></svg>