<svg width="500" height="500" fill="none" xmlns="http://www.w3.org/2000/svg"><path fill="#fff" d="M0 0h500v500H0z"/><path d="M112.116 192.978c-8.476 0-16.083-2.01-22.82-6.031-6.629-4.021-11.899-9.454-15.811-16.3-3.803-6.846-5.705-14.561-5.705-23.146 0-8.693 1.793-16.463 5.379-23.309 3.586-6.846 8.53-12.225 14.833-16.137 6.303-4.021 13.529-6.031 21.679-6.031 6.955 0 13.312 1.358 19.071 4.075 5.759 2.608 10.758 6.629 14.996 12.062.869 1.087 1.195 2.228.978 3.423-.217 1.195-.924 2.173-2.119 2.934-.978.761-2.065 1.087-3.26.978-1.195-.217-2.228-.869-3.097-1.956-6.955-8.259-15.811-12.388-26.569-12.388-6.411 0-12.062 1.576-16.952 4.727-4.781 3.151-8.53 7.444-11.247 12.877-2.608 5.433-3.912 11.682-3.912 18.745 0 6.846 1.467 13.04 4.401 18.582 2.934 5.433 6.955 9.78 12.062 13.04 5.216 3.151 11.247 4.727 18.093 4.727 4.455 0 8.639-.652 12.551-1.956 4.021-1.304 7.498-3.314 10.432-6.031.978-.869 2.065-1.358 3.26-1.467 1.195-.109 2.228.272 3.097 1.141 1.087.978 1.63 2.119 1.63 3.423.109 1.195-.326 2.228-1.304 3.097-7.933 7.281-17.821 10.921-29.666 10.921zm62.066-.978c-1.413 0-2.608-.435-3.586-1.304-.869-.978-1.304-2.173-1.304-3.586v-79.381c0-1.521.435-2.717 1.304-3.586.978-.869 2.173-1.304 3.586-1.304 1.521 0 2.717.435 3.586 1.304.869.869 1.304 2.065 1.304 3.586v8.476c3.586-4.455 8.041-7.987 13.366-10.595 5.433-2.608 11.301-3.912 17.604-3.912 7.824 0 14.833 1.63 21.027 4.89 6.303 3.151 11.247 7.824 14.833 14.018 3.586 6.085 5.379 13.638 5.379 22.657v43.847c0 1.413-.489 2.608-1.467 3.586-.869.869-2.01 1.304-3.423 1.304-1.413 0-2.608-.435-3.586-1.304-.869-.978-1.304-2.173-1.304-3.586v-43.847c0-7.172-1.413-13.094-4.238-17.767-2.717-4.673-6.466-8.15-11.247-10.432-4.673-2.391-9.997-3.586-15.974-3.586-5.868 0-11.138 1.141-15.811 3.423-4.673 2.173-8.367 5.216-11.084 9.128-2.717 3.912-4.075 8.313-4.075 13.203v49.878c0 1.413-.435 2.608-1.304 3.586-.869.869-2.065 1.304-3.586 1.304zm0-39.12c-1.413 0-2.608-.435-3.586-1.304-.869-.978-1.304-2.173-1.304-3.586V69.587c0-1.521.435-2.717 1.304-3.586.978-.87 2.173-1.304 3.586-1.304 1.521 0 2.717.435 3.586 1.304.869.87 1.304 2.065 1.304 3.586v78.403c0 1.413-.435 2.608-1.304 3.586-.869.869-2.065 1.304-3.586 1.304zm145.535 40.098c-8.693 0-16.517-1.956-23.472-5.868-6.846-4.021-12.279-9.454-16.3-16.3-3.912-6.955-5.868-14.724-5.868-23.309 0-8.693 1.956-16.463 5.868-23.309 4.021-6.955 9.454-12.388 16.3-16.3 6.955-4.021 14.779-6.031 23.472-6.031 8.693 0 16.463 2.01 23.309 6.031 6.846 3.912 12.225 9.345 16.137 16.3 4.021 6.846 6.031 14.616 6.031 23.309v39.609c0 1.413-.435 2.608-1.304 3.586-.869.869-2.065 1.304-3.586 1.304-1.413 0-2.608-.435-3.586-1.304-.869-.978-1.304-2.173-1.304-3.586v-12.714c-3.586 5.651-8.476 10.16-14.67 13.529-6.194 3.369-13.203 5.053-21.027 5.053zm0-9.128c6.846 0 12.931-1.576 18.256-4.727 5.433-3.26 9.671-7.607 12.714-13.04 3.151-5.542 4.727-11.736 4.727-18.582 0-6.955-1.576-13.149-4.727-18.582-3.043-5.542-7.281-9.889-12.714-13.04-5.325-3.26-11.41-4.89-18.256-4.89-6.737 0-12.823 1.63-18.256 4.89-5.433 3.151-9.726 7.498-12.877 13.04-3.151 5.433-4.727 11.627-4.727 18.582 0 6.846 1.576 13.04 4.727 18.582 3.151 5.433 7.444 9.78 12.877 13.04 5.433 3.151 11.519 4.727 18.256 4.727zM426.109 192c-5.977-.109-11.302-1.467-15.974-4.075-4.673-2.717-8.313-6.411-10.921-11.084-2.608-4.781-3.912-10.16-3.912-16.137v-45.803h-12.714c-1.304 0-2.391-.38-3.26-1.141-.761-.869-1.141-1.956-1.141-3.26 0-1.304.38-2.336 1.141-3.097.869-.869 1.956-1.304 3.26-1.304h12.714V79.53c0-1.521.434-2.717 1.304-3.586.978-.978 2.173-1.467 3.586-1.467 1.521 0 2.716.489 3.586 1.467.978.87 1.467 2.065 1.467 3.586v26.569h21.516c1.304 0 2.336.435 3.097 1.304.869.761 1.304 1.793 1.304 3.097s-.435 2.391-1.304 3.26c-.761.761-1.793 1.141-3.097 1.141h-21.516v45.803c0 6.303 1.956 11.464 5.868 15.485 3.912 3.912 8.965 5.868 15.159 5.868h3.586c1.521 0 2.716.489 3.586 1.467.978.869 1.467 2.065 1.467 3.586 0 1.413-.489 2.608-1.467 3.586-.87.869-2.065 1.304-3.586 1.304h-3.749zM118.147 356.978c-8.476 0-16.137-1.956-22.983-5.868-6.846-3.912-12.28-9.237-16.3-15.974-3.912-6.737-5.977-14.344-6.194-22.82v-78.729c0-1.521.435-2.717 1.304-3.586.978-.869 2.173-1.304 3.586-1.304 1.521 0 2.717.435 3.586 1.304.87.869 1.304 2.065 1.304 3.586v50.856c3.477-5.651 8.313-10.16 14.507-13.529 6.303-3.369 13.366-5.053 21.19-5.053 8.693 0 16.463 2.01 23.309 6.031 6.955 3.912 12.388 9.291 16.3 16.137 4.021 6.846 6.031 14.616 6.031 23.309 0 8.693-2.01 16.517-6.031 23.472-3.912 6.846-9.345 12.279-16.3 16.3-6.846 3.912-14.616 5.868-23.309 5.868zm0-9.128c6.846 0 12.931-1.576 18.256-4.727 5.433-3.26 9.726-7.607 12.877-13.04 3.151-5.542 4.727-11.79 4.727-18.745 0-6.955-1.576-13.149-4.727-18.582-3.151-5.433-7.444-9.726-12.877-12.877-5.325-3.26-11.41-4.89-18.256-4.89-6.737 0-12.823 1.63-18.256 4.89-5.433 3.151-9.726 7.444-12.877 12.877-3.043 5.433-4.564 11.627-4.564 18.582s1.521 13.203 4.564 18.745c3.151 5.433 7.444 9.78 12.877 13.04 5.433 3.151 11.519 4.727 18.256 4.727zm110.837 9.128c-8.693 0-16.517-1.956-23.472-5.868-6.846-4.021-12.279-9.454-16.3-16.3-3.912-6.955-5.868-14.724-5.868-23.309 0-8.693 1.956-16.463 5.868-23.309 4.021-6.955 9.454-12.388 16.3-16.3 6.955-4.021 14.779-6.031 23.472-6.031 8.694 0 16.463 2.01 23.309 6.031 6.846 3.912 12.225 9.345 16.137 16.3 4.021 6.846 6.031 14.616 6.031 23.309 0 8.585-2.01 16.354-6.031 23.309-3.912 6.846-9.291 12.279-16.137 16.3-6.846 3.912-14.615 5.868-23.309 5.868zm0-9.128c6.846 0 12.932-1.576 18.256-4.727 5.434-3.26 9.672-7.607 12.714-13.04 3.152-5.542 4.727-11.736 4.727-18.582 0-6.955-1.575-13.149-4.727-18.582-3.042-5.542-7.28-9.889-12.714-13.04-5.324-3.26-11.41-4.89-18.256-4.89-6.737 0-12.822 1.63-18.256 4.89-5.433 3.151-9.725 7.498-12.877 13.04-3.151 5.433-4.727 11.627-4.727 18.582 0 6.846 1.576 13.04 4.727 18.582 3.152 5.433 7.444 9.78 12.877 13.04 5.434 3.151 11.519 4.727 18.256 4.727zM335.376 356c-5.976-.109-11.301-1.467-15.974-4.075-4.672-2.717-8.313-6.411-10.921-11.084-2.608-4.781-3.912-10.16-3.912-16.137v-45.803h-12.714c-1.304 0-2.39-.38-3.26-1.141-.76-.869-1.141-1.956-1.141-3.26 0-1.304.381-2.336 1.141-3.097.87-.869 1.956-1.304 3.26-1.304h12.714V243.53c0-1.521.435-2.717 1.304-3.586.978-.978 2.174-1.467 3.586-1.467 1.522 0 2.717.489 3.586 1.467.978.869 1.467 2.065 1.467 3.586v26.569h21.516c1.304 0 2.337.435 3.097 1.304.87.761 1.304 1.793 1.304 3.097s-.434 2.391-1.304 3.26c-.76.761-1.793 1.141-3.097 1.141h-21.516v45.803c0 6.303 1.956 11.464 5.868 15.485 3.912 3.912 8.965 5.868 15.159 5.868h3.586c1.522 0 2.717.489 3.586 1.467.978.869 1.467 2.065 1.467 3.586 0 1.413-.489 2.608-1.467 3.586-.869.869-2.064 1.304-3.586 1.304h-3.749z" fill="#000"/></svg>