<svg width="500" height="500" fill="none" xmlns="http://www.w3.org/2000/svg"><g clip-path="url(#clip0)"><path fill="#fff" d="M0 0h500v500H0z"/><path d="M208 326C185.813 87.907-33.443 65.16-33.443 65.16M277 218c22.187 238.093 241.443 260.84 241.443 260.84" stroke="#000" stroke-width="9" stroke-linecap="round"/><path d="M149.893 96.197c0 25.237-20.459 45.696-45.696 45.696-25.238 0-45.697-20.459-45.697-45.696 0-24.17 18.764-43.957 42.52-45.588 3.943 10.85 8.986 18.108 14.614 23.081 6.164 5.447 12.691 7.846 18.262 9.447 1.275.367 2.521.697 3.679 1.004l.282.074c1.257.333 2.398.639 3.471.96 2.174.652 3.774 1.287 4.988 2.064 1.129.723 1.929 1.57 2.5 2.764.603 1.26 1.077 3.174 1.077 6.194zm324 326c0 25.237-20.459 45.696-45.696 45.696-25.238 0-45.697-20.459-45.697-45.696 0-24.17 18.764-43.957 42.52-45.588 3.943 10.85 8.986 18.108 14.614 23.081 6.164 5.447 12.691 7.846 18.262 9.447 1.275.367 2.521.697 3.679 1.004l.282.074c1.257.333 2.398.639 3.471.96 2.174.652 3.774 1.287 4.988 2.064 1.129.723 1.929 1.571 2.5 2.764.603 1.26 1.077 3.174 1.077 6.194z" fill="#FDD706" stroke="#000" stroke-width="9"/><path d="M277.207 218.628l-68.831 107.857" stroke="#fff" stroke-width="9" stroke-linecap="round" stroke-linejoin="round"/><circle cx="249.882" cy="249.882" r="123.382" fill="#FDD706" stroke="#000" stroke-width="9"/><path d="M373.263 250.882c0 68.142-55.239 123.381-123.381 123.381S126.5 319.024 126.5 250.882c0-67.059 53.498-121.623 120.143-123.34 9.98 29.52 22.903 48.337 36.989 60.784 14.577 12.881 30.061 18.632 43.835 22.591 3.177.914 6.284 1.737 9.246 2.522l.706.187c3.193.846 6.204 1.651 9.058 2.507 5.737 1.718 10.549 3.559 14.462 6.063 3.829 2.45 6.816 5.549 8.899 9.902 2.114 4.419 3.425 10.401 3.425 18.784zm-246.37-148.685c0 25.237-20.459 45.696-45.696 45.696-25.238 0-45.697-20.459-45.697-45.696 0-24.17 18.764-43.957 42.52-45.588 3.943 10.85 8.986 18.108 14.614 23.081 6.164 5.447 12.691 7.846 18.262 9.447 1.275.367 2.521.697 3.679 1.004l.282.074c1.257.333 2.398.639 3.471.96 2.174.652 3.774 1.287 4.988 2.064 1.129.723 1.929 1.57 2.5 2.764.603 1.26 1.077 3.174 1.077 6.194zm323 326c0 25.237-20.459 45.696-45.696 45.696-25.238 0-45.697-20.459-45.697-45.696 0-24.17 18.764-43.957 42.52-45.588 3.943 10.85 8.986 18.108 14.614 23.081 6.164 5.447 12.691 7.846 18.262 9.447 1.275.367 2.521.697 3.679 1.004l.282.074c1.257.333 2.398.639 3.471.96 2.174.652 3.774 1.287 4.988 2.064 1.129.723 1.929 1.571 2.5 2.764.603 1.26 1.077 3.174 1.077 6.194z" fill="#fff" stroke="#000" stroke-width="9"/><path d="M81.895 123.22c-2.567 0-4.95-.385-7.15-1.155-2.163-.807-3.85-1.815-5.06-3.025-.55-.587-.788-1.247-.715-1.98.11-.77.477-1.393 1.1-1.87.733-.587 1.448-.825 2.145-.715a2.874 2.874 0 011.87.935c.623.697 1.613 1.357 2.97 1.98 1.393.587 2.933.88 4.62.88 2.127 0 3.74-.348 4.84-1.045 1.137-.697 1.723-1.595 1.76-2.695.037-1.1-.495-2.053-1.595-2.86-1.063-.807-3.025-1.467-5.885-1.98-3.703-.733-6.398-1.833-8.085-3.3-1.65-1.467-2.475-3.263-2.475-5.39 0-1.87.55-3.41 1.65-4.62 1.1-1.247 2.512-2.163 4.235-2.75a15.726 15.726 0 015.39-.935c2.42 0 4.565.385 6.435 1.155 1.87.77 3.355 1.833 4.455 3.19.513.587.752 1.21.715 1.87-.037.623-.348 1.155-.935 1.595-.587.403-1.283.532-2.09.385-.807-.147-1.485-.477-2.035-.99-.917-.88-1.907-1.485-2.97-1.815-1.063-.33-2.292-.495-3.685-.495-1.613 0-2.988.275-4.125.825-1.1.55-1.65 1.357-1.65 2.42 0 .66.165 1.265.495 1.815.367.513 1.063.99 2.09 1.43 1.027.403 2.53.807 4.51 1.21 4.143.807 7.003 1.962 8.58 3.465 1.613 1.467 2.42 3.282 2.42 5.445 0 1.687-.458 3.208-1.375 4.565-.88 1.357-2.2 2.438-3.96 3.245-1.723.807-3.887 1.21-6.49 1.21zm323 325c-2.567 0-4.95-.385-7.15-1.155-2.163-.807-3.85-1.815-5.06-3.025-.55-.587-.788-1.247-.715-1.98.11-.77.477-1.393 1.1-1.87.733-.587 1.448-.825 2.145-.715a2.874 2.874 0 011.87.935c.623.697 1.613 1.357 2.97 1.98 1.393.587 2.933.88 4.62.88 2.127 0 3.74-.348 4.84-1.045 1.137-.697 1.723-1.595 1.76-2.695.037-1.1-.495-2.053-1.595-2.86-1.063-.807-3.025-1.467-5.885-1.98-3.703-.733-6.398-1.833-8.085-3.3-1.65-1.467-2.475-3.263-2.475-5.39 0-1.87.55-3.41 1.65-4.62 1.1-1.247 2.512-2.163 4.235-2.75a15.731 15.731 0 015.39-.935c2.42 0 4.565.385 6.435 1.155 1.87.77 3.355 1.833 4.455 3.19.513.587.752 1.21.715 1.87-.037.623-.348 1.155-.935 1.595-.587.403-1.283.532-2.09.385-.807-.147-1.485-.477-2.035-.99-.917-.88-1.907-1.485-2.97-1.815-1.063-.33-2.292-.495-3.685-.495-1.613 0-2.988.275-4.125.825-1.1.55-1.65 1.357-1.65 2.42 0 .66.165 1.265.495 1.815.367.513 1.063.99 2.09 1.43 1.027.403 2.53.807 4.51 1.21 4.143.807 7.003 1.962 8.58 3.465 1.613 1.467 2.42 3.282 2.42 5.445 0 1.687-.458 3.208-1.375 4.565-.88 1.357-2.2 2.438-3.96 3.245-1.723.807-3.887 1.21-6.49 1.21z" fill="#000"/><circle cx="214.734" cy="255.734" r="50.234" stroke="#000" stroke-width="9"/><path d="M332 249l-36.548-1.4M311 306l-27.08-11.83M262 338l-6.891-14.199" stroke="#000" stroke-width="9" stroke-linecap="round"/><circle cx="205.22" cy="261.22" r="20.22" fill="#000"/></g><defs><clipPath id="clip0"><path fill="#fff" d="M0 0h500v500H0z"/></clipPath></defs></svg>