<svg width="500" height="500" fill="none" xmlns="http://www.w3.org/2000/svg"><path fill="#fff" d="M0 0h500v500H0z"/><path d="M95.6 220c-6.194 0-11.301-2.499-15.322-7.498-3.912-4.999-5.868-11.464-5.868-19.397V97.587c0-1.521.435-2.717 1.304-3.586.978-.87 2.173-1.304 3.586-1.304 1.521 0 2.717.435 3.586 1.304.87.87 1.304 2.065 1.304 3.586v95.518c0 4.999 1.032 9.128 3.097 12.388 2.173 3.151 4.944 4.727 8.313 4.727h4.075c2.717 0 4.075 1.63 4.075 4.89 0 1.413-.435 2.608-1.304 3.586-.869.869-2.065 1.304-3.586 1.304H95.6zm61.819.978c-8.693 0-16.517-1.956-23.472-5.868-6.846-4.021-12.279-9.454-16.3-16.3-3.912-6.955-5.868-14.724-5.868-23.309 0-8.693 1.956-16.463 5.868-23.309 4.021-6.955 9.454-12.388 16.3-16.3 6.955-4.021 14.779-6.031 23.472-6.031 8.693 0 16.463 2.01 23.309 6.031 6.846 3.912 12.225 9.345 16.137 16.3 4.021 6.846 6.031 14.616 6.031 23.309v39.609c0 1.413-.435 2.608-1.304 3.586-.869.869-2.065 1.304-3.586 1.304-1.413 0-2.608-.435-3.586-1.304-.869-.978-1.304-2.173-1.304-3.586v-12.714c-3.586 5.651-8.476 10.16-14.67 13.529-6.194 3.369-13.203 5.053-21.027 5.053zm0-9.128c6.846 0 12.931-1.576 18.256-4.727 5.433-3.26 9.671-7.607 12.714-13.04 3.151-5.542 4.727-11.736 4.727-18.582 0-6.955-1.576-13.149-4.727-18.582-3.043-5.542-7.281-9.889-12.714-13.04-5.325-3.26-11.41-4.89-18.256-4.89-6.737 0-12.823 1.63-18.256 4.89-5.433 3.151-9.726 7.498-12.877 13.04-3.151 5.433-4.727 11.627-4.727 18.582 0 6.846 1.576 13.04 4.727 18.582 3.151 5.433 7.444 9.78 12.877 13.04 5.433 3.151 11.519 4.727 18.256 4.727zm74.77 8.15c-1.413 0-2.608-.435-3.586-1.304-.869-.978-1.304-2.173-1.304-3.586v-79.381c0-1.521.435-2.717 1.304-3.586.978-.869 2.173-1.304 3.586-1.304 1.521 0 2.717.435 3.586 1.304.869.869 1.304 2.065 1.304 3.586v8.476c3.586-4.455 8.041-7.987 13.366-10.595 5.433-2.608 11.301-3.912 17.604-3.912 7.824 0 14.833 1.63 21.027 4.89 6.303 3.151 11.247 7.824 14.833 14.018 3.586 6.085 5.379 13.638 5.379 22.657v43.847c0 1.413-.489 2.608-1.467 3.586-.869.869-2.01 1.304-3.423 1.304-1.413 0-2.608-.435-3.586-1.304-.869-.978-1.304-2.173-1.304-3.586v-43.847c0-7.172-1.413-13.094-4.238-17.767-2.717-4.673-6.466-8.15-11.247-10.432-4.673-2.391-9.997-3.586-15.974-3.586-5.868 0-11.138 1.141-15.811 3.423-4.673 2.173-8.367 5.216-11.084 9.128-2.717 3.912-4.075 8.313-4.075 13.203v49.878c0 1.413-.435 2.608-1.304 3.586-.869.869-2.065 1.304-3.586 1.304zm145.535.978c-8.694 0-16.518-1.956-23.472-5.868-6.846-4.021-12.28-9.454-16.3-16.3-3.912-6.955-5.868-14.779-5.868-23.472 0-8.693 1.956-16.463 5.868-23.309 4.02-6.846 9.454-12.225 16.3-16.137 6.954-4.021 14.778-6.031 23.472-6.031 7.824 0 14.833 1.684 21.027 5.053 6.302 3.369 11.192 7.878 14.67 13.529V97.587c0-1.521.434-2.717 1.304-3.586.978-.87 2.173-1.304 3.586-1.304 1.521 0 2.716.435 3.586 1.304.869.87 1.304 2.065 1.304 3.586v78.729c-.109 8.476-2.174 16.083-6.194 22.82-4.021 6.737-9.454 12.062-16.3 15.974-6.738 3.912-14.399 5.868-22.983 5.868zm0-9.128c6.846 0 12.931-1.576 18.256-4.727 5.433-3.26 9.671-7.607 12.714-13.04 3.151-5.542 4.727-11.79 4.727-18.745 0-6.955-1.576-13.149-4.727-18.582-3.043-5.433-7.281-9.726-12.714-12.877-5.325-3.26-11.41-4.89-18.256-4.89-6.738 0-12.823 1.63-18.256 4.89-5.434 3.151-9.726 7.444-12.877 12.877-3.152 5.433-4.727 11.627-4.727 18.582s1.575 13.203 4.727 18.745c3.151 5.433 7.443 9.78 12.877 13.04 5.433 3.151 11.518 4.727 18.256 4.727zM85.82 384c-1.413 0-2.608-.435-3.586-1.304-.87-.978-1.304-2.173-1.304-3.586v-79.381c0-1.521.435-2.717 1.304-3.586.978-.869 2.173-1.304 3.586-1.304 1.521 0 2.717.435 3.586 1.304.87.869 1.304 2.065 1.304 3.586v79.381c0 1.413-.435 2.608-1.304 3.586-.87.869-2.065 1.304-3.586 1.304zm-.163-107.906c-2.065 0-3.858-.706-5.379-2.119-1.413-1.521-2.119-3.369-2.119-5.542 0-2.499.76-4.347 2.282-5.542 1.63-1.304 3.423-1.956 5.379-1.956 1.847 0 3.532.652 5.053 1.956 1.63 1.195 2.445 3.043 2.445 5.542 0 2.173-.76 4.021-2.282 5.542-1.413 1.413-3.206 2.119-5.379 2.119zM128.245 384c-1.413 0-2.608-.435-3.586-1.304-.87-.978-1.304-2.173-1.304-3.586v-79.381c0-1.521.434-2.717 1.304-3.586.978-.869 2.173-1.304 3.586-1.304 1.521 0 2.716.435 3.586 1.304.869.869 1.304 2.065 1.304 3.586v8.476c3.586-4.455 8.041-7.987 13.366-10.595 5.433-2.608 11.301-3.912 17.604-3.912 7.824 0 14.833 1.63 21.027 4.89 6.302 3.151 11.247 7.824 14.833 14.018 3.586 6.085 5.379 13.638 5.379 22.657v43.847c0 1.413-.489 2.608-1.467 3.586-.87.869-2.011 1.304-3.423 1.304-1.413 0-2.608-.435-3.586-1.304-.87-.978-1.304-2.173-1.304-3.586v-43.847c0-7.172-1.413-13.094-4.238-17.767-2.717-4.673-6.466-8.15-11.247-10.432-4.673-2.391-9.998-3.586-15.974-3.586-5.868 0-11.139 1.141-15.811 3.423-4.673 2.173-8.368 5.216-11.084 9.128-2.717 3.912-4.075 8.313-4.075 13.203v49.878c0 1.413-.435 2.608-1.304 3.586-.87.869-2.065 1.304-3.586 1.304zm145.534.978c-8.91 0-16.789-1.956-23.635-5.868-6.846-3.912-12.225-9.291-16.137-16.137-3.912-6.846-5.868-14.67-5.868-23.472 0-8.911 2.011-16.789 6.031-23.635 4.021-6.846 9.454-12.225 16.3-16.137 6.955-3.912 14.725-5.868 23.309-5.868 8.911 0 16.735 1.956 23.472 5.868 6.846 3.912 12.225 9.291 16.137 16.137 3.912 6.846 5.868 14.724 5.868 23.635v31.948c0 8.802-1.956 16.735-5.868 23.798-3.912 7.063-9.236 12.605-15.974 16.626-6.737 4.129-14.398 6.194-22.983 6.194-9.019 0-16.734-1.684-23.146-5.053-6.302-3.369-11.518-7.661-15.648-12.877-.869-1.087-1.304-2.228-1.304-3.423 0-1.195.544-2.173 1.63-2.934 1.087-.869 2.337-1.195 3.749-.978 1.522.217 2.663.924 3.423 2.119 3.369 4.021 7.661 7.335 12.877 9.943 5.216 2.717 11.356 4.075 18.419 4.075 6.738 0 12.714-1.63 17.93-4.89 5.325-3.26 9.509-7.77 12.551-13.529 3.043-5.651 4.564-12.008 4.564-19.071v-7.172c-3.151 6.303-7.824 11.356-14.018 15.159-6.194 3.695-13.42 5.542-21.679 5.542zm0-9.128c6.955 0 13.095-1.521 18.419-4.564 5.434-3.151 9.672-7.444 12.714-12.877 3.043-5.542 4.564-11.845 4.564-18.908 0-7.172-1.521-13.475-4.564-18.908-3.042-5.542-7.28-9.834-12.714-12.877-5.324-3.151-11.464-4.727-18.419-4.727-6.954 0-13.148 1.576-18.582 4.727-5.433 3.043-9.671 7.335-12.714 12.877-3.042 5.433-4.564 11.736-4.564 18.908 0 7.063 1.522 13.366 4.564 18.908 3.043 5.433 7.281 9.726 12.714 12.877 5.434 3.043 11.628 4.564 18.582 4.564z" fill="#000"/><path d="M146 158.605V190c30.453-13.166 16.562-42.935 0-31.395zm0 0V190c-30.453-13.166-16.562-42.935 0-31.395zm220 0V190c30.453-13.166 16.562-42.935 0-31.395zm0 0V190c-30.453-13.166-16.562-42.935 0-31.395z" fill="#FDD706"/><path d="M385.5 318c-3.5 46-46.5 39-46.5 39m35.5-51s6 17 28 15" stroke="#FDD706" stroke-width="9" stroke-linecap="round"/><path d="M115 98l11.634 21.416M158 89v20.353M199.408 98L186 119.547M336 101l13.931 17.643M377 89v20.154M407.287 116L405 119.293" stroke="#000" stroke-width="9" stroke-linecap="round"/></svg>