<svg width="500" height="500" fill="none" xmlns="http://www.w3.org/2000/svg"><path fill="#fff" d="M0 0h500v500H0z"/><path d="M95.6 220c-6.194 0-11.301-2.499-15.322-7.498-3.912-4.999-5.868-11.464-5.868-19.397V97.587c0-1.521.435-2.717 1.304-3.586.978-.87 2.173-1.304 3.586-1.304 1.521 0 2.717.435 3.586 1.304.87.87 1.304 2.065 1.304 3.586v95.518c0 4.999 1.032 9.128 3.097 12.388 2.173 3.151 4.944 4.727 8.313 4.727h4.075c2.717 0 4.075 1.63 4.075 4.89 0 1.413-.435 2.608-1.304 3.586-.869.869-2.065 1.304-3.586 1.304H95.6zm61.819.978c-8.693 0-16.517-1.956-23.472-5.868-6.846-4.021-12.279-9.454-16.3-16.3-3.912-6.955-5.868-14.724-5.868-23.309 0-8.693 1.956-16.463 5.868-23.309 4.021-6.955 9.454-12.388 16.3-16.3 6.955-4.021 14.779-6.031 23.472-6.031 8.693 0 16.463 2.01 23.309 6.031 6.846 3.912 12.225 9.345 16.137 16.3 4.021 6.846 6.031 14.616 6.031 23.309 0 8.585-2.01 16.354-6.031 23.309-3.912 6.846-9.291 12.279-16.137 16.3-6.846 3.912-14.616 5.868-23.309 5.868zm0-9.128c6.846 0 12.931-1.576 18.256-4.727 5.433-3.26 9.671-7.607 12.714-13.04 3.151-5.542 4.727-11.736 4.727-18.582 0-6.955-1.576-13.149-4.727-18.582-3.043-5.542-7.281-9.889-12.714-13.04-5.325-3.26-11.41-4.89-18.256-4.89-6.737 0-12.823 1.63-18.256 4.89-5.433 3.151-9.726 7.498-12.877 13.04-3.151 5.433-4.727 11.627-4.727 18.582 0 6.846 1.576 13.04 4.727 18.582 3.151 5.433 7.444 9.78 12.877 13.04 5.433 3.151 11.519 4.727 18.256 4.727zm110.63 9.128c-8.911 0-16.789-1.956-23.635-5.868-6.846-3.912-12.225-9.291-16.137-16.137-3.912-6.846-5.868-14.67-5.868-23.472 0-8.911 2.01-16.789 6.031-23.635s9.454-12.225 16.3-16.137c6.955-3.912 14.724-5.868 23.309-5.868 8.911 0 16.735 1.956 23.472 5.868 6.846 3.912 12.225 9.291 16.137 16.137 3.912 6.846 5.868 14.724 5.868 23.635v31.948c0 8.802-1.956 16.735-5.868 23.798-3.912 7.063-9.237 12.605-15.974 16.626-6.737 4.129-14.398 6.194-22.983 6.194-9.019 0-16.735-1.684-23.146-5.053-6.303-3.369-11.519-7.661-15.648-12.877-.869-1.087-1.304-2.228-1.304-3.423 0-1.195.543-2.173 1.63-2.934 1.087-.869 2.336-1.195 3.749-.978 1.521.217 2.662.924 3.423 2.119 3.369 4.021 7.661 7.335 12.877 9.943 5.216 2.717 11.356 4.075 18.419 4.075 6.737 0 12.714-1.63 17.93-4.89 5.325-3.26 9.508-7.77 12.551-13.529 3.043-5.651 4.564-12.008 4.564-19.071v-7.172c-3.151 6.303-7.824 11.356-14.018 15.159-6.194 3.695-13.42 5.542-21.679 5.542zm0-9.128c6.955 0 13.094-1.521 18.419-4.564 5.433-3.151 9.671-7.444 12.714-12.877 3.043-5.542 4.564-11.845 4.564-18.908 0-7.172-1.521-13.475-4.564-18.908-3.043-5.542-7.281-9.834-12.714-12.877-5.325-3.151-11.464-4.727-18.419-4.727s-13.149 1.576-18.582 4.727c-5.433 3.043-9.671 7.335-12.714 12.877-3.043 5.433-4.564 11.736-4.564 18.908 0 7.063 1.521 13.366 4.564 18.908 3.043 5.433 7.281 9.726 12.714 12.877 5.433 3.043 11.627 4.564 18.582 4.564zm110.63 9.128c-8.694 0-16.518-1.956-23.472-5.868-6.846-4.021-12.28-9.454-16.3-16.3-3.912-6.955-5.868-14.724-5.868-23.309 0-8.693 1.956-16.463 5.868-23.309 4.02-6.955 9.454-12.388 16.3-16.3 6.954-4.021 14.778-6.031 23.472-6.031 8.693 0 16.463 2.01 23.309 6.031 6.846 3.912 12.225 9.345 16.137 16.3 4.02 6.846 6.031 14.616 6.031 23.309 0 8.585-2.011 16.354-6.031 23.309-3.912 6.846-9.291 12.279-16.137 16.3-6.846 3.912-14.616 5.868-23.309 5.868zm0-9.128c6.846 0 12.931-1.576 18.256-4.727 5.433-3.26 9.671-7.607 12.714-13.04 3.151-5.542 4.727-11.736 4.727-18.582 0-6.955-1.576-13.149-4.727-18.582-3.043-5.542-7.281-9.889-12.714-13.04-5.325-3.26-11.41-4.89-18.256-4.89-6.738 0-12.823 1.63-18.256 4.89-5.434 3.151-9.726 7.498-12.877 13.04-3.152 5.433-4.727 11.627-4.727 18.582 0 6.846 1.575 13.04 4.727 18.582 3.151 5.433 7.443 9.78 12.877 13.04 5.433 3.151 11.518 4.727 18.256 4.727z" fill="#000"/><path d="M206.843 100L193 123.746" stroke="#000" stroke-width="9" stroke-linecap="round"/><circle cx="165" cy="165" r="18" fill="#FDD706"/><circle cx="386" cy="165" r="18" fill="#FDD706"/><path d="M100 109.426l15.579 16.266M154.383 89v26.252M327.217 99L341 123.401m104-24.626l-26.659 26.917M382.537 89v26.252M84 370.913c95.093-84.266 177.476 43.781 339.417-26.833M84 371.324c95.093-84.265 136.255 113.236 298.197 42.622" stroke="#000" stroke-width="9" stroke-linecap="round"/><circle cx="425.5" cy="337.5" r="17.5" fill="#000"/><circle cx="425.5" cy="304.5" r="8.5" fill="#000"/><circle cx="449.5" cy="314.5" r="8.5" fill="#000"/><circle cx="458.5" cy="337.5" r="8.5" fill="#000"/><circle cx="401.546" cy="371.665" r="8.5" transform="rotate(17.524 401.546 371.665)" fill="#000"/><circle cx="421.546" cy="388.665" r="8.5" transform="rotate(17.524 421.546 388.665)" fill="#000"/><circle cx="422.546" cy="413.665" r="8.5" transform="rotate(17.524 422.546 413.665)" fill="#000"/><circle cx="391.5" cy="403.5" r="17.5" fill="#000"/></svg>