<svg width="500" height="500" fill="none" xmlns="http://www.w3.org/2000/svg"><path fill="#fff" d="M0 0h500v500H0z"/><path d="M224.472 372.736c0 5.377-4.359 9.736-9.736 9.736-5.377 0-9.736-4.359-9.736-9.736 0-5.377 4.359-9.736 9.736-9.736 5.377 0 9.736 4.359 9.736 9.736z" fill="#000"/><circle cx="373.499" cy="165.499" r="71.999" stroke="#FDD706" stroke-width="11"/><path d="M450.543 197.556L270.555 118 245 241.496l159.507 98.439 46.036-142.379z" fill="#fff"/><path d="M343.472 373.736c0 5.377-4.359 9.736-9.736 9.736-5.377 0-9.736-4.359-9.736-9.736 0-5.377 4.359-9.736 9.736-9.736 5.377 0 9.736 4.359 9.736 9.736z" fill="#000"/><path d="M360.642 347.148H188.869L126 187.973C601.366 87.907 360.642 347.148 360.642 347.148z" stroke="#000" stroke-width="11" stroke-linecap="round" stroke-linejoin="round"/><circle cx="374.177" cy="165.177" r="54.677" fill="#000" stroke="#fff" stroke-width="21"/><path d="M368.525 189c-.68 0-1.275-.255-1.785-.765a2.504 2.504 0 01-.765-1.836c0-.476.153-1.02.459-1.632l14.637-30.396h-15.504c-.748 0-1.377-.238-1.887-.714-.476-.51-.714-1.139-.714-1.887s.238-1.36.714-1.836c.51-.51 1.139-.765 1.887-.765h19.431c.714 0 1.326.255 1.836.765s.765 1.122.765 1.836c0 .238-.034.476-.102.714a8.598 8.598 0 01-.255.663l-16.32 34.425c-.544.952-1.343 1.428-2.397 1.428z" fill="#fff"/><path d="M37 237h65.055M72 278h42.091M112 319h13.647" stroke="#000" stroke-width="11" stroke-linecap="round" stroke-linejoin="round"/></svg>