<svg width="500" height="500" fill="none" xmlns="http://www.w3.org/2000/svg"><path fill="#000" d="M0 0h500v500H0z"/><path d="M25.547 225.308l181.569 202.368-37.774-318.147" stroke="#000" stroke-opacity=".55" stroke-width="9" stroke-linecap="round" stroke-linejoin="round"/><path d="M25.547 225.308l181.569 202.368-37.774-318.147M230 66l17.872 183.391m17.872 183.39l-17.872-183.39m0 0L367.327 67.936M247.872 249.39l200.097 109.975" stroke="#fff" stroke-width="9" stroke-linecap="round" stroke-linejoin="round"/><rect x="135.102" y="175.804" width="204.035" height="204.035" rx="50.5" transform="rotate(-8.296 135.102 175.804)" fill="#FDD706" stroke="#fff" stroke-width="9" stroke-linejoin="round"/><circle cx="298.038" cy="196.652" r="11.76" transform="rotate(54.922 298.038 196.652)" stroke="#000" stroke-width="9"/><circle cx="249.318" cy="262.361" r="39.123" transform="rotate(52.566 249.318 262.361)" stroke="#000" stroke-width="15"/><rect x="160.102" y="153.804" width="204.035" height="204.035" rx="50.5" transform="rotate(-8.296 160.102 153.804)" fill="#000" stroke="#fff" stroke-width="9" stroke-linejoin="round"/><circle cx="286.038" cy="228.652" r="16.26" transform="rotate(54.922 286.038 228.652)" fill="#fff"/><circle cx="323.038" cy="175.652" r="11.76" transform="rotate(54.922 323.038 175.652)" stroke="#fff" stroke-width="9"/><path d="M359 253l-22.478.286M337 214l-9.288 4.146M343 294l-15.975-12.287m-16.664 38.519l-7.766-23.85M190 228l22.478-.286M206 188l15.975 12.287m16.665-39.52l7.765 23.851m37.562-10.075l-1.259 9.309" stroke="#fff" stroke-width="9" stroke-linecap="round"/><circle cx="274.318" cy="240.361" r="42.123" transform="rotate(52.566 274.318 240.361)" stroke="#fff" stroke-width="9"/><path d="M140 144l3.096 25.522M70 223l59.116 69.112M326 80l-36.681 55.223M260 81l3.506 38.337M369 353l31.193 17.564M292 388l1.977 24.228" stroke="#fff" stroke-width="9" stroke-linecap="round" stroke-linejoin="round"/></svg>