<svg width="500" height="500" fill="none" xmlns="http://www.w3.org/2000/svg"><g clip-path="url(#clip0)"><path fill="#000" d="M0 0h500v500H0z"/><circle cx="374.604" cy="390.521" r="15.098" transform="rotate(-74.39 374.604 390.521)" fill="#fff"/><path d="M370 391l229.696 108.928" stroke="#fff" stroke-width="11"/><rect x="135.652" y="86.868" width="311.081" height="272.728" rx="5.5" transform="rotate(17 135.652 86.868)" fill="#000" stroke="#fff" stroke-width="11"/><path d="M136 278.791L213.959 187l12.574 123.226" stroke="#fff" stroke-width="11" stroke-linecap="round" stroke-linejoin="round"/><path d="M166 248l54.631 28.116M332.288 284L323 330.404" stroke="#fff" stroke-width="11" stroke-linecap="round"/><ellipse cx="292.501" cy="277.016" rx="35.501" ry="39.016" stroke="#fff" stroke-width="11"/><rect x="252.076" y="79.959" width="22" height="124.68" rx="11" transform="rotate(-4.602 252.076 79.959)" fill="#FDD706" stroke="#000" stroke-width="11"/><rect x="423.471" y="135.236" width="22" height="108.268" rx="11" transform="rotate(48.474 423.471 135.236)" fill="#FDD706" stroke="#000" stroke-width="11"/><rect x="454.563" y="294.825" width="22" height="72.587" rx="11" transform="rotate(102.536 454.563 294.825)" fill="#FDD706" stroke="#000" stroke-width="11"/></g><defs><clipPath id="clip0"><path fill="#fff" d="M0 0h500v500H0z"/></clipPath></defs></svg>