<svg width="500" height="500" fill="none" xmlns="http://www.w3.org/2000/svg"><g clip-path="url(#clip0)"><path fill="#000" d="M0 0h500v500H0z"/><circle cx="301.75" cy="175.75" r="80.25" stroke="#FDD706" stroke-width="9"/><path d="M385.254 219.397L250.02 102l-32.157 14.661-9.863 87.12 84.381 91.504 92.873-75.888z" fill="#000"/><path d="M107.988 220.978c-5.651 0-11.573-1.032-17.767-3.097-6.194-2.065-11.356-5.542-15.485-10.432-.87-1.087-1.25-2.228-1.141-3.423.217-1.304.924-2.391 2.119-3.26 1.087-.761 2.228-1.032 3.423-.815 1.304.217 2.336.815 3.097 1.793 3.151 3.695 6.955 6.303 11.41 7.824 4.564 1.413 9.508 2.119 14.833 2.119 9.128 0 15.594-1.63 19.397-4.89 3.803-3.26 5.705-7.063 5.705-11.41 0-8.585-8.313-14.072-24.939-16.463-10.867-1.521-18.908-4.455-24.124-8.802-5.216-4.347-7.824-9.4-7.824-15.159 0-8.15 2.934-14.344 8.802-18.582 5.977-4.347 13.529-6.52 22.657-6.52 7.389 0 13.638 1.358 18.745 4.075 5.107 2.608 9.237 6.14 12.388 10.595.869 1.087 1.141 2.282.815 3.586-.217 1.195-1.032 2.173-2.445 2.934a5.336 5.336 0 01-3.423.489c-1.195-.217-2.228-.869-3.097-1.956-5.542-7.063-13.312-10.595-23.309-10.595-6.846 0-12.17 1.467-15.974 4.401-3.803 2.934-5.705 6.466-5.705 10.595 0 4.238 1.847 7.715 5.542 10.432 3.695 2.608 9.997 4.564 18.908 5.868 8.15 1.087 14.561 2.934 19.234 5.542 4.781 2.608 8.15 5.651 10.106 9.128 2.065 3.369 3.097 7.009 3.097 10.921 0 5.107-1.63 9.563-4.89 13.366-3.26 3.803-7.552 6.737-12.877 8.802-5.325 1.956-11.084 2.934-17.278 2.934zm96.518-.163c-8.585 0-16.246-1.902-22.983-5.705-6.629-3.912-11.845-9.291-15.648-16.137-3.804-6.846-5.705-14.67-5.705-23.472 0-8.911 1.793-16.735 5.379-23.472 3.586-6.846 8.53-12.225 14.833-16.137 6.302-3.912 13.529-5.868 21.679-5.868 8.041 0 15.159 1.902 21.353 5.705 6.194 3.695 11.029 8.856 14.507 15.485 3.477 6.52 5.216 14.072 5.216 22.657 0 1.413-.435 2.554-1.304 3.423-.87.761-2.011 1.141-3.423 1.141h-68.297c.326 6.52 2.01 12.279 5.053 17.278 3.042 4.999 7.063 8.911 12.062 11.736 5.107 2.825 10.866 4.238 17.278 4.238 4.238 0 8.476-.706 12.714-2.119 4.346-1.521 7.769-3.477 10.269-5.868.869-.869 1.901-1.304 3.097-1.304 1.304-.109 2.39.217 3.26.978 1.195.978 1.793 2.065 1.793 3.26.108 1.195-.381 2.282-1.467 3.26-3.478 3.151-8.042 5.759-13.692 7.824-5.542 2.065-10.867 3.097-15.974 3.097zm-2.445-81.663c-5.651 0-10.758 1.304-15.322 3.912-4.564 2.608-8.313 6.248-11.247 10.921-2.826 4.564-4.564 9.889-5.216 15.974h63.407c-.761-9.128-4.021-16.517-9.78-22.168-5.76-5.759-13.04-8.639-21.842-8.639zm99.893 81.826c-8.693 0-16.517-1.956-23.472-5.868-6.846-4.021-12.279-9.454-16.3-16.3-3.912-6.955-5.868-14.724-5.868-23.309 0-8.693 1.956-16.463 5.868-23.309 4.021-6.955 9.454-12.388 16.3-16.3 6.955-4.021 14.779-6.031 23.472-6.031 8.694 0 16.463 2.01 23.309 6.031 6.846 3.912 12.225 9.345 16.137 16.3 4.021 6.846 6.031 14.616 6.031 23.309 0 8.585-2.01 16.354-6.031 23.309-3.912 6.846-9.291 12.279-16.137 16.3-6.846 3.912-14.615 5.868-23.309 5.868zm0-9.128c6.846 0 12.932-1.576 18.256-4.727 5.434-3.26 9.672-7.607 12.714-13.04 3.152-5.542 4.727-11.736 4.727-18.582 0-6.955-1.575-13.149-4.727-18.582-3.042-5.542-7.28-9.889-12.714-13.04-5.324-3.26-11.41-4.89-18.256-4.89-6.737 0-12.822 1.63-18.256 4.89-5.433 3.151-9.725 7.498-12.877 13.04-3.151 5.433-4.727 11.627-4.727 18.582 0 6.846 1.576 13.04 4.727 18.582 3.152 5.433 7.444 9.78 12.877 13.04 5.434 3.151 11.519 4.727 18.256 4.727z" fill="#fff"/><path d="M331 204l100.983 309.534" stroke="#fff" stroke-width="9"/><circle cx="302" cy="176" r="18" fill="#FDD706"/><path d="M275.984 209L-17 499.135" stroke="#fff" stroke-width="9"/><path d="M255.322 500.252H222L297.463 218h6.371l-48.512 282.252z" fill="#fff"/><path fill="#000" d="M237 386h55.375v52.46H237zm26-95h55.375v42.201H263zm12-53h55.375v29.984H275z"/></g><defs><clipPath id="clip0"><path fill="#fff" d="M0 0h500v500H0z"/></clipPath></defs></svg>