<svg width="500" height="500" fill="none" xmlns="http://www.w3.org/2000/svg"><g clip-path="url(#clip0)"><path fill="#fff" d="M0 0h500v500H0z"/><path d="M107.988 220.978c-5.651 0-11.573-1.032-17.767-3.097-6.194-2.065-11.356-5.542-15.485-10.432-.87-1.087-1.25-2.228-1.141-3.423.217-1.304.924-2.391 2.119-3.26 1.087-.761 2.228-1.032 3.423-.815 1.304.217 2.336.815 3.097 1.793 3.151 3.695 6.955 6.303 11.41 7.824 4.564 1.413 9.508 2.119 14.833 2.119 9.128 0 15.594-1.63 19.397-4.89 3.803-3.26 5.705-7.063 5.705-11.41 0-8.585-8.313-14.072-24.939-16.463-10.867-1.521-18.908-4.455-24.124-8.802-5.216-4.347-7.824-9.4-7.824-15.159 0-8.15 2.934-14.344 8.802-18.582 5.977-4.347 13.529-6.52 22.657-6.52 7.389 0 13.638 1.358 18.745 4.075 5.107 2.608 9.237 6.14 12.388 10.595.869 1.087 1.141 2.282.815 3.586-.217 1.195-1.032 2.173-2.445 2.934a5.336 5.336 0 01-3.423.489c-1.195-.217-2.228-.869-3.097-1.956-5.542-7.063-13.312-10.595-23.309-10.595-6.846 0-12.17 1.467-15.974 4.401-3.803 2.934-5.705 6.466-5.705 10.595 0 4.238 1.847 7.715 5.542 10.432 3.695 2.608 9.997 4.564 18.908 5.868 8.15 1.087 14.561 2.934 19.234 5.542 4.781 2.608 8.15 5.651 10.106 9.128 2.065 3.369 3.097 7.009 3.097 10.921 0 5.107-1.63 9.563-4.89 13.366-3.26 3.803-7.552 6.737-12.877 8.802-5.325 1.956-11.084 2.934-17.278 2.934zM169.95 220c-1.413 0-2.608-.435-3.586-1.304-.87-.978-1.304-2.173-1.304-3.586v-79.381c0-1.521.434-2.717 1.304-3.586.978-.869 2.173-1.304 3.586-1.304 1.521 0 2.716.435 3.586 1.304.869.869 1.304 2.065 1.304 3.586v6.357c3.042-3.912 6.737-6.955 11.084-9.128 4.455-2.173 9.291-3.26 14.507-3.26 6.411 0 12.116 1.576 17.115 4.727 4.998 3.043 8.91 7.281 11.736 12.714 2.934-5.433 7.009-9.671 12.225-12.714 5.216-3.151 11.084-4.727 17.604-4.727 6.628 0 12.442 1.63 17.441 4.89 4.998 3.26 8.91 7.77 11.736 13.529 2.934 5.759 4.401 12.388 4.401 19.886v47.107c0 1.413-.435 2.608-1.304 3.586-.87.869-2.065 1.304-3.586 1.304-1.413 0-2.608-.435-3.586-1.304-.87-.978-1.304-2.173-1.304-3.586v-47.107c0-8.367-2.228-15.213-6.683-20.538-4.347-5.325-10.052-7.987-17.115-7.987-7.498 0-13.638 2.499-18.419 7.498-4.673 4.89-6.901 11.519-6.683 19.886v48.248c0 1.413-.435 2.608-1.304 3.586-.87.869-2.065 1.304-3.586 1.304-1.413 0-2.608-.435-3.586-1.304-.87-.978-1.304-2.173-1.304-3.586v-47.107c0-8.367-2.228-15.213-6.683-20.538-4.347-5.325-10.052-7.987-17.115-7.987-7.498 0-13.638 2.391-18.419 7.172-4.782 4.781-7.172 10.975-7.172 18.582v49.878c0 1.413-.435 2.608-1.304 3.586-.87.869-2.065 1.304-3.586 1.304zm155.359 0c-1.413 0-2.608-.435-3.586-1.304-.869-.978-1.304-2.173-1.304-3.586v-79.381c0-1.521.435-2.717 1.304-3.586.978-.869 2.173-1.304 3.586-1.304 1.521 0 2.717.435 3.586 1.304.869.869 1.304 2.065 1.304 3.586v6.357c3.043-3.912 6.737-6.955 11.084-9.128 4.455-2.173 9.291-3.26 14.507-3.26 6.411 0 12.116 1.576 17.115 4.727 4.999 3.043 8.911 7.281 11.736 12.714 2.934-5.433 7.009-9.671 12.225-12.714 5.216-3.151 11.084-4.727 17.604-4.727 6.629 0 12.442 1.63 17.441 4.89 4.999 3.26 8.911 7.77 11.736 13.529 2.934 5.759 4.401 12.388 4.401 19.886v47.107c0 1.413-.435 2.608-1.304 3.586-.869.869-2.065 1.304-3.586 1.304-1.413 0-2.608-.435-3.586-1.304-.869-.978-1.304-2.173-1.304-3.586v-47.107c0-8.367-2.228-15.213-6.683-20.538-4.347-5.325-10.052-7.987-17.115-7.987-7.498 0-13.638 2.499-18.419 7.498-4.673 4.89-6.9 11.519-6.683 19.886v48.248c0 1.413-.435 2.608-1.304 3.586-.869.869-2.065 1.304-3.586 1.304-1.413 0-2.608-.435-3.586-1.304-.869-.978-1.304-2.173-1.304-3.586v-47.107c0-8.367-2.228-15.213-6.683-20.538-4.347-5.325-10.052-7.987-17.115-7.987-7.498 0-13.638 2.391-18.419 7.172-4.781 4.781-7.172 10.975-7.172 18.582v49.878c0 1.413-.435 2.608-1.304 3.586-.869.869-2.065 1.304-3.586 1.304z" fill="#000"/><rect x="193" y="357" width="11" height="383.451" rx="5.5" fill="#FDD706"/><rect x="252" y="410" width="11" height="383.451" rx="5.5" fill="#000"/><rect x="349" y="247" width="11" height="383.451" rx="5.5" fill="#FDD706"/><rect x="409" y="306" width="11" height="383.451" rx="5.5" fill="#000"/><path d="M52.572 71.642l28.414 39.109 9.033-23.416 19.449 17.278 13.189-44.055" stroke="#FDD706" stroke-width="9" stroke-linecap="round" stroke-linejoin="round"/></g><defs><clipPath id="clip0"><path fill="#fff" d="M0 0h500v500H0z"/></clipPath></defs></svg>