<svg width="500" height="500" viewBox="0 0 500 500" fill="none" xmlns="http://www.w3.org/2000/svg">
<rect width="500" height="500" fill="white"/>
<path d="M122.647 220.978C114.171 220.978 106.51 219.022 99.664 215.11C92.818 211.198 87.3847 205.873 83.364 199.136C79.452 192.399 77.3873 184.792 77.17 176.316V97.587C77.17 96.0657 77.6047 94.8703 78.474 94.001C79.452 93.1317 80.6473 92.697 82.06 92.697C83.5813 92.697 84.7767 93.1317 85.646 94.001C86.5153 94.8703 86.95 96.0657 86.95 97.587V148.443C90.4273 142.792 95.263 138.283 101.457 134.914C107.76 131.545 114.823 129.861 122.647 129.861C131.34 129.861 139.11 131.871 145.956 135.892C152.911 139.804 158.344 145.183 162.256 152.029C166.277 158.875 168.287 166.645 168.287 175.338C168.287 184.031 166.277 191.855 162.256 198.81C158.344 205.656 152.911 211.089 145.956 215.11C139.11 219.022 131.34 220.978 122.647 220.978ZM122.647 211.85C129.493 211.85 135.578 210.274 140.903 207.123C146.336 203.863 150.629 199.516 153.78 194.083C156.931 188.541 158.507 182.293 158.507 175.338C158.507 168.383 156.931 162.189 153.78 156.756C150.629 151.323 146.336 147.03 140.903 143.879C135.578 140.619 129.493 138.989 122.647 138.989C115.91 138.989 109.824 140.619 104.391 143.879C98.9577 147.03 94.6653 151.323 91.514 156.756C88.4713 162.189 86.95 168.383 86.95 175.338C86.95 182.293 88.4713 188.541 91.514 194.083C94.6653 199.516 98.9577 203.863 104.391 207.123C109.824 210.274 115.91 211.85 122.647 211.85ZM200.884 220C199.472 220 198.276 219.565 197.298 218.696C196.429 217.718 195.994 216.523 195.994 215.11V135.729C195.994 134.208 196.429 133.012 197.298 132.143C198.276 131.274 199.472 130.839 200.884 130.839C202.406 130.839 203.601 131.274 204.47 132.143C205.34 133.012 205.774 134.208 205.774 135.729V215.11C205.774 216.523 205.34 217.718 204.47 218.696C203.601 219.565 202.406 220 200.884 220ZM200.721 112.094C198.657 112.094 196.864 111.388 195.342 109.975C193.93 108.454 193.223 106.606 193.223 104.433C193.223 101.934 193.984 100.086 195.505 98.891C197.135 97.587 198.928 96.935 200.884 96.935C202.732 96.935 204.416 97.587 205.937 98.891C207.567 100.086 208.382 101.934 208.382 104.433C208.382 106.606 207.622 108.454 206.1 109.975C204.688 111.388 202.895 112.094 200.721 112.094ZM279.169 220.978C270.258 220.978 262.38 219.022 255.534 215.11C248.688 211.198 243.309 205.819 239.397 198.973C235.485 192.127 233.529 184.303 233.529 175.501C233.529 166.59 235.539 158.712 239.56 151.866C243.581 145.02 249.014 139.641 255.86 135.729C262.815 131.817 270.584 129.861 279.169 129.861C288.08 129.861 295.904 131.817 302.641 135.729C309.487 139.641 314.866 145.02 318.778 151.866C322.69 158.712 324.646 166.59 324.646 175.501V207.449C324.646 216.251 322.69 224.184 318.778 231.247C314.866 238.31 309.541 243.852 302.804 247.873C296.067 252.002 288.406 254.067 279.821 254.067C270.802 254.067 263.086 252.383 256.675 249.014C250.372 245.645 245.156 241.353 241.027 236.137C240.158 235.05 239.723 233.909 239.723 232.714C239.723 231.519 240.266 230.541 241.353 229.78C242.44 228.911 243.689 228.585 245.102 228.802C246.623 229.019 247.764 229.726 248.525 230.921C251.894 234.942 256.186 238.256 261.402 240.864C266.618 243.581 272.758 244.939 279.821 244.939C286.558 244.939 292.535 243.309 297.751 240.049C303.076 236.789 307.259 232.279 310.302 226.52C313.345 220.869 314.866 214.512 314.866 207.449V200.277C311.715 206.58 307.042 211.633 300.848 215.436C294.654 219.131 287.428 220.978 279.169 220.978ZM279.169 211.85C286.124 211.85 292.263 210.329 297.588 207.286C303.021 204.135 307.259 199.842 310.302 194.409C313.345 188.867 314.866 182.564 314.866 175.501C314.866 168.329 313.345 162.026 310.302 156.593C307.259 151.051 303.021 146.759 297.588 143.716C292.263 140.565 286.124 138.989 279.169 138.989C272.214 138.989 266.02 140.565 260.587 143.716C255.154 146.759 250.916 151.051 247.873 156.593C244.83 162.026 243.309 168.329 243.309 175.501C243.309 182.564 244.83 188.867 247.873 194.409C250.916 199.842 255.154 204.135 260.587 207.286C266.02 210.329 272.214 211.85 279.169 211.85ZM107.488 384.978C101.837 384.978 95.915 383.946 89.721 381.881C83.527 379.816 78.3653 376.339 74.236 371.449C73.3667 370.362 72.9863 369.221 73.095 368.026C73.3123 366.722 74.0187 365.635 75.214 364.766C76.3007 364.005 77.4417 363.734 78.637 363.951C79.941 364.168 80.9733 364.766 81.734 365.744C84.8853 369.439 88.6887 372.047 93.144 373.568C97.708 374.981 102.652 375.687 107.977 375.687C117.105 375.687 123.571 374.057 127.374 370.797C131.177 367.537 133.079 363.734 133.079 359.387C133.079 350.802 124.766 345.315 108.14 342.924C97.2733 341.403 89.232 338.469 84.016 334.122C78.8 329.775 76.192 324.722 76.192 318.963C76.192 310.813 79.126 304.619 84.994 300.381C90.9707 296.034 98.523 293.861 107.651 293.861C115.04 293.861 121.289 295.219 126.396 297.936C131.503 300.544 135.633 304.076 138.784 308.531C139.653 309.618 139.925 310.813 139.599 312.117C139.382 313.312 138.567 314.29 137.154 315.051C136.067 315.594 134.926 315.757 133.731 315.54C132.536 315.323 131.503 314.671 130.634 313.584C125.092 306.521 117.322 302.989 107.325 302.989C100.479 302.989 95.1543 304.456 91.351 307.39C87.5477 310.324 85.646 313.856 85.646 317.985C85.646 322.223 87.4933 325.7 91.188 328.417C94.8827 331.025 101.185 332.981 110.096 334.285C118.246 335.372 124.657 337.219 129.33 339.827C134.111 342.435 137.48 345.478 139.436 348.955C141.501 352.324 142.533 355.964 142.533 359.876C142.533 364.983 140.903 369.439 137.643 373.242C134.383 377.045 130.091 379.979 124.766 382.044C119.441 384 113.682 384.978 107.488 384.978ZM172.71 384C171.297 384 170.102 383.565 169.124 382.696C168.254 381.718 167.82 380.523 167.82 379.11V299.729C167.82 298.208 168.254 297.012 169.124 296.143C170.102 295.274 171.297 294.839 172.71 294.839C174.231 294.839 175.426 295.274 176.296 296.143C177.165 297.012 177.6 298.208 177.6 299.729V379.11C177.6 380.523 177.165 381.718 176.296 382.696C175.426 383.565 174.231 384 172.71 384ZM172.547 276.094C170.482 276.094 168.689 275.388 167.168 273.975C165.755 272.454 165.049 270.606 165.049 268.433C165.049 265.934 165.809 264.086 167.331 262.891C168.961 261.587 170.754 260.935 172.71 260.935C174.557 260.935 176.241 261.587 177.763 262.891C179.393 264.086 180.208 265.934 180.208 268.433C180.208 270.606 179.447 272.454 177.926 273.975C176.513 275.388 174.72 276.094 172.547 276.094ZM246.756 384C240.78 383.891 235.455 382.533 230.782 379.925C226.11 377.208 222.469 373.514 219.861 368.841C217.253 364.06 215.949 358.681 215.949 352.704V306.901H203.235C201.931 306.901 200.845 306.521 199.975 305.76C199.215 304.891 198.834 303.804 198.834 302.5C198.834 301.196 199.215 300.164 199.975 299.403C200.845 298.534 201.931 298.099 203.235 298.099H215.949V271.53C215.949 270.009 216.384 268.813 217.253 267.944C218.231 266.966 219.427 266.477 220.839 266.477C222.361 266.477 223.556 266.966 224.425 267.944C225.403 268.813 225.892 270.009 225.892 271.53V298.099H247.408C248.712 298.099 249.745 298.534 250.505 299.403C251.375 300.164 251.809 301.196 251.809 302.5C251.809 303.804 251.375 304.891 250.505 305.76C249.745 306.521 248.712 306.901 247.408 306.901H225.892V352.704C225.892 359.007 227.848 364.168 231.76 368.189C235.672 372.101 240.725 374.057 246.919 374.057H250.505C252.027 374.057 253.222 374.546 254.091 375.524C255.069 376.393 255.558 377.589 255.558 379.11C255.558 380.523 255.069 381.718 254.091 382.696C253.222 383.565 252.027 384 250.505 384H246.756ZM315.431 384.815C306.847 384.815 299.186 382.913 292.448 379.11C285.82 375.198 280.604 369.819 276.8 362.973C272.997 356.127 271.095 348.303 271.095 339.501C271.095 330.59 272.888 322.766 276.474 316.029C280.06 309.183 285.005 303.804 291.307 299.892C297.61 295.98 304.836 294.024 312.986 294.024C321.028 294.024 328.145 295.926 334.339 299.729C340.533 303.424 345.369 308.585 348.846 315.214C352.324 321.734 354.062 329.286 354.062 337.871C354.062 339.284 353.628 340.425 352.758 341.294C351.889 342.055 350.748 342.435 349.335 342.435H281.038C281.364 348.955 283.049 354.714 286.091 359.713C289.134 364.712 293.155 368.624 298.153 371.449C303.261 374.274 309.02 375.687 315.431 375.687C319.669 375.687 323.907 374.981 328.145 373.568C332.492 372.047 335.915 370.091 338.414 367.7C339.284 366.831 340.316 366.396 341.511 366.396C342.815 366.287 343.902 366.613 344.771 367.374C345.967 368.352 346.564 369.439 346.564 370.634C346.673 371.829 346.184 372.916 345.097 373.894C341.62 377.045 337.056 379.653 331.405 381.718C325.863 383.783 320.539 384.815 315.431 384.815ZM312.986 303.152C307.336 303.152 302.228 304.456 297.664 307.064C293.1 309.672 289.351 313.312 286.417 317.985C283.592 322.549 281.853 327.874 281.201 333.959H344.608C343.848 324.831 340.588 317.442 334.828 311.791C329.069 306.032 321.788 303.152 312.986 303.152Z" fill="black"/>
<circle cx="130.953" cy="182.088" r="18" fill="#FFC758"/>
<circle cx="289.014" cy="182.088" r="18" fill="#FFC758"/>
<path d="M429.075 189.065L429.075 310.935" stroke="black" stroke-width="9" stroke-linecap="round"/>
<path d="M452.409 160.754L429.075 137.419L405.74 160.754" stroke="#FFC758" stroke-width="9" stroke-linecap="round" stroke-linejoin="round"/>
<path d="M452.409 126.754L429.075 103.419L405.74 126.754" stroke="#FFC758" stroke-width="9" stroke-linecap="round" stroke-linejoin="round"/>
<path d="M452.409 339.471L429.075 362.806L405.74 339.471" stroke="#FFC758" stroke-width="9" stroke-linecap="round" stroke-linejoin="round"/>
<path d="M452.409 371.471L429.075 394.806L405.74 371.471" stroke="#FFC758" stroke-width="9" stroke-linecap="round" stroke-linejoin="round"/>
<path d="M237.174 104.093L251.105 121.735" stroke="black" stroke-width="9" stroke-linecap="round"/>
<path d="M278.904 92V112.154" stroke="black" stroke-width="9" stroke-linecap="round"/>
<path d="M320.419 101.988L306.249 122.685" stroke="black" stroke-width="9" stroke-linecap="round"/>
<path d="M97.2107 118.663L98.6479 119.851" stroke="black" stroke-width="9" stroke-linecap="round"/>
<path d="M122.732 91.6455V111.799" stroke="black" stroke-width="9" stroke-linecap="round"/>
<path d="M164.247 101.634L150.076 122.33" stroke="black" stroke-width="9" stroke-linecap="round"/>
</svg>
