<svg width="500" height="500" viewBox="0 0 500 500" fill="none" xmlns="http://www.w3.org/2000/svg">
<rect width="500" height="500" fill="white"/>
<path d="M123.147 220.978C114.671 220.978 107.01 219.022 100.164 215.11C93.318 211.198 87.8847 205.873 83.864 199.136C79.952 192.399 77.8873 184.792 77.67 176.316V97.587C77.67 96.0657 78.1047 94.8703 78.974 94.001C79.952 93.1317 81.1473 92.697 82.56 92.697C84.0813 92.697 85.2767 93.1317 86.146 94.001C87.0153 94.8703 87.45 96.0657 87.45 97.587V148.443C90.9273 142.792 95.763 138.283 101.957 134.914C108.26 131.545 115.323 129.861 123.147 129.861C131.84 129.861 139.61 131.871 146.456 135.892C153.411 139.804 158.844 145.183 162.756 152.029C166.777 158.875 168.787 166.645 168.787 175.338C168.787 184.031 166.777 191.855 162.756 198.81C158.844 205.656 153.411 211.089 146.456 215.11C139.61 219.022 131.84 220.978 123.147 220.978ZM123.147 211.85C129.993 211.85 136.078 210.274 141.403 207.123C146.836 203.863 151.129 199.516 154.28 194.083C157.431 188.541 159.007 182.293 159.007 175.338C159.007 168.383 157.431 162.189 154.28 156.756C151.129 151.323 146.836 147.03 141.403 143.879C136.078 140.619 129.993 138.989 123.147 138.989C116.41 138.989 110.324 140.619 104.891 143.879C99.4577 147.03 95.1653 151.323 92.014 156.756C88.9713 162.189 87.45 168.383 87.45 175.338C87.45 182.293 88.9713 188.541 92.014 194.083C95.1653 199.516 99.4577 203.863 104.891 207.123C110.324 210.274 116.41 211.85 123.147 211.85ZM201.384 220C199.972 220 198.776 219.565 197.798 218.696C196.929 217.718 196.494 216.523 196.494 215.11V135.729C196.494 134.208 196.929 133.012 197.798 132.143C198.776 131.274 199.972 130.839 201.384 130.839C202.906 130.839 204.101 131.274 204.97 132.143C205.84 133.012 206.274 134.208 206.274 135.729V215.11C206.274 216.523 205.84 217.718 204.97 218.696C204.101 219.565 202.906 220 201.384 220ZM201.221 112.094C199.157 112.094 197.364 111.388 195.842 109.975C194.43 108.454 193.723 106.606 193.723 104.433C193.723 101.934 194.484 100.086 196.005 98.891C197.635 97.587 199.428 96.935 201.384 96.935C203.232 96.935 204.916 97.587 206.437 98.891C208.067 100.086 208.882 101.934 208.882 104.433C208.882 106.606 208.122 108.454 206.6 109.975C205.188 111.388 203.395 112.094 201.221 112.094ZM279.669 220.978C270.758 220.978 262.88 219.022 256.034 215.11C249.188 211.198 243.809 205.819 239.897 198.973C235.985 192.127 234.029 184.303 234.029 175.501C234.029 166.59 236.039 158.712 240.06 151.866C244.081 145.02 249.514 139.641 256.36 135.729C263.315 131.817 271.084 129.861 279.669 129.861C288.58 129.861 296.404 131.817 303.141 135.729C309.987 139.641 315.366 145.02 319.278 151.866C323.19 158.712 325.146 166.59 325.146 175.501V207.449C325.146 216.251 323.19 224.184 319.278 231.247C315.366 238.31 310.041 243.852 303.304 247.873C296.567 252.002 288.906 254.067 280.321 254.067C271.302 254.067 263.586 252.383 257.175 249.014C250.872 245.645 245.656 241.353 241.527 236.137C240.658 235.05 240.223 233.909 240.223 232.714C240.223 231.519 240.766 230.541 241.853 229.78C242.94 228.911 244.189 228.585 245.602 228.802C247.123 229.019 248.264 229.726 249.025 230.921C252.394 234.942 256.686 238.256 261.902 240.864C267.118 243.581 273.258 244.939 280.321 244.939C287.058 244.939 293.035 243.309 298.251 240.049C303.576 236.789 307.759 232.279 310.802 226.52C313.845 220.869 315.366 214.512 315.366 207.449V200.277C312.215 206.58 307.542 211.633 301.348 215.436C295.154 219.131 287.928 220.978 279.669 220.978ZM279.669 211.85C286.624 211.85 292.763 210.329 298.088 207.286C303.521 204.135 307.759 199.842 310.802 194.409C313.845 188.867 315.366 182.564 315.366 175.501C315.366 168.329 313.845 162.026 310.802 156.593C307.759 151.051 303.521 146.759 298.088 143.716C292.763 140.565 286.624 138.989 279.669 138.989C272.714 138.989 266.52 140.565 261.087 143.716C255.654 146.759 251.416 151.051 248.373 156.593C245.33 162.026 243.809 168.329 243.809 175.501C243.809 182.564 245.33 188.867 248.373 194.409C251.416 199.842 255.654 204.135 261.087 207.286C266.52 210.329 272.714 211.85 279.669 211.85ZM107.988 384.978C102.337 384.978 96.415 383.946 90.221 381.881C84.027 379.816 78.8653 376.339 74.736 371.449C73.8667 370.362 73.4863 369.221 73.595 368.026C73.8123 366.722 74.5187 365.635 75.714 364.766C76.8007 364.005 77.9417 363.734 79.137 363.951C80.441 364.168 81.4733 364.766 82.234 365.744C85.3853 369.439 89.1887 372.047 93.644 373.568C98.208 374.981 103.152 375.687 108.477 375.687C117.605 375.687 124.071 374.057 127.874 370.797C131.677 367.537 133.579 363.734 133.579 359.387C133.579 350.802 125.266 345.315 108.64 342.924C97.7733 341.403 89.732 338.469 84.516 334.122C79.3 329.775 76.692 324.722 76.692 318.963C76.692 310.813 79.626 304.619 85.494 300.381C91.4707 296.034 99.023 293.861 108.151 293.861C115.54 293.861 121.789 295.219 126.896 297.936C132.003 300.544 136.133 304.076 139.284 308.531C140.153 309.618 140.425 310.813 140.099 312.117C139.882 313.312 139.067 314.29 137.654 315.051C136.567 315.594 135.426 315.757 134.231 315.54C133.036 315.323 132.003 314.671 131.134 313.584C125.592 306.521 117.822 302.989 107.825 302.989C100.979 302.989 95.6543 304.456 91.851 307.39C88.0477 310.324 86.146 313.856 86.146 317.985C86.146 322.223 87.9933 325.7 91.688 328.417C95.3827 331.025 101.685 332.981 110.596 334.285C118.746 335.372 125.157 337.219 129.83 339.827C134.611 342.435 137.98 345.478 139.936 348.955C142.001 352.324 143.033 355.964 143.033 359.876C143.033 364.983 141.403 369.439 138.143 373.242C134.883 377.045 130.591 379.979 125.266 382.044C119.941 384 114.182 384.978 107.988 384.978ZM173.21 384C171.797 384 170.602 383.565 169.624 382.696C168.754 381.718 168.32 380.523 168.32 379.11V299.729C168.32 298.208 168.754 297.012 169.624 296.143C170.602 295.274 171.797 294.839 173.21 294.839C174.731 294.839 175.926 295.274 176.796 296.143C177.665 297.012 178.1 298.208 178.1 299.729V379.11C178.1 380.523 177.665 381.718 176.796 382.696C175.926 383.565 174.731 384 173.21 384ZM173.047 276.094C170.982 276.094 169.189 275.388 167.668 273.975C166.255 272.454 165.549 270.606 165.549 268.433C165.549 265.934 166.309 264.086 167.831 262.891C169.461 261.587 171.254 260.935 173.21 260.935C175.057 260.935 176.741 261.587 178.263 262.891C179.893 264.086 180.708 265.934 180.708 268.433C180.708 270.606 179.947 272.454 178.426 273.975C177.013 275.388 175.22 276.094 173.047 276.094ZM247.256 384C241.28 383.891 235.955 382.533 231.282 379.925C226.61 377.208 222.969 373.514 220.361 368.841C217.753 364.06 216.449 358.681 216.449 352.704V306.901H203.735C202.431 306.901 201.345 306.521 200.475 305.76C199.715 304.891 199.334 303.804 199.334 302.5C199.334 301.196 199.715 300.164 200.475 299.403C201.345 298.534 202.431 298.099 203.735 298.099H216.449V271.53C216.449 270.009 216.884 268.813 217.753 267.944C218.731 266.966 219.927 266.477 221.339 266.477C222.861 266.477 224.056 266.966 224.925 267.944C225.903 268.813 226.392 270.009 226.392 271.53V298.099H247.908C249.212 298.099 250.245 298.534 251.005 299.403C251.875 300.164 252.309 301.196 252.309 302.5C252.309 303.804 251.875 304.891 251.005 305.76C250.245 306.521 249.212 306.901 247.908 306.901H226.392V352.704C226.392 359.007 228.348 364.168 232.26 368.189C236.172 372.101 241.225 374.057 247.419 374.057H251.005C252.527 374.057 253.722 374.546 254.591 375.524C255.569 376.393 256.058 377.589 256.058 379.11C256.058 380.523 255.569 381.718 254.591 382.696C253.722 383.565 252.527 384 251.005 384H247.256ZM315.931 384.815C307.347 384.815 299.686 382.913 292.948 379.11C286.32 375.198 281.104 369.819 277.3 362.973C273.497 356.127 271.595 348.303 271.595 339.501C271.595 330.59 273.388 322.766 276.974 316.029C280.56 309.183 285.505 303.804 291.807 299.892C298.11 295.98 305.336 294.024 313.486 294.024C321.528 294.024 328.645 295.926 334.839 299.729C341.033 303.424 345.869 308.585 349.346 315.214C352.824 321.734 354.562 329.286 354.562 337.871C354.562 339.284 354.128 340.425 353.258 341.294C352.389 342.055 351.248 342.435 349.835 342.435H281.538C281.864 348.955 283.549 354.714 286.591 359.713C289.634 364.712 293.655 368.624 298.653 371.449C303.761 374.274 309.52 375.687 315.931 375.687C320.169 375.687 324.407 374.981 328.645 373.568C332.992 372.047 336.415 370.091 338.914 367.7C339.784 366.831 340.816 366.396 342.011 366.396C343.315 366.287 344.402 366.613 345.271 367.374C346.467 368.352 347.064 369.439 347.064 370.634C347.173 371.829 346.684 372.916 345.597 373.894C342.12 377.045 337.556 379.653 331.905 381.718C326.363 383.783 321.039 384.815 315.931 384.815ZM313.486 303.152C307.836 303.152 302.728 304.456 298.164 307.064C293.6 309.672 289.851 313.312 286.917 317.985C284.092 322.549 282.353 327.874 281.701 333.959H345.108C344.348 324.831 341.088 317.442 335.328 311.791C329.569 306.032 322.288 303.152 313.486 303.152Z" fill="black"/>
<circle cx="131" cy="182" r="18" fill="#FDD706"/>
<circle cx="289" cy="182" r="18" fill="#FDD706"/>
<path d="M429 189L429 310.87" stroke="black" stroke-width="9" stroke-linecap="round"/>
<path d="M452 161L428.665 137.665L405.331 161" stroke="#FDD706" stroke-width="9" stroke-linecap="round" stroke-linejoin="round"/>
<path d="M452 127L428.665 103.665L405.331 127" stroke="#FDD706" stroke-width="9" stroke-linecap="round" stroke-linejoin="round"/>
<path d="M452 339L428.665 362.335L405.331 339" stroke="#FDD706" stroke-width="9" stroke-linecap="round" stroke-linejoin="round"/>
<path d="M452 371L428.665 394.335L405.331 371" stroke="#FDD706" stroke-width="9" stroke-linecap="round" stroke-linejoin="round"/>
<path d="M237 104L250.931 121.643" stroke="black" stroke-width="9" stroke-linecap="round"/>
<path d="M279 92V112.154" stroke="black" stroke-width="9" stroke-linecap="round"/>
<path d="M320.17 102L306 122.697" stroke="black" stroke-width="9" stroke-linecap="round"/>
<path d="M97 119L98.4372 120.189" stroke="black" stroke-width="9" stroke-linecap="round"/>
<path d="M123 92V112.154" stroke="black" stroke-width="9" stroke-linecap="round"/>
<path d="M164.17 102L150 122.697" stroke="black" stroke-width="9" stroke-linecap="round"/>
</svg>
