<svg width="500" height="500" viewBox="0 0 500 500" fill="none" xmlns="http://www.w3.org/2000/svg">
<rect width="500" height="500" fill="white"/>
<path d="M123.147 220.978C114.671 220.978 107.01 219.022 100.164 215.11C93.318 211.198 87.8847 205.873 83.864 199.136C79.952 192.399 77.8873 184.792 77.67 176.316V97.587C77.67 96.0657 78.1047 94.8703 78.974 94.001C79.952 93.1317 81.1473 92.697 82.56 92.697C84.0813 92.697 85.2767 93.1317 86.146 94.001C87.0153 94.8703 87.45 96.0657 87.45 97.587V148.443C90.9273 142.792 95.763 138.283 101.957 134.914C108.26 131.545 115.323 129.861 123.147 129.861C131.84 129.861 139.61 131.871 146.456 135.892C153.411 139.804 158.844 145.183 162.756 152.029C166.777 158.875 168.787 166.645 168.787 175.338C168.787 184.031 166.777 191.855 162.756 198.81C158.844 205.656 153.411 211.089 146.456 215.11C139.61 219.022 131.84 220.978 123.147 220.978ZM123.147 211.85C129.993 211.85 136.078 210.274 141.403 207.123C146.836 203.863 151.129 199.516 154.28 194.083C157.431 188.541 159.007 182.293 159.007 175.338C159.007 168.383 157.431 162.189 154.28 156.756C151.129 151.323 146.836 147.03 141.403 143.879C136.078 140.619 129.993 138.989 123.147 138.989C116.41 138.989 110.324 140.619 104.891 143.879C99.4577 147.03 95.1653 151.323 92.014 156.756C88.9713 162.189 87.45 168.383 87.45 175.338C87.45 182.293 88.9713 188.541 92.014 194.083C95.1653 199.516 99.4577 203.863 104.891 207.123C110.324 210.274 116.41 211.85 123.147 211.85ZM198.124 220C196.712 220 195.516 219.565 194.538 218.696C193.669 217.718 193.234 216.523 193.234 215.11V135.729C193.234 134.208 193.669 133.012 194.538 132.143C195.516 131.274 196.712 130.839 198.124 130.839C199.646 130.839 200.841 131.274 201.71 132.143C202.58 133.012 203.014 134.208 203.014 135.729V145.835C206.166 140.836 210.132 136.924 214.913 134.099C219.803 131.274 225.182 129.861 231.05 129.861C235.18 129.861 238.385 130.35 240.667 131.328C242.949 132.306 243.819 134.045 243.275 136.544C242.949 138.174 242.189 139.152 240.993 139.478C239.798 139.804 238.331 139.858 236.592 139.641C234.962 139.315 233.115 139.152 231.05 139.152C225.617 139.152 220.781 140.293 216.543 142.575C212.305 144.857 208.991 148.008 206.6 152.029C204.21 155.941 203.014 160.451 203.014 165.558V215.11C203.014 216.523 202.58 217.718 201.71 218.696C200.841 219.565 199.646 220 198.124 220ZM298.93 220.978C290.236 220.978 282.412 219.022 275.458 215.11C268.612 211.089 263.178 205.656 259.158 198.81C255.246 191.855 253.29 184.086 253.29 175.501C253.29 166.808 255.246 159.038 259.158 152.192C263.178 145.237 268.612 139.804 275.458 135.892C282.412 131.871 290.236 129.861 298.93 129.861C307.623 129.861 315.393 131.871 322.239 135.892C329.085 139.804 334.464 145.237 338.376 152.192C342.396 159.038 344.407 166.808 344.407 175.501V215.11C344.407 216.523 343.972 217.718 343.103 218.696C342.233 219.565 341.038 220 339.517 220C338.104 220 336.909 219.565 335.931 218.696C335.061 217.718 334.627 216.523 334.627 215.11V202.396C331.041 208.047 326.151 212.556 319.957 215.925C313.763 219.294 306.754 220.978 298.93 220.978ZM298.93 211.85C305.776 211.85 311.861 210.274 317.186 207.123C322.619 203.863 326.857 199.516 329.9 194.083C333.051 188.541 334.627 182.347 334.627 175.501C334.627 168.546 333.051 162.352 329.9 156.919C326.857 151.377 322.619 147.03 317.186 143.879C311.861 140.619 305.776 138.989 298.93 138.989C292.192 138.989 286.107 140.619 280.674 143.879C275.24 147.03 270.948 151.377 267.797 156.919C264.645 162.352 263.07 168.546 263.07 175.501C263.07 182.347 264.645 188.541 267.797 194.083C270.948 199.516 275.24 203.863 280.674 207.123C286.107 210.274 292.192 211.85 298.93 211.85ZM82.56 384C81.1473 384 79.952 383.565 78.974 382.696C78.1047 381.718 77.67 380.523 77.67 379.11V299.729C77.67 298.208 78.1047 297.012 78.974 296.143C79.952 295.274 81.1473 294.839 82.56 294.839C84.0813 294.839 85.2767 295.274 86.146 296.143C87.0153 297.012 87.45 298.208 87.45 299.729V308.205C91.036 303.75 95.4913 300.218 100.816 297.61C106.249 295.002 112.117 293.698 118.42 293.698C126.244 293.698 133.253 295.328 139.447 298.588C145.75 301.739 150.694 306.412 154.28 312.606C157.866 318.691 159.659 326.244 159.659 335.263V379.11C159.659 380.523 159.17 381.718 158.192 382.696C157.323 383.565 156.182 384 154.769 384C153.356 384 152.161 383.565 151.183 382.696C150.314 381.718 149.879 380.523 149.879 379.11V335.263C149.879 328.091 148.466 322.169 145.641 317.496C142.924 312.823 139.175 309.346 134.394 307.064C129.721 304.673 124.397 303.478 118.42 303.478C112.552 303.478 107.282 304.619 102.609 306.901C97.9363 309.074 94.2417 312.117 91.525 316.029C88.8083 319.941 87.45 324.342 87.45 329.232V379.11C87.45 380.523 87.0153 381.718 86.146 382.696C85.2767 383.565 84.0813 384 82.56 384ZM228.095 384.978C219.401 384.978 211.577 383.022 204.623 379.11C197.777 375.089 192.343 369.656 188.323 362.81C184.411 355.855 182.455 348.031 182.455 339.338C182.455 330.645 184.411 322.875 188.323 316.029C192.343 309.183 197.777 303.804 204.623 299.892C211.577 295.871 219.401 293.861 228.095 293.861C235.919 293.861 242.928 295.545 249.122 298.914C255.424 302.283 260.314 306.792 263.792 312.443V261.587C263.792 260.066 264.226 258.87 265.096 258.001C266.074 257.132 267.269 256.697 268.682 256.697C270.203 256.697 271.398 257.132 272.268 258.001C273.137 258.87 273.572 260.066 273.572 261.587V340.316C273.463 348.792 271.398 356.399 267.378 363.136C263.357 369.873 257.924 375.198 251.078 379.11C244.34 383.022 236.679 384.978 228.095 384.978ZM228.095 375.85C234.941 375.85 241.026 374.274 246.351 371.123C251.784 367.863 256.022 363.516 259.065 358.083C262.216 352.541 263.792 346.293 263.792 339.338C263.792 332.383 262.216 326.189 259.065 320.756C256.022 315.323 251.784 311.03 246.351 307.879C241.026 304.619 234.941 302.989 228.095 302.989C221.357 302.989 215.272 304.619 209.839 307.879C204.405 311.03 200.113 315.323 196.962 320.756C193.81 326.189 192.235 332.383 192.235 339.338C192.235 346.293 193.81 352.541 196.962 358.083C200.113 363.516 204.405 367.863 209.839 371.123C215.272 374.274 221.357 375.85 228.095 375.85Z" fill="black"/>
</svg>
