<svg width="500" height="500" viewBox="0 0 500 500" fill="none" xmlns="http://www.w3.org/2000/svg">
<rect width="500" height="500" fill="white"/>
<path d="M122.647 220.978C114.171 220.978 106.51 219.022 99.664 215.11C92.818 211.198 87.3847 205.873 83.364 199.136C79.452 192.399 77.3873 184.792 77.17 176.316V97.587C77.17 96.0657 77.6047 94.8703 78.474 94.001C79.452 93.1317 80.6473 92.697 82.06 92.697C83.5813 92.697 84.7767 93.1317 85.646 94.001C86.5153 94.8703 86.95 96.0657 86.95 97.587V148.443C90.4273 142.792 95.263 138.283 101.457 134.914C107.76 131.545 114.823 129.861 122.647 129.861C131.34 129.861 139.11 131.871 145.956 135.892C152.911 139.804 158.344 145.183 162.256 152.029C166.277 158.875 168.287 166.645 168.287 175.338C168.287 184.031 166.277 191.855 162.256 198.81C158.344 205.656 152.911 211.089 145.956 215.11C139.11 219.022 131.34 220.978 122.647 220.978ZM122.647 211.85C129.493 211.85 135.578 210.274 140.903 207.123C146.336 203.863 150.629 199.516 153.78 194.083C156.931 188.541 158.507 182.293 158.507 175.338C158.507 168.383 156.931 162.189 153.78 156.756C150.629 151.323 146.336 147.03 140.903 143.879C135.578 140.619 129.493 138.989 122.647 138.989C115.91 138.989 109.824 140.619 104.391 143.879C98.9577 147.03 94.6653 151.323 91.514 156.756C88.4713 162.189 86.95 168.383 86.95 175.338C86.95 182.293 88.4713 188.541 91.514 194.083C94.6653 199.516 98.9577 203.863 104.391 207.123C109.824 210.274 115.91 211.85 122.647 211.85ZM197.624 220C196.212 220 195.016 219.565 194.038 218.696C193.169 217.718 192.734 216.523 192.734 215.11V135.729C192.734 134.208 193.169 133.012 194.038 132.143C195.016 131.274 196.212 130.839 197.624 130.839C199.146 130.839 200.341 131.274 201.21 132.143C202.08 133.012 202.514 134.208 202.514 135.729V145.835C205.666 140.836 209.632 136.924 214.413 134.099C219.303 131.274 224.682 129.861 230.55 129.861C234.68 129.861 237.885 130.35 240.167 131.328C242.449 132.306 243.319 134.045 242.775 136.544C242.449 138.174 241.689 139.152 240.493 139.478C239.298 139.804 237.831 139.858 236.092 139.641C234.462 139.315 232.615 139.152 230.55 139.152C225.117 139.152 220.281 140.293 216.043 142.575C211.805 144.857 208.491 148.008 206.1 152.029C203.71 155.941 202.514 160.451 202.514 165.558V215.11C202.514 216.523 202.08 217.718 201.21 218.696C200.341 219.565 199.146 220 197.624 220ZM298.43 220.978C289.736 220.978 281.912 219.022 274.958 215.11C268.112 211.089 262.678 205.656 258.658 198.81C254.746 191.855 252.79 184.086 252.79 175.501C252.79 166.808 254.746 159.038 258.658 152.192C262.678 145.237 268.112 139.804 274.958 135.892C281.912 131.871 289.736 129.861 298.43 129.861C307.123 129.861 314.893 131.871 321.739 135.892C328.585 139.804 333.964 145.237 337.876 152.192C341.896 159.038 343.907 166.808 343.907 175.501V215.11C343.907 216.523 343.472 217.718 342.603 218.696C341.733 219.565 340.538 220 339.017 220C337.604 220 336.409 219.565 335.431 218.696C334.561 217.718 334.127 216.523 334.127 215.11V202.396C330.541 208.047 325.651 212.556 319.457 215.925C313.263 219.294 306.254 220.978 298.43 220.978ZM298.43 211.85C305.276 211.85 311.361 210.274 316.686 207.123C322.119 203.863 326.357 199.516 329.4 194.083C332.551 188.541 334.127 182.347 334.127 175.501C334.127 168.546 332.551 162.352 329.4 156.919C326.357 151.377 322.119 147.03 316.686 143.879C311.361 140.619 305.276 138.989 298.43 138.989C291.692 138.989 285.607 140.619 280.174 143.879C274.74 147.03 270.448 151.377 267.297 156.919C264.145 162.352 262.57 168.546 262.57 175.501C262.57 182.347 264.145 188.541 267.297 194.083C270.448 199.516 274.74 203.863 280.174 207.123C285.607 210.274 291.692 211.85 298.43 211.85ZM82.06 384C80.6473 384 79.452 383.565 78.474 382.696C77.6047 381.718 77.17 380.523 77.17 379.11V299.729C77.17 298.208 77.6047 297.012 78.474 296.143C79.452 295.274 80.6473 294.839 82.06 294.839C83.5813 294.839 84.7767 295.274 85.646 296.143C86.5153 297.012 86.95 298.208 86.95 299.729V308.205C90.536 303.75 94.9913 300.218 100.316 297.61C105.749 295.002 111.617 293.698 117.92 293.698C125.744 293.698 132.753 295.328 138.947 298.588C145.25 301.739 150.194 306.412 153.78 312.606C157.366 318.691 159.159 326.244 159.159 335.263V379.11C159.159 380.523 158.67 381.718 157.692 382.696C156.823 383.565 155.682 384 154.269 384C152.856 384 151.661 383.565 150.683 382.696C149.814 381.718 149.379 380.523 149.379 379.11V335.263C149.379 328.091 147.966 322.169 145.141 317.496C142.424 312.823 138.675 309.346 133.894 307.064C129.221 304.673 123.897 303.478 117.92 303.478C112.052 303.478 106.782 304.619 102.109 306.901C97.4363 309.074 93.7417 312.117 91.025 316.029C88.3083 319.941 86.95 324.342 86.95 329.232V379.11C86.95 380.523 86.5153 381.718 85.646 382.696C84.7767 383.565 83.5813 384 82.06 384ZM227.595 384.978C218.901 384.978 211.077 383.022 204.123 379.11C197.277 375.089 191.843 369.656 187.823 362.81C183.911 355.855 181.955 348.031 181.955 339.338C181.955 330.645 183.911 322.875 187.823 316.029C191.843 309.183 197.277 303.804 204.123 299.892C211.077 295.871 218.901 293.861 227.595 293.861C235.419 293.861 242.428 295.545 248.622 298.914C254.924 302.283 259.814 306.792 263.292 312.443V261.587C263.292 260.066 263.726 258.87 264.596 258.001C265.574 257.132 266.769 256.697 268.182 256.697C269.703 256.697 270.898 257.132 271.768 258.001C272.637 258.87 273.072 260.066 273.072 261.587V340.316C272.963 348.792 270.898 356.399 266.878 363.136C262.857 369.873 257.424 375.198 250.578 379.11C243.84 383.022 236.179 384.978 227.595 384.978ZM227.595 375.85C234.441 375.85 240.526 374.274 245.851 371.123C251.284 367.863 255.522 363.516 258.565 358.083C261.716 352.541 263.292 346.293 263.292 339.338C263.292 332.383 261.716 326.189 258.565 320.756C255.522 315.323 251.284 311.03 245.851 307.879C240.526 304.619 234.441 302.989 227.595 302.989C220.857 302.989 214.772 304.619 209.339 307.879C203.905 311.03 199.613 315.323 196.462 320.756C193.31 326.189 191.735 332.383 191.735 339.338C191.735 346.293 193.31 352.541 196.462 358.083C199.613 363.516 203.905 367.863 209.339 371.123C214.772 374.274 220.857 375.85 227.595 375.85Z" fill="black"/>
</svg>
