<svg width="500" height="500" viewBox="0 0 500 500" fill="none" xmlns="http://www.w3.org/2000/svg">
<rect width="500" height="500" fill="black"/>
<path d="M112.116 192.978C103.64 192.978 96.0333 190.968 89.296 186.947C82.6673 182.926 77.397 177.493 73.485 170.647C69.6817 163.801 67.78 156.086 67.78 147.501C67.78 138.808 69.573 131.038 73.159 124.192C76.745 117.346 81.6893 111.967 87.992 108.055C94.2947 104.034 101.521 102.024 109.671 102.024C116.626 102.024 122.983 103.382 128.742 106.099C134.501 108.707 139.5 112.728 143.738 118.161C144.607 119.248 144.933 120.389 144.716 121.584C144.499 122.779 143.792 123.757 142.597 124.518C141.619 125.279 140.532 125.605 139.337 125.496C138.142 125.279 137.109 124.627 136.24 123.54C129.285 115.281 120.429 111.152 109.671 111.152C103.26 111.152 97.609 112.728 92.719 115.879C87.9377 119.03 84.1887 123.323 81.472 128.756C78.864 134.189 77.56 140.438 77.56 147.501C77.56 154.347 79.027 160.541 81.961 166.083C84.895 171.516 88.9157 175.863 94.023 179.123C99.239 182.274 105.27 183.85 112.116 183.85C116.571 183.85 120.755 183.198 124.667 181.894C128.688 180.59 132.165 178.58 135.099 175.863C136.077 174.994 137.164 174.505 138.359 174.396C139.554 174.287 140.587 174.668 141.456 175.537C142.543 176.515 143.086 177.656 143.086 178.96C143.195 180.155 142.76 181.188 141.782 182.057C133.849 189.338 123.961 192.978 112.116 192.978ZM174.182 192C172.769 192 171.574 191.565 170.596 190.696C169.727 189.718 169.292 188.523 169.292 187.11V107.729C169.292 106.208 169.727 105.012 170.596 104.143C171.574 103.274 172.769 102.839 174.182 102.839C175.703 102.839 176.899 103.274 177.768 104.143C178.637 105.012 179.072 106.208 179.072 107.729V116.205C182.658 111.75 187.113 108.218 192.438 105.61C197.871 103.002 203.739 101.698 210.042 101.698C217.866 101.698 224.875 103.328 231.069 106.588C237.372 109.739 242.316 114.412 245.902 120.606C249.488 126.691 251.281 134.244 251.281 143.263V187.11C251.281 188.523 250.792 189.718 249.814 190.696C248.945 191.565 247.804 192 246.391 192C244.978 192 243.783 191.565 242.805 190.696C241.936 189.718 241.501 188.523 241.501 187.11V143.263C241.501 136.091 240.088 130.169 237.263 125.496C234.546 120.823 230.797 117.346 226.016 115.064C221.343 112.673 216.019 111.478 210.042 111.478C204.174 111.478 198.904 112.619 194.231 114.901C189.558 117.074 185.864 120.117 183.147 124.029C180.43 127.941 179.072 132.342 179.072 137.232V187.11C179.072 188.523 178.637 189.718 177.768 190.696C176.899 191.565 175.703 192 174.182 192ZM174.182 152.88C172.769 152.88 171.574 152.445 170.596 151.576C169.727 150.598 169.292 149.403 169.292 147.99V69.587C169.292 68.0657 169.727 66.8703 170.596 66.001C171.574 65.1317 172.769 64.697 174.182 64.697C175.703 64.697 176.899 65.1317 177.768 66.001C178.637 66.8703 179.072 68.0657 179.072 69.587V147.99C179.072 149.403 178.637 150.598 177.768 151.576C176.899 152.445 175.703 152.88 174.182 152.88ZM319.717 192.978C311.024 192.978 303.2 191.022 296.245 187.11C289.399 183.089 283.966 177.656 279.945 170.81C276.033 163.855 274.077 156.086 274.077 147.501C274.077 138.808 276.033 131.038 279.945 124.192C283.966 117.237 289.399 111.804 296.245 107.892C303.2 103.871 311.024 101.861 319.717 101.861C328.41 101.861 336.18 103.871 343.026 107.892C349.872 111.804 355.251 117.237 359.163 124.192C363.184 131.038 365.194 138.808 365.194 147.501V187.11C365.194 188.523 364.759 189.718 363.89 190.696C363.021 191.565 361.825 192 360.304 192C358.891 192 357.696 191.565 356.718 190.696C355.849 189.718 355.414 188.523 355.414 187.11V174.396C351.828 180.047 346.938 184.556 340.744 187.925C334.55 191.294 327.541 192.978 319.717 192.978ZM319.717 183.85C326.563 183.85 332.648 182.274 337.973 179.123C343.406 175.863 347.644 171.516 350.687 166.083C353.838 160.541 355.414 154.347 355.414 147.501C355.414 140.546 353.838 134.352 350.687 128.919C347.644 123.377 343.406 119.03 337.973 115.879C332.648 112.619 326.563 110.989 319.717 110.989C312.98 110.989 306.894 112.619 301.461 115.879C296.028 119.03 291.735 123.377 288.584 128.919C285.433 134.352 283.857 140.546 283.857 147.501C283.857 154.347 285.433 160.541 288.584 166.083C291.735 171.516 296.028 175.863 301.461 179.123C306.894 182.274 312.98 183.85 319.717 183.85ZM426.109 192C420.132 191.891 414.807 190.533 410.135 187.925C405.462 185.208 401.822 181.514 399.214 176.841C396.606 172.06 395.302 166.681 395.302 160.704V114.901H382.588C381.284 114.901 380.197 114.521 379.328 113.76C378.567 112.891 378.187 111.804 378.187 110.5C378.187 109.196 378.567 108.164 379.328 107.403C380.197 106.534 381.284 106.099 382.588 106.099H395.302V79.53C395.302 78.0087 395.736 76.8133 396.606 75.944C397.584 74.966 398.779 74.477 400.192 74.477C401.713 74.477 402.908 74.966 403.778 75.944C404.756 76.8133 405.245 78.0087 405.245 79.53V106.099H426.761C428.065 106.099 429.097 106.534 429.858 107.403C430.727 108.164 431.162 109.196 431.162 110.5C431.162 111.804 430.727 112.891 429.858 113.76C429.097 114.521 428.065 114.901 426.761 114.901H405.245V160.704C405.245 167.007 407.201 172.168 411.113 176.189C415.025 180.101 420.078 182.057 426.272 182.057H429.858C431.379 182.057 432.574 182.546 433.444 183.524C434.422 184.393 434.911 185.589 434.911 187.11C434.911 188.523 434.422 189.718 433.444 190.696C432.574 191.565 431.379 192 429.858 192H426.109ZM118.147 356.978C109.671 356.978 102.01 355.022 95.164 351.11C88.318 347.198 82.8847 341.873 78.864 335.136C74.952 328.399 72.8873 320.792 72.67 312.316V233.587C72.67 232.066 73.1047 230.87 73.974 230.001C74.952 229.132 76.1473 228.697 77.56 228.697C79.0813 228.697 80.2767 229.132 81.146 230.001C82.0153 230.87 82.45 232.066 82.45 233.587V284.443C85.9273 278.792 90.763 274.283 96.957 270.914C103.26 267.545 110.323 265.861 118.147 265.861C126.84 265.861 134.61 267.871 141.456 271.892C148.411 275.804 153.844 281.183 157.756 288.029C161.777 294.875 163.787 302.645 163.787 311.338C163.787 320.031 161.777 327.855 157.756 334.81C153.844 341.656 148.411 347.089 141.456 351.11C134.61 355.022 126.84 356.978 118.147 356.978ZM118.147 347.85C124.993 347.85 131.078 346.274 136.403 343.123C141.836 339.863 146.129 335.516 149.28 330.083C152.431 324.541 154.007 318.293 154.007 311.338C154.007 304.383 152.431 298.189 149.28 292.756C146.129 287.323 141.836 283.03 136.403 279.879C131.078 276.619 124.993 274.989 118.147 274.989C111.41 274.989 105.324 276.619 99.891 279.879C94.4577 283.03 90.1653 287.323 87.014 292.756C83.9713 298.189 82.45 304.383 82.45 311.338C82.45 318.293 83.9713 324.541 87.014 330.083C90.1653 335.516 94.4577 339.863 99.891 343.123C105.324 346.274 111.41 347.85 118.147 347.85ZM228.984 356.978C220.291 356.978 212.467 355.022 205.512 351.11C198.666 347.089 193.233 341.656 189.212 334.81C185.3 327.855 183.344 320.086 183.344 311.501C183.344 302.808 185.3 295.038 189.212 288.192C193.233 281.237 198.666 275.804 205.512 271.892C212.467 267.871 220.291 265.861 228.984 265.861C237.678 265.861 245.447 267.871 252.293 271.892C259.139 275.804 264.518 281.237 268.43 288.192C272.451 295.038 274.461 302.808 274.461 311.501C274.461 320.086 272.451 327.855 268.43 334.81C264.518 341.656 259.139 347.089 252.293 351.11C245.447 355.022 237.678 356.978 228.984 356.978ZM228.984 347.85C235.83 347.85 241.916 346.274 247.24 343.123C252.674 339.863 256.912 335.516 259.954 330.083C263.106 324.541 264.681 318.347 264.681 311.501C264.681 304.546 263.106 298.352 259.954 292.919C256.912 287.377 252.674 283.03 247.24 279.879C241.916 276.619 235.83 274.989 228.984 274.989C222.247 274.989 216.162 276.619 210.728 279.879C205.295 283.03 201.003 287.377 197.851 292.919C194.7 298.352 193.124 304.546 193.124 311.501C193.124 318.347 194.7 324.541 197.851 330.083C201.003 335.516 205.295 339.863 210.728 343.123C216.162 346.274 222.247 347.85 228.984 347.85ZM335.376 356C329.4 355.891 324.075 354.533 319.402 351.925C314.73 349.208 311.089 345.514 308.481 340.841C305.873 336.06 304.569 330.681 304.569 324.704V278.901H291.855C290.551 278.901 289.465 278.521 288.595 277.76C287.835 276.891 287.454 275.804 287.454 274.5C287.454 273.196 287.835 272.164 288.595 271.403C289.465 270.534 290.551 270.099 291.855 270.099H304.569V243.53C304.569 242.009 305.004 240.813 305.873 239.944C306.851 238.966 308.047 238.477 309.459 238.477C310.981 238.477 312.176 238.966 313.045 239.944C314.023 240.813 314.512 242.009 314.512 243.53V270.099H336.028C337.332 270.099 338.365 270.534 339.125 271.403C339.995 272.164 340.429 273.196 340.429 274.5C340.429 275.804 339.995 276.891 339.125 277.76C338.365 278.521 337.332 278.901 336.028 278.901H314.512V324.704C314.512 331.007 316.468 336.168 320.38 340.189C324.292 344.101 329.345 346.057 335.539 346.057H339.125C340.647 346.057 341.842 346.546 342.711 347.524C343.689 348.393 344.178 349.589 344.178 351.11C344.178 352.523 343.689 353.718 342.711 354.696C341.842 355.565 340.647 356 339.125 356H335.376Z" fill="white"/>
</svg>
