<svg width="500" height="500" viewBox="0 0 500 500" fill="none" xmlns="http://www.w3.org/2000/svg">
<rect width="500" height="500" fill="white"/>
<path d="M111.956 193.341C103.48 193.341 95.8737 191.33 89.1363 187.31C82.5077 183.289 77.2373 177.856 73.3253 171.01C69.522 164.164 67.6203 156.448 67.6203 147.864C67.6203 139.17 69.4133 131.401 72.9993 124.555C76.5853 117.709 81.5297 112.33 87.8323 108.418C94.135 104.397 101.361 102.387 109.511 102.387C116.466 102.387 122.823 103.745 128.582 106.462C134.342 109.07 139.34 113.09 143.578 118.524C144.448 119.61 144.774 120.751 144.556 121.947C144.339 123.142 143.633 124.12 142.437 124.881C141.459 125.641 140.373 125.967 139.177 125.859C137.982 125.641 136.95 124.989 136.08 123.903C129.126 115.644 120.269 111.515 109.511 111.515C103.1 111.515 97.4493 113.09 92.5593 116.242C87.778 119.393 84.029 123.685 81.3123 129.119C78.7043 134.552 77.4003 140.8 77.4003 147.864C77.4003 154.71 78.8673 160.904 81.8013 166.446C84.7353 171.879 88.756 176.226 93.8633 179.486C99.0793 182.637 105.11 184.213 111.956 184.213C116.412 184.213 120.595 183.561 124.507 182.257C128.528 180.953 132.005 178.942 134.939 176.226C135.917 175.356 137.004 174.867 138.199 174.759C139.395 174.65 140.427 175.03 141.296 175.9C142.383 176.878 142.926 178.019 142.926 179.323C143.035 180.518 142.6 181.55 141.622 182.42C133.69 189.7 123.801 193.341 111.956 193.341ZM174.022 192.363C172.61 192.363 171.414 191.928 170.436 191.059C169.567 190.081 169.132 188.885 169.132 187.473V108.092C169.132 106.57 169.567 105.375 170.436 104.506C171.414 103.636 172.61 103.202 174.022 103.202C175.544 103.202 176.739 103.636 177.608 104.506C178.478 105.375 178.912 106.57 178.912 108.092V116.568C182.498 112.112 186.954 108.581 192.278 105.973C197.712 103.365 203.58 102.061 209.882 102.061C217.706 102.061 224.715 103.691 230.909 106.951C237.212 110.102 242.156 114.775 245.742 120.969C249.328 127.054 251.121 134.606 251.121 143.626V187.473C251.121 188.885 250.632 190.081 249.654 191.059C248.785 191.928 247.644 192.363 246.231 192.363C244.819 192.363 243.623 191.928 242.645 191.059C241.776 190.081 241.341 188.885 241.341 187.473V143.626C241.341 136.454 239.929 130.531 237.103 125.859C234.387 121.186 230.638 117.709 225.856 115.427C221.184 113.036 215.859 111.841 209.882 111.841C204.014 111.841 198.744 112.982 194.071 115.264C189.399 117.437 185.704 120.48 182.987 124.392C180.271 128.304 178.912 132.705 178.912 137.595V187.473C178.912 188.885 178.478 190.081 177.608 191.059C176.739 191.928 175.544 192.363 174.022 192.363ZM174.022 153.243C172.61 153.243 171.414 152.808 170.436 151.939C169.567 150.961 169.132 149.765 169.132 148.353V69.9498C169.132 68.4285 169.567 67.2331 170.436 66.3638C171.414 65.4945 172.61 65.0598 174.022 65.0598C175.544 65.0598 176.739 65.4945 177.608 66.3638C178.478 67.2331 178.912 68.4285 178.912 69.9498V148.353C178.912 149.765 178.478 150.961 177.608 151.939C176.739 152.808 175.544 153.243 174.022 153.243ZM319.557 193.341C310.864 193.341 303.04 191.385 296.085 187.473C289.239 183.452 283.806 178.019 279.785 171.173C275.873 164.218 273.917 156.448 273.917 147.864C273.917 139.17 275.873 131.401 279.785 124.555C283.806 117.6 289.239 112.167 296.085 108.255C303.04 104.234 310.864 102.224 319.557 102.224C328.251 102.224 336.02 104.234 342.866 108.255C349.712 112.167 355.091 117.6 359.003 124.555C363.024 131.401 365.034 139.17 365.034 147.864V187.473C365.034 188.885 364.6 190.081 363.73 191.059C362.861 191.928 361.666 192.363 360.144 192.363C358.732 192.363 357.536 191.928 356.558 191.059C355.689 190.081 355.254 188.885 355.254 187.473V174.759C351.668 180.409 346.778 184.919 340.584 188.288C334.39 191.656 327.381 193.341 319.557 193.341ZM319.557 184.213C326.403 184.213 332.489 182.637 337.813 179.486C343.247 176.226 347.485 171.879 350.527 166.446C353.679 160.904 355.254 154.71 355.254 147.864C355.254 140.909 353.679 134.715 350.527 129.282C347.485 123.74 343.247 119.393 337.813 116.242C332.489 112.982 326.403 111.352 319.557 111.352C312.82 111.352 306.735 112.982 301.301 116.242C295.868 119.393 291.576 123.74 288.424 129.282C285.273 134.715 283.697 140.909 283.697 147.864C283.697 154.71 285.273 160.904 288.424 166.446C291.576 171.879 295.868 176.226 301.301 179.486C306.735 182.637 312.82 184.213 319.557 184.213ZM425.949 192.363C419.972 192.254 414.648 190.896 409.975 188.288C405.302 185.571 401.662 181.876 399.054 177.204C396.446 172.422 395.142 167.043 395.142 161.067V115.264H382.428C381.124 115.264 380.037 114.883 379.168 114.123C378.407 113.253 378.027 112.167 378.027 110.863C378.027 109.559 378.407 108.526 379.168 107.766C380.037 106.896 381.124 106.462 382.428 106.462H395.142V79.8928C395.142 78.3715 395.577 77.1761 396.446 76.3068C397.424 75.3288 398.619 74.8398 400.032 74.8398C401.553 74.8398 402.749 75.3288 403.618 76.3068C404.596 77.1761 405.085 78.3715 405.085 79.8928V106.462H426.601C427.905 106.462 428.937 106.896 429.698 107.766C430.567 108.526 431.002 109.559 431.002 110.863C431.002 112.167 430.567 113.253 429.698 114.123C428.937 114.883 427.905 115.264 426.601 115.264H405.085V161.067C405.085 167.369 407.041 172.531 410.953 176.552C414.865 180.464 419.918 182.42 426.112 182.42H429.698C431.219 182.42 432.415 182.909 433.284 183.887C434.262 184.756 434.751 185.951 434.751 187.473C434.751 188.885 434.262 190.081 433.284 191.059C432.415 191.928 431.219 192.363 429.698 192.363H425.949ZM117.987 357.341C109.511 357.341 101.85 355.385 95.0043 351.473C88.1583 347.561 82.725 342.236 78.7043 335.499C74.7923 328.761 72.7277 321.155 72.5103 312.679V233.95C72.5103 232.428 72.945 231.233 73.8143 230.364C74.7923 229.494 75.9877 229.06 77.4003 229.06C78.9217 229.06 80.117 229.494 80.9863 230.364C81.8557 231.233 82.2903 232.428 82.2903 233.95V284.806C85.7677 279.155 90.6033 274.645 96.7973 271.277C103.1 267.908 110.163 266.224 117.987 266.224C126.681 266.224 134.45 268.234 141.296 272.255C148.251 276.167 153.684 281.546 157.596 288.392C161.617 295.238 163.627 303.007 163.627 311.701C163.627 320.394 161.617 328.218 157.596 335.173C153.684 342.019 148.251 347.452 141.296 351.473C134.45 355.385 126.681 357.341 117.987 357.341ZM117.987 348.213C124.833 348.213 130.919 346.637 136.243 343.486C141.677 340.226 145.969 335.879 149.12 330.446C152.272 324.904 153.847 318.655 153.847 311.701C153.847 304.746 152.272 298.552 149.12 293.119C145.969 287.685 141.677 283.393 136.243 280.242C130.919 276.982 124.833 275.352 117.987 275.352C111.25 275.352 105.165 276.982 99.7313 280.242C94.298 283.393 90.0057 287.685 86.8543 293.119C83.8117 298.552 82.2903 304.746 82.2903 311.701C82.2903 318.655 83.8117 324.904 86.8543 330.446C90.0057 335.879 94.298 340.226 99.7313 343.486C105.165 346.637 111.25 348.213 117.987 348.213ZM228.825 357.341C220.131 357.341 212.307 355.385 205.353 351.473C198.507 347.452 193.073 342.019 189.053 335.173C185.141 328.218 183.185 320.448 183.185 311.864C183.185 303.17 185.141 295.401 189.053 288.555C193.073 281.6 198.507 276.167 205.353 272.255C212.307 268.234 220.131 266.224 228.825 266.224C237.518 266.224 245.288 268.234 252.134 272.255C258.98 276.167 264.359 281.6 268.271 288.555C272.291 295.401 274.302 303.17 274.302 311.864C274.302 320.448 272.291 328.218 268.271 335.173C264.359 342.019 258.98 347.452 252.134 351.473C245.288 355.385 237.518 357.341 228.825 357.341ZM228.825 348.213C235.671 348.213 241.756 346.637 247.081 343.486C252.514 340.226 256.752 335.879 259.795 330.446C262.946 324.904 264.522 318.71 264.522 311.864C264.522 304.909 262.946 298.715 259.795 293.282C256.752 287.74 252.514 283.393 247.081 280.242C241.756 276.982 235.671 275.352 228.825 275.352C222.087 275.352 216.002 276.982 210.569 280.242C205.135 283.393 200.843 287.74 197.692 293.282C194.54 298.715 192.965 304.909 192.965 311.864C192.965 318.71 194.54 324.904 197.692 330.446C200.843 335.879 205.135 340.226 210.569 343.486C216.002 346.637 222.087 348.213 228.825 348.213ZM335.217 356.363C329.24 356.254 323.915 354.896 319.243 352.288C314.57 349.571 310.93 345.876 308.322 341.204C305.714 336.422 304.41 331.043 304.41 325.067V279.264H291.696C290.392 279.264 289.305 278.883 288.436 278.123C287.675 277.253 287.295 276.167 287.295 274.863C287.295 273.559 287.675 272.526 288.436 271.766C289.305 270.896 290.392 270.462 291.696 270.462H304.41V243.893C304.41 242.371 304.844 241.176 305.714 240.307C306.692 239.329 307.887 238.84 309.3 238.84C310.821 238.84 312.016 239.329 312.886 240.307C313.864 241.176 314.353 242.371 314.353 243.893V270.462H335.869C337.173 270.462 338.205 270.896 338.966 271.766C339.835 272.526 340.27 273.559 340.27 274.863C340.27 276.167 339.835 277.253 338.966 278.123C338.205 278.883 337.173 279.264 335.869 279.264H314.353V325.067C314.353 331.369 316.309 336.531 320.221 340.552C324.133 344.464 329.186 346.42 335.38 346.42H338.966C340.487 346.42 341.682 346.909 342.552 347.887C343.53 348.756 344.019 349.951 344.019 351.473C344.019 352.885 343.53 354.081 342.552 355.059C341.682 355.928 340.487 356.363 338.966 356.363H335.217Z" fill="black"/>
</svg>
