<svg width="500" height="500" viewBox="0 0 500 500" fill="none" xmlns="http://www.w3.org/2000/svg">
<g clip-path="url(#clip0)">
<rect width="500" height="500" fill="white"/>
<path d="M208.195 325.641C186.008 87.5474 -33.2481 64.8008 -33.2481 64.8008" stroke="black" stroke-width="9" stroke-linecap="round"/>
<path d="M277.496 218.073C299.683 456.166 518.939 478.913 518.939 478.913" stroke="black" stroke-width="9" stroke-linecap="round"/>
<path d="M149.421 96.6322C149.421 121.87 128.962 142.329 103.724 142.329C78.4867 142.329 58.0276 121.87 58.0276 96.6322C58.0276 72.4627 76.7917 52.6757 100.547 51.0443C104.491 61.8941 109.534 69.1525 115.162 74.126C121.326 79.5723 127.853 81.9714 133.423 83.5726C134.699 83.9393 135.945 84.2694 137.104 84.5764C137.198 84.6014 137.291 84.6261 137.384 84.6507C138.641 84.984 139.783 85.2896 140.856 85.611C143.03 86.2622 144.629 86.898 145.843 87.6749C146.973 88.3976 147.773 89.2454 148.344 90.439C148.947 91.6986 149.421 93.6129 149.421 96.6322Z" fill="#FFC758" stroke="black" stroke-width="9"/>
<path d="M473.775 421.909C473.775 447.146 453.316 467.605 428.078 467.605C402.841 467.605 382.382 447.146 382.382 421.909C382.382 397.739 401.146 377.952 424.901 376.321C428.845 387.17 433.888 394.429 439.516 399.402C445.68 404.849 452.207 407.248 457.777 408.849C459.053 409.216 460.299 409.546 461.458 409.853C461.552 409.878 461.645 409.902 461.738 409.927C462.995 410.26 464.137 410.566 465.21 410.887C467.384 411.539 468.983 412.174 470.197 412.951C471.327 413.674 472.127 414.522 472.698 415.715C473.301 416.975 473.775 418.889 473.775 421.909Z" fill="#FFC758" stroke="black" stroke-width="9"/>
<path d="M277.201 218.395L208.369 326.252" stroke="white" stroke-width="9" stroke-linecap="round" stroke-linejoin="round"/>
<circle cx="250" cy="250" r="123.382" fill="#FFC758" stroke="black" stroke-width="9"/>
<path d="M373.382 251C373.382 319.142 318.142 374.382 250 374.382C181.858 374.382 126.618 319.142 126.618 251C126.618 183.941 180.116 129.377 246.761 127.66C256.741 157.18 269.664 175.997 283.75 188.444C298.327 201.325 313.812 207.077 327.585 211.036C330.762 211.949 333.869 212.772 336.831 213.557L337.537 213.744C340.731 214.591 343.741 215.396 346.595 216.251C352.332 217.969 357.144 219.81 361.057 222.314C364.886 224.764 367.873 227.863 369.956 232.216C372.07 236.635 373.382 242.618 373.382 251Z" fill="white" stroke="black" stroke-width="9"/>
<path d="M126.687 102.167C126.687 127.405 106.228 147.864 80.9901 147.864C55.7526 147.864 35.2935 127.405 35.2935 102.167C35.2935 77.9978 54.0576 58.2108 77.813 56.5794C81.7565 67.4293 86.7995 74.6876 92.4279 79.6611C98.5915 85.1075 105.119 87.5065 110.689 89.1077C111.965 89.4745 113.211 89.8046 114.37 90.1116C114.464 90.1365 114.557 90.1613 114.65 90.1859C115.907 90.5191 117.049 90.8247 118.122 91.1461C120.295 91.7974 121.895 92.4331 123.109 93.21C124.239 93.9327 125.039 94.7806 125.61 95.9742C126.213 97.2338 126.687 99.148 126.687 102.167Z" fill="white" stroke="black" stroke-width="9"/>
<path d="M450.088 428.079C450.088 453.316 429.629 473.775 404.391 473.775C379.154 473.775 358.695 453.316 358.695 428.079C358.695 403.909 377.459 384.122 401.214 382.491C405.158 393.34 410.201 400.599 415.829 405.572C421.993 411.019 428.52 413.418 434.09 415.019C435.366 415.386 436.612 415.716 437.771 416.023C437.865 416.048 437.959 416.072 438.051 416.097C439.308 416.43 440.45 416.736 441.523 417.057C443.697 417.709 445.297 418.344 446.511 419.121C447.64 419.844 448.44 420.692 449.011 421.885C449.614 423.145 450.088 425.059 450.088 428.079Z" fill="white" stroke="black" stroke-width="9"/>
<path d="M81.885 123.338C79.3183 123.338 76.935 122.953 74.735 122.183C72.5717 121.376 70.885 120.368 69.675 119.158C69.125 118.571 68.8867 117.911 68.96 117.178C69.07 116.408 69.4367 115.785 70.06 115.308C70.7933 114.721 71.5083 114.483 72.205 114.593C72.9383 114.666 73.5617 114.978 74.075 115.528C74.6983 116.225 75.6883 116.885 77.045 117.508C78.4383 118.095 79.9783 118.388 81.665 118.388C83.7917 118.388 85.405 118.04 86.505 117.343C87.6417 116.646 88.2283 115.748 88.265 114.648C88.3017 113.548 87.77 112.595 86.67 111.788C85.6067 110.981 83.645 110.321 80.785 109.808C77.0817 109.075 74.3867 107.975 72.7 106.508C71.05 105.041 70.225 103.245 70.225 101.118C70.225 99.2482 70.775 97.7082 71.875 96.4982C72.975 95.2515 74.3867 94.3348 76.11 93.7482C77.8333 93.1248 79.63 92.8132 81.5 92.8132C83.92 92.8132 86.065 93.1982 87.935 93.9682C89.805 94.7382 91.29 95.8015 92.39 97.1582C92.9033 97.7448 93.1417 98.3682 93.105 99.0282C93.0683 99.6515 92.7567 100.183 92.17 100.623C91.5833 101.026 90.8867 101.155 90.08 101.008C89.2733 100.861 88.595 100.531 88.045 100.018C87.1283 99.1382 86.1383 98.5332 85.075 98.2032C84.0117 97.8732 82.7833 97.7082 81.39 97.7082C79.7767 97.7082 78.4017 97.9832 77.265 98.5332C76.165 99.0832 75.615 99.8898 75.615 100.953C75.615 101.613 75.78 102.218 76.11 102.768C76.4767 103.281 77.1733 103.758 78.2 104.198C79.2267 104.601 80.73 105.005 82.71 105.408C86.8533 106.215 89.7133 107.37 91.29 108.873C92.9033 110.34 93.71 112.155 93.71 114.318C93.71 116.005 93.2517 117.526 92.335 118.883C91.455 120.24 90.135 121.321 88.375 122.128C86.6517 122.935 84.4883 123.338 81.885 123.338Z" fill="black"/>
<path d="M405.287 448.713C402.72 448.713 400.337 448.328 398.137 447.558C395.973 446.751 394.287 445.743 393.077 444.533C392.527 443.946 392.288 443.286 392.362 442.553C392.472 441.783 392.838 441.16 393.462 440.683C394.195 440.096 394.91 439.858 395.607 439.968C396.34 440.041 396.963 440.353 397.477 440.903C398.1 441.6 399.09 442.26 400.447 442.883C401.84 443.47 403.38 443.763 405.067 443.763C407.193 443.763 408.807 443.415 409.907 442.718C411.043 442.021 411.63 441.123 411.667 440.023C411.703 438.923 411.172 437.97 410.072 437.163C409.008 436.356 407.047 435.696 404.187 435.183C400.483 434.45 397.788 433.35 396.102 431.883C394.452 430.416 393.627 428.62 393.627 426.493C393.627 424.623 394.177 423.083 395.277 421.873C396.377 420.626 397.788 419.71 399.512 419.123C401.235 418.5 403.032 418.188 404.902 418.188C407.322 418.188 409.467 418.573 411.337 419.343C413.207 420.113 414.692 421.176 415.792 422.533C416.305 423.12 416.543 423.743 416.507 424.403C416.47 425.026 416.158 425.558 415.572 425.998C414.985 426.401 414.288 426.53 413.482 426.383C412.675 426.236 411.997 425.906 411.447 425.393C410.53 424.513 409.54 423.908 408.477 423.578C407.413 423.248 406.185 423.083 404.792 423.083C403.178 423.083 401.803 423.358 400.667 423.908C399.567 424.458 399.017 425.265 399.017 426.328C399.017 426.988 399.182 427.593 399.512 428.143C399.878 428.656 400.575 429.133 401.602 429.573C402.628 429.976 404.132 430.38 406.112 430.783C410.255 431.59 413.115 432.745 414.692 434.248C416.305 435.715 417.112 437.53 417.112 439.693C417.112 441.38 416.653 442.901 415.737 444.258C414.857 445.615 413.537 446.696 411.777 447.503C410.053 448.31 407.89 448.713 405.287 448.713Z" fill="black"/>
<circle cx="214.978" cy="255.979" r="50.234" stroke="black" stroke-width="9"/>
<path d="M332.133 248.898L295.585 247.499" stroke="black" stroke-width="9" stroke-linecap="round"/>
<path d="M310.771 306.409L283.691 294.579" stroke="black" stroke-width="9" stroke-linecap="round"/>
<path d="M262.028 338.437L255.137 324.237" stroke="black" stroke-width="9" stroke-linecap="round"/>
<circle cx="205.195" cy="261.631" r="20.2204" fill="black"/>
</g>
<defs>
<clipPath id="clip0">
<rect width="500" height="500" fill="white"/>
</clipPath>
</defs>
</svg>
