<svg width="500" height="500" viewBox="0 0 500 500" fill="none" xmlns="http://www.w3.org/2000/svg">
<rect width="500" height="500" fill="white"/>
<path d="M255.5 97.75C255.5 94.7124 253.038 92.25 250 92.25C246.962 92.25 244.5 94.7124 244.5 97.75H255.5ZM244.5 419.082C244.5 422.12 246.962 424.582 250 424.582C253.038 424.582 255.5 422.12 255.5 419.082H244.5ZM244.5 97.75V419.082H255.5V97.75H244.5Z" fill="black"/>
<path d="M89.334 252.915C86.2964 252.915 83.834 255.377 83.834 258.415C83.834 261.453 86.2964 263.915 89.334 263.915V252.915ZM410.666 263.915C413.704 263.915 416.166 261.453 416.166 258.415C416.166 255.377 413.704 252.915 410.666 252.915V263.915ZM89.334 263.915H410.666V252.915H89.334V263.915Z" fill="black"/>
<path d="M116.082 217.763L195.095 104.561" stroke="black" stroke-width="11" stroke-linecap="round" stroke-linejoin="round"/>
<path d="M195.095 204.087L130.273 117.19" stroke="black" stroke-width="11" stroke-linecap="round" stroke-linejoin="round"/>
<path d="M315.824 405.876L392.148 311.882" stroke="black" stroke-width="11" stroke-linecap="round" stroke-linejoin="round"/>
<path d="M402.555 405.875L301.966 317.261" stroke="black" stroke-width="11" stroke-linecap="round" stroke-linejoin="round"/>
<path d="M400.322 170.587C400.322 192.969 379.481 212.263 352.26 212.263C325.04 212.263 304.199 192.969 304.199 170.587C304.199 148.206 325.04 128.912 352.26 128.912C379.481 128.912 400.322 148.206 400.322 170.587Z" stroke="black" stroke-width="11"/>
<path d="M130.625 155.9L389.922 345.341" stroke="#FFC758" stroke-width="11" stroke-linecap="round" stroke-linejoin="round"/>
<circle cx="349.178" cy="159.943" r="6.33245" fill="black"/>
<circle cx="366.37" cy="168.651" r="6.33245" fill="black"/>
</svg>
