<svg width="500" height="500" viewBox="0 0 500 500" fill="none" xmlns="http://www.w3.org/2000/svg">
<rect width="500" height="500" fill="white"/>
<path d="M95.1 220C88.906 220 83.7987 217.501 79.778 212.502C75.866 207.503 73.91 201.038 73.91 193.105V97.587C73.91 96.0657 74.3447 94.8703 75.214 94.001C76.192 93.1317 77.3873 92.697 78.8 92.697C80.3213 92.697 81.5167 93.1317 82.386 94.001C83.2553 94.8703 83.69 96.0657 83.69 97.587V193.105C83.69 198.104 84.7223 202.233 86.787 205.493C88.9603 208.644 91.7313 210.22 95.1 210.22H99.175C101.892 210.22 103.25 211.85 103.25 215.11C103.25 216.523 102.815 217.718 101.946 218.696C101.077 219.565 99.8813 220 98.36 220H95.1ZM156.919 220.978C148.226 220.978 140.402 219.022 133.447 215.11C126.601 211.089 121.168 205.656 117.147 198.81C113.235 191.855 111.279 184.086 111.279 175.501C111.279 166.808 113.235 159.038 117.147 152.192C121.168 145.237 126.601 139.804 133.447 135.892C140.402 131.871 148.226 129.861 156.919 129.861C165.612 129.861 173.382 131.871 180.228 135.892C187.074 139.804 192.453 145.237 196.365 152.192C200.386 159.038 202.396 166.808 202.396 175.501V215.11C202.396 216.523 201.961 217.718 201.092 218.696C200.223 219.565 199.027 220 197.506 220C196.093 220 194.898 219.565 193.92 218.696C193.051 217.718 192.616 216.523 192.616 215.11V202.396C189.03 208.047 184.14 212.556 177.946 215.925C171.752 219.294 164.743 220.978 156.919 220.978ZM156.919 211.85C163.765 211.85 169.85 210.274 175.175 207.123C180.608 203.863 184.846 199.516 187.889 194.083C191.04 188.541 192.616 182.347 192.616 175.501C192.616 168.546 191.04 162.352 187.889 156.919C184.846 151.377 180.608 147.03 175.175 143.879C169.85 140.619 163.765 138.989 156.919 138.989C150.182 138.989 144.096 140.619 138.663 143.879C133.23 147.03 128.937 151.377 125.786 156.919C122.635 162.352 121.059 168.546 121.059 175.501C121.059 182.347 122.635 188.541 125.786 194.083C128.937 199.516 133.23 203.863 138.663 207.123C144.096 210.274 150.182 211.85 156.919 211.85ZM231.689 220C230.276 220 229.081 219.565 228.103 218.696C227.234 217.718 226.799 216.523 226.799 215.11V135.729C226.799 134.208 227.234 133.012 228.103 132.143C229.081 131.274 230.276 130.839 231.689 130.839C233.21 130.839 234.406 131.274 235.275 132.143C236.144 133.012 236.579 134.208 236.579 135.729V144.205C240.165 139.75 244.62 136.218 249.945 133.61C255.378 131.002 261.246 129.698 267.549 129.698C275.373 129.698 282.382 131.328 288.576 134.588C294.879 137.739 299.823 142.412 303.409 148.606C306.995 154.691 308.788 162.244 308.788 171.263V215.11C308.788 216.523 308.299 217.718 307.321 218.696C306.452 219.565 305.311 220 303.898 220C302.485 220 301.29 219.565 300.312 218.696C299.443 217.718 299.008 216.523 299.008 215.11V171.263C299.008 164.091 297.595 158.169 294.77 153.496C292.053 148.823 288.304 145.346 283.523 143.064C278.85 140.673 273.526 139.478 267.549 139.478C261.681 139.478 256.411 140.619 251.738 142.901C247.065 145.074 243.371 148.117 240.654 152.029C237.937 155.941 236.579 160.342 236.579 165.232V215.11C236.579 216.523 236.144 217.718 235.275 218.696C234.406 219.565 233.21 220 231.689 220ZM377.224 220.978C368.53 220.978 360.706 219.022 353.752 215.11C346.906 211.089 341.472 205.656 337.452 198.81C333.54 191.855 331.584 184.031 331.584 175.338C331.584 166.645 333.54 158.875 337.452 152.029C341.472 145.183 346.906 139.804 353.752 135.892C360.706 131.871 368.53 129.861 377.224 129.861C385.048 129.861 392.057 131.545 398.251 134.914C404.553 138.283 409.443 142.792 412.921 148.443V97.587C412.921 96.0657 413.355 94.8703 414.225 94.001C415.203 93.1317 416.398 92.697 417.811 92.697C419.332 92.697 420.527 93.1317 421.397 94.001C422.266 94.8703 422.701 96.0657 422.701 97.587V176.316C422.592 184.792 420.527 192.399 416.507 199.136C412.486 205.873 407.053 211.198 400.207 215.11C393.469 219.022 385.808 220.978 377.224 220.978ZM377.224 211.85C384.07 211.85 390.155 210.274 395.48 207.123C400.913 203.863 405.151 199.516 408.194 194.083C411.345 188.541 412.921 182.293 412.921 175.338C412.921 168.383 411.345 162.189 408.194 156.756C405.151 151.323 400.913 147.03 395.48 143.879C390.155 140.619 384.07 138.989 377.224 138.989C370.486 138.989 364.401 140.619 358.968 143.879C353.534 147.03 349.242 151.323 346.091 156.756C342.939 162.189 341.364 168.383 341.364 175.338C341.364 182.293 342.939 188.541 346.091 194.083C349.242 199.516 353.534 203.863 358.968 207.123C364.401 210.274 370.486 211.85 377.224 211.85ZM85.32 384C83.9073 384 82.712 383.565 81.734 382.696C80.8647 381.718 80.43 380.523 80.43 379.11V299.729C80.43 298.208 80.8647 297.012 81.734 296.143C82.712 295.274 83.9073 294.839 85.32 294.839C86.8413 294.839 88.0367 295.274 88.906 296.143C89.7753 297.012 90.21 298.208 90.21 299.729V379.11C90.21 380.523 89.7753 381.718 88.906 382.696C88.0367 383.565 86.8413 384 85.32 384ZM85.157 276.094C83.0923 276.094 81.2993 275.388 79.778 273.975C78.3653 272.454 77.659 270.606 77.659 268.433C77.659 265.934 78.4197 264.086 79.941 262.891C81.571 261.587 83.364 260.935 85.32 260.935C87.1673 260.935 88.8517 261.587 90.373 262.891C92.003 264.086 92.818 265.934 92.818 268.433C92.818 270.606 92.0573 272.454 90.536 273.975C89.1233 275.388 87.3303 276.094 85.157 276.094ZM127.745 384C126.332 384 125.137 383.565 124.159 382.696C123.289 381.718 122.855 380.523 122.855 379.11V299.729C122.855 298.208 123.289 297.012 124.159 296.143C125.137 295.274 126.332 294.839 127.745 294.839C129.266 294.839 130.461 295.274 131.331 296.143C132.2 297.012 132.635 298.208 132.635 299.729V308.205C136.221 303.75 140.676 300.218 146.001 297.61C151.434 295.002 157.302 293.698 163.605 293.698C171.429 293.698 178.438 295.328 184.632 298.588C190.934 301.739 195.879 306.412 199.465 312.606C203.051 318.691 204.844 326.244 204.844 335.263V379.11C204.844 380.523 204.355 381.718 203.377 382.696C202.507 383.565 201.366 384 199.954 384C198.541 384 197.346 383.565 196.368 382.696C195.498 381.718 195.064 380.523 195.064 379.11V335.263C195.064 328.091 193.651 322.169 190.826 317.496C188.109 312.823 184.36 309.346 179.579 307.064C174.906 304.673 169.581 303.478 163.605 303.478C157.737 303.478 152.466 304.619 147.794 306.901C143.121 309.074 139.426 312.117 136.71 316.029C133.993 319.941 132.635 324.342 132.635 329.232V379.11C132.635 380.523 132.2 381.718 131.331 382.696C130.461 383.565 129.266 384 127.745 384ZM273.279 384.978C264.369 384.978 256.49 383.022 249.644 379.11C242.798 375.198 237.419 369.819 233.507 362.973C229.595 356.127 227.639 348.303 227.639 339.501C227.639 330.59 229.65 322.712 233.67 315.866C237.691 309.02 243.124 303.641 249.97 299.729C256.925 295.817 264.695 293.861 273.279 293.861C282.19 293.861 290.014 295.817 296.751 299.729C303.597 303.641 308.976 309.02 312.888 315.866C316.8 322.712 318.756 330.59 318.756 339.501V371.449C318.756 380.251 316.8 388.184 312.888 395.247C308.976 402.31 303.652 407.852 296.914 411.873C290.177 416.002 282.516 418.067 273.931 418.067C264.912 418.067 257.197 416.383 250.785 413.014C244.483 409.645 239.267 405.353 235.137 400.137C234.268 399.05 233.833 397.909 233.833 396.714C233.833 395.519 234.377 394.541 235.463 393.78C236.55 392.911 237.8 392.585 239.212 392.802C240.734 393.019 241.875 393.726 242.635 394.921C246.004 398.942 250.296 402.256 255.512 404.864C260.728 407.581 266.868 408.939 273.931 408.939C280.669 408.939 286.645 407.309 291.861 404.049C297.186 400.789 301.37 396.279 304.412 390.52C307.455 384.869 308.976 378.512 308.976 371.449V364.277C305.825 370.58 301.152 375.633 294.958 379.436C288.764 383.131 281.538 384.978 273.279 384.978ZM273.279 375.85C280.234 375.85 286.374 374.329 291.698 371.286C297.132 368.135 301.37 363.842 304.412 358.409C307.455 352.867 308.976 346.564 308.976 339.501C308.976 332.329 307.455 326.026 304.412 320.593C301.37 315.051 297.132 310.759 291.698 307.716C286.374 304.565 280.234 302.989 273.279 302.989C266.325 302.989 260.131 304.565 254.697 307.716C249.264 310.759 245.026 315.051 241.983 320.593C238.941 326.026 237.419 332.329 237.419 339.501C237.419 346.564 238.941 352.867 241.983 358.409C245.026 363.842 249.264 368.135 254.697 371.286C260.131 374.329 266.325 375.85 273.279 375.85Z" fill="black"/>
<path d="M145.5 158.605V190C175.953 176.834 162.062 147.065 145.5 158.605Z" fill="#FFC758"/>
<path d="M145.5 158.605V190C115.047 176.834 128.938 147.065 145.5 158.605Z" fill="#FFC758"/>
<path d="M365.5 158.605V190C395.953 176.834 382.062 147.065 365.5 158.605Z" fill="#FFC758"/>
<path d="M365.5 158.605V190C335.047 176.834 348.938 147.065 365.5 158.605Z" fill="#FFC758"/>
<path d="M385 318C381.5 364 338.5 357 338.5 357M374 306C374 306 380 323 402 321" stroke="#FFC865" stroke-width="9" stroke-linecap="round"/>
<path d="M115.183 98.1702L126.817 119.586" stroke="black" stroke-width="9" stroke-linecap="round"/>
<path d="M158.011 88.8346V109.187" stroke="black" stroke-width="9" stroke-linecap="round"/>
<path d="M199.751 98.1609L186.343 119.708" stroke="black" stroke-width="9" stroke-linecap="round"/>
<path d="M335.659 101.037L349.589 118.679" stroke="black" stroke-width="9" stroke-linecap="round"/>
<path d="M377.389 88.9445V109.098" stroke="black" stroke-width="9" stroke-linecap="round"/>
<path d="M407.02 116.335L404.733 119.628" stroke="black" stroke-width="9" stroke-linecap="round"/>
</svg>
