<svg width="500" height="500" viewBox="0 0 500 500" fill="none" xmlns="http://www.w3.org/2000/svg">
<rect width="500" height="500" fill="white"/>
<path d="M95.1 220C88.906 220 83.7987 217.501 79.778 212.502C75.866 207.503 73.91 201.038 73.91 193.105V97.587C73.91 96.0657 74.3447 94.8703 75.214 94.001C76.192 93.1317 77.3873 92.697 78.8 92.697C80.3213 92.697 81.5167 93.1317 82.386 94.001C83.2553 94.8703 83.69 96.0657 83.69 97.587V193.105C83.69 198.104 84.7223 202.233 86.787 205.493C88.9603 208.644 91.7313 210.22 95.1 210.22H99.175C101.892 210.22 103.25 211.85 103.25 215.11C103.25 216.523 102.815 217.718 101.946 218.696C101.077 219.565 99.8813 220 98.36 220H95.1ZM156.919 220.978C148.226 220.978 140.402 219.022 133.447 215.11C126.601 211.089 121.168 205.656 117.147 198.81C113.235 191.855 111.279 184.086 111.279 175.501C111.279 166.808 113.235 159.038 117.147 152.192C121.168 145.237 126.601 139.804 133.447 135.892C140.402 131.871 148.226 129.861 156.919 129.861C165.612 129.861 173.382 131.871 180.228 135.892C187.074 139.804 192.453 145.237 196.365 152.192C200.386 159.038 202.396 166.808 202.396 175.501C202.396 184.086 200.386 191.855 196.365 198.81C192.453 205.656 187.074 211.089 180.228 215.11C173.382 219.022 165.612 220.978 156.919 220.978ZM156.919 211.85C163.765 211.85 169.85 210.274 175.175 207.123C180.608 203.863 184.846 199.516 187.889 194.083C191.04 188.541 192.616 182.347 192.616 175.501C192.616 168.546 191.04 162.352 187.889 156.919C184.846 151.377 180.608 147.03 175.175 143.879C169.85 140.619 163.765 138.989 156.919 138.989C150.182 138.989 144.096 140.619 138.663 143.879C133.23 147.03 128.937 151.377 125.786 156.919C122.635 162.352 121.059 168.546 121.059 175.501C121.059 182.347 122.635 188.541 125.786 194.083C128.937 199.516 133.23 203.863 138.663 207.123C144.096 210.274 150.182 211.85 156.919 211.85ZM267.549 220.978C258.638 220.978 250.76 219.022 243.914 215.11C237.068 211.198 231.689 205.819 227.777 198.973C223.865 192.127 221.909 184.303 221.909 175.501C221.909 166.59 223.919 158.712 227.94 151.866C231.961 145.02 237.394 139.641 244.24 135.729C251.195 131.817 258.964 129.861 267.549 129.861C276.46 129.861 284.284 131.817 291.021 135.729C297.867 139.641 303.246 145.02 307.158 151.866C311.07 158.712 313.026 166.59 313.026 175.501V207.449C313.026 216.251 311.07 224.184 307.158 231.247C303.246 238.31 297.921 243.852 291.184 247.873C284.447 252.002 276.786 254.067 268.201 254.067C259.182 254.067 251.466 252.383 245.055 249.014C238.752 245.645 233.536 241.353 229.407 236.137C228.538 235.05 228.103 233.909 228.103 232.714C228.103 231.519 228.646 230.541 229.733 229.78C230.82 228.911 232.069 228.585 233.482 228.802C235.003 229.019 236.144 229.726 236.905 230.921C240.274 234.942 244.566 238.256 249.782 240.864C254.998 243.581 261.138 244.939 268.201 244.939C274.938 244.939 280.915 243.309 286.131 240.049C291.456 236.789 295.639 232.279 298.682 226.52C301.725 220.869 303.246 214.512 303.246 207.449V200.277C300.095 206.58 295.422 211.633 289.228 215.436C283.034 219.131 275.808 220.978 267.549 220.978ZM267.549 211.85C274.504 211.85 280.643 210.329 285.968 207.286C291.401 204.135 295.639 199.842 298.682 194.409C301.725 188.867 303.246 182.564 303.246 175.501C303.246 168.329 301.725 162.026 298.682 156.593C295.639 151.051 291.401 146.759 285.968 143.716C280.643 140.565 274.504 138.989 267.549 138.989C260.594 138.989 254.4 140.565 248.967 143.716C243.534 146.759 239.296 151.051 236.253 156.593C233.21 162.026 231.689 168.329 231.689 175.501C231.689 182.564 233.21 188.867 236.253 194.409C239.296 199.842 243.534 204.135 248.967 207.286C254.4 210.329 260.594 211.85 267.549 211.85ZM378.179 220.978C369.485 220.978 361.661 219.022 354.707 215.11C347.861 211.089 342.427 205.656 338.407 198.81C334.495 191.855 332.539 184.086 332.539 175.501C332.539 166.808 334.495 159.038 338.407 152.192C342.427 145.237 347.861 139.804 354.707 135.892C361.661 131.871 369.485 129.861 378.179 129.861C386.872 129.861 394.642 131.871 401.488 135.892C408.334 139.804 413.713 145.237 417.625 152.192C421.645 159.038 423.656 166.808 423.656 175.501C423.656 184.086 421.645 191.855 417.625 198.81C413.713 205.656 408.334 211.089 401.488 215.11C394.642 219.022 386.872 220.978 378.179 220.978ZM378.179 211.85C385.025 211.85 391.11 210.274 396.435 207.123C401.868 203.863 406.106 199.516 409.149 194.083C412.3 188.541 413.876 182.347 413.876 175.501C413.876 168.546 412.3 162.352 409.149 156.919C406.106 151.377 401.868 147.03 396.435 143.879C391.11 140.619 385.025 138.989 378.179 138.989C371.441 138.989 365.356 140.619 359.923 143.879C354.489 147.03 350.197 151.377 347.046 156.919C343.894 162.352 342.319 168.546 342.319 175.501C342.319 182.347 343.894 188.541 347.046 194.083C350.197 199.516 354.489 203.863 359.923 207.123C365.356 210.274 371.441 211.85 378.179 211.85Z" fill="black"/>
<path d="M206.797 99.6809L192.954 123.427" stroke="black" stroke-width="9" stroke-linecap="round"/>
<circle cx="165.176" cy="164.703" r="18" fill="#FFC758"/>
<circle cx="386.358" cy="164.703" r="18" fill="#FFC758"/>
<path d="M100.108 109.683L115.687 125.949M154.491 89.2571V115.509" stroke="black" stroke-width="9" stroke-linecap="round"/>
<path d="M327.276 98.9109L341.059 123.312" stroke="black" stroke-width="9" stroke-linecap="round"/>
<path d="M444.58 99.1375L417.921 126.054M382.117 89.3621V115.614" stroke="black" stroke-width="9" stroke-linecap="round"/>
<path d="M83.7449 370.856C178.838 286.59 261.221 414.637 423.162 344.022" stroke="black" stroke-width="9" stroke-linecap="round"/>
<path d="M83.7449 370.856C178.838 286.59 220 484.091 381.941 413.477" stroke="black" stroke-width="9" stroke-linecap="round"/>
<circle cx="425.119" cy="337.616" r="17.5" fill="black"/>
<circle cx="425.119" cy="304.266" r="8.5" fill="black"/>
<circle cx="449.512" cy="314.47" r="8.5" fill="black"/>
<circle cx="458.079" cy="337.616" r="8.5" fill="black"/>
<circle cx="401.566" cy="371.855" r="8.5" transform="rotate(17.524 401.566 371.855)" fill="black"/>
<circle cx="421.755" cy="388.93" r="8.5" transform="rotate(17.524 421.755 388.93)" fill="black"/>
<circle cx="422.954" cy="413.581" r="8.5" transform="rotate(17.524 422.954 413.581)" fill="black"/>
<circle cx="391.319" cy="403.463" r="17.5" fill="black"/>
</svg>
