<svg width="500" height="500" viewBox="0 0 500 500" fill="none" xmlns="http://www.w3.org/2000/svg">
<rect width="500" height="500" fill="black"/>
<path d="M224.96 373.1C224.96 378.477 220.602 382.836 215.225 382.836C209.848 382.836 205.489 378.477 205.489 373.1C205.489 367.723 209.848 363.365 215.225 363.365C220.602 363.365 224.96 367.723 224.96 373.1Z" fill="white"/>
<circle cx="373.582" cy="164.71" r="71.999" stroke="#FFC758" stroke-width="11"/>
<path d="M450.447 197.138L270.459 117.583L244.904 241.079L404.411 339.518L450.447 197.138Z" fill="black"/>
<path d="M343.007 373.1C343.007 378.477 338.648 382.836 333.271 382.836C327.895 382.836 323.536 378.477 323.536 373.1C323.536 367.723 327.895 363.365 333.271 363.365C338.648 363.365 343.007 367.723 343.007 373.1Z" fill="white"/>
<path d="M360.523 346.858H188.75L125.881 187.683C601.247 87.6165 360.523 346.858 360.523 346.858Z" fill="black" stroke="white" stroke-width="11" stroke-linecap="round" stroke-linejoin="round"/>
<circle cx="373.582" cy="164.71" r="54.677" fill="white" stroke="black" stroke-width="21"/>
<path d="M367.93 188.517C367.25 188.517 366.655 188.262 366.145 187.752C365.635 187.242 365.38 186.63 365.38 185.916C365.38 185.44 365.533 184.896 365.839 184.284L380.476 153.888H364.972C364.224 153.888 363.595 153.65 363.085 153.174C362.609 152.664 362.371 152.035 362.371 151.287C362.371 150.539 362.609 149.927 363.085 149.451C363.595 148.941 364.224 148.686 364.972 148.686H384.403C385.117 148.686 385.729 148.941 386.239 149.451C386.749 149.961 387.004 150.573 387.004 151.287C387.004 151.525 386.97 151.763 386.902 152.001C386.834 152.205 386.749 152.426 386.647 152.664L370.327 187.089C369.783 188.041 368.984 188.517 367.93 188.517Z" fill="black"/>
<path d="M36.9189 237.012H101.974" stroke="white" stroke-width="11" stroke-linecap="round" stroke-linejoin="round"/>
<path d="M71.8491 277.67H113.94" stroke="white" stroke-width="11" stroke-linecap="round" stroke-linejoin="round"/>
<path d="M112.261 318.981H125.908" stroke="white" stroke-width="11" stroke-linecap="round" stroke-linejoin="round"/>
</svg>
