<svg width="500" height="500" viewBox="0 0 500 500" fill="none" xmlns="http://www.w3.org/2000/svg">
<rect width="500" height="500" fill="white"/>
<path d="M224.472 372.736C224.472 378.113 220.113 382.472 214.736 382.472C209.359 382.472 205 378.113 205 372.736C205 367.359 209.359 363 214.736 363C220.113 363 224.472 367.359 224.472 372.736Z" fill="black"/>
<circle cx="373.499" cy="165.499" r="71.999" stroke="#FDD706" stroke-width="11"/>
<path d="M450.543 197.556L270.555 118L245 241.496L404.507 339.935L450.543 197.556Z" fill="white"/>
<path d="M343.472 373.736C343.472 379.113 339.113 383.472 333.736 383.472C328.359 383.472 324 379.113 324 373.736C324 368.359 328.359 364 333.736 364C339.113 364 343.472 368.359 343.472 373.736Z" fill="black"/>
<path d="M360.642 347.148H188.869L126 187.973C601.366 87.9066 360.642 347.148 360.642 347.148Z" stroke="black" stroke-width="11" stroke-linecap="round" stroke-linejoin="round"/>
<circle cx="374.177" cy="165.177" r="54.677" fill="black" stroke="white" stroke-width="21"/>
<path d="M368.525 189C367.845 189 367.25 188.745 366.74 188.235C366.23 187.725 365.975 187.113 365.975 186.399C365.975 185.923 366.128 185.379 366.434 184.767L381.071 154.371H365.567C364.819 154.371 364.19 154.133 363.68 153.657C363.204 153.147 362.966 152.518 362.966 151.77C362.966 151.022 363.204 150.41 363.68 149.934C364.19 149.424 364.819 149.169 365.567 149.169H384.998C385.712 149.169 386.324 149.424 386.834 149.934C387.344 150.444 387.599 151.056 387.599 151.77C387.599 152.008 387.565 152.246 387.497 152.484C387.429 152.688 387.344 152.909 387.242 153.147L370.922 187.572C370.378 188.524 369.579 189 368.525 189Z" fill="white"/>
<path d="M37 237H102.055" stroke="black" stroke-width="11" stroke-linecap="round" stroke-linejoin="round"/>
<path d="M72 278H114.091" stroke="black" stroke-width="11" stroke-linecap="round" stroke-linejoin="round"/>
<path d="M112 319H125.647" stroke="black" stroke-width="11" stroke-linecap="round" stroke-linejoin="round"/>
</svg>
