<svg width="500" height="500" viewBox="0 0 500 500" fill="none" xmlns="http://www.w3.org/2000/svg">
<rect width="500" height="500" fill="black"/>
<path d="M25.5475 225.308L207.116 427.676L169.342 109.529" stroke="black" stroke-opacity="0.55" stroke-width="9" stroke-linecap="round" stroke-linejoin="round"/>
<path d="M25.5475 225.308L207.116 427.676L169.342 109.529" stroke="white" stroke-width="9" stroke-linecap="round" stroke-linejoin="round"/>
<path d="M230 66L247.872 249.391M265.744 432.781L247.872 249.391M247.872 249.391L367.327 67.9355M247.872 249.391L447.969 359.366" stroke="white" stroke-width="9" stroke-linecap="round" stroke-linejoin="round"/>
<rect x="135.102" y="175.804" width="204.035" height="204.035" rx="50.5" transform="rotate(-8.2955 135.102 175.804)" fill="#FDD706" stroke="white" stroke-width="9" stroke-linejoin="round"/>
<circle cx="298.038" cy="196.652" r="11.7604" transform="rotate(54.9215 298.038 196.652)" stroke="black" stroke-width="9"/>
<circle cx="249.318" cy="262.361" r="39.1231" transform="rotate(52.5665 249.318 262.361)" stroke="black" stroke-width="15"/>
<rect x="160.102" y="153.804" width="204.035" height="204.035" rx="50.5" transform="rotate(-8.2955 160.102 153.804)" fill="black" stroke="white" stroke-width="9" stroke-linejoin="round"/>
<circle cx="286.038" cy="228.652" r="16.2604" transform="rotate(54.9215 286.038 228.652)" fill="white"/>
<circle cx="323.038" cy="175.652" r="11.7604" transform="rotate(54.9215 323.038 175.652)" stroke="white" stroke-width="9"/>
<path d="M359 253L336.522 253.286" stroke="white" stroke-width="9" stroke-linecap="round"/>
<path d="M337 214L327.712 218.146" stroke="white" stroke-width="9" stroke-linecap="round"/>
<path d="M343 294L327.025 281.713" stroke="white" stroke-width="9" stroke-linecap="round"/>
<path d="M310.361 320.232L302.595 296.382" stroke="white" stroke-width="9" stroke-linecap="round"/>
<path d="M190 228L212.478 227.714" stroke="white" stroke-width="9" stroke-linecap="round"/>
<path d="M206 188L221.975 200.287" stroke="white" stroke-width="9" stroke-linecap="round"/>
<path d="M238.64 160.767L246.405 184.618" stroke="white" stroke-width="9" stroke-linecap="round"/>
<path d="M283.967 174.543L282.708 183.852" stroke="white" stroke-width="9" stroke-linecap="round"/>
<circle cx="274.318" cy="240.361" r="42.1231" transform="rotate(52.5665 274.318 240.361)" stroke="white" stroke-width="9"/>
<path d="M140 144L143.096 169.522" stroke="white" stroke-width="9" stroke-linecap="round" stroke-linejoin="round"/>
<path d="M70 223L129.116 292.112" stroke="white" stroke-width="9" stroke-linecap="round" stroke-linejoin="round"/>
<path d="M326 80L289.319 135.223" stroke="white" stroke-width="9" stroke-linecap="round" stroke-linejoin="round"/>
<path d="M260 81L263.506 119.337" stroke="white" stroke-width="9" stroke-linecap="round" stroke-linejoin="round"/>
<path d="M369 353L400.193 370.564" stroke="white" stroke-width="9" stroke-linecap="round" stroke-linejoin="round"/>
<path d="M292 388L293.977 412.228" stroke="white" stroke-width="9" stroke-linecap="round" stroke-linejoin="round"/>
</svg>
