<svg width="500" height="500" viewBox="0 0 500 500" fill="none" xmlns="http://www.w3.org/2000/svg">
<g clip-path="url(#clip0)">
<rect width="500" height="500" fill="white"/>
<circle cx="374.189" cy="390.218" r="15.0983" transform="rotate(-74.3905 374.189 390.218)" fill="black"/>
<path d="M370.271 391.072L599.967 500" stroke="black" stroke-width="11"/>
<rect x="135.581" y="86.9063" width="311.081" height="272.728" rx="5.5" transform="rotate(17 135.581 86.9063)" fill="white" stroke="black" stroke-width="11"/>
<path d="M135.514 278.931L213.473 187.14L226.047 310.366" stroke="black" stroke-width="11" stroke-linecap="round" stroke-linejoin="round"/>
<path d="M166.095 247.917L220.727 276.034" stroke="black" stroke-width="11" stroke-linecap="round"/>
<path d="M332.36 284.487L323.072 330.891" stroke="black" stroke-width="11" stroke-linecap="round"/>
<ellipse cx="292.491" cy="276.521" rx="35.5012" ry="39.0162" stroke="black" stroke-width="11"/>
<rect x="252.528" y="79.9947" width="22" height="124.68" rx="11" transform="rotate(-4.60193 252.528 79.9947)" fill="#FFC758" stroke="white" stroke-width="11"/>
<rect x="423.933" y="134.889" width="22" height="108.268" rx="11" transform="rotate(48.4743 423.933 134.889)" fill="#FFC758" stroke="white" stroke-width="11"/>
<rect x="454.266" y="294.589" width="22" height="72.5865" rx="11" transform="rotate(102.536 454.266 294.589)" fill="#FFC758" stroke="white" stroke-width="11"/>
</g>
<defs>
<clipPath id="clip0">
<rect width="500" height="500" fill="white"/>
</clipPath>
</defs>
</svg>
