<svg width="500" height="500" viewBox="0 0 500 500" fill="none" xmlns="http://www.w3.org/2000/svg">
<g clip-path="url(#clip0)">
<rect width="500" height="500" fill="white"/>
<circle cx="301.393" cy="175.295" r="80.2497" stroke="#FFC758" stroke-width="9"/>
<path d="M385.53 219.374L250.296 101.977L218.139 116.638L208.276 203.758L292.657 295.262L385.53 219.374Z" fill="white"/>
<path d="M107.488 220.978C101.837 220.978 95.915 219.946 89.721 217.881C83.527 215.816 78.3653 212.339 74.236 207.449C73.3667 206.362 72.9863 205.221 73.095 204.026C73.3123 202.722 74.0187 201.635 75.214 200.766C76.3007 200.005 77.4417 199.734 78.637 199.951C79.941 200.168 80.9733 200.766 81.734 201.744C84.8853 205.439 88.6887 208.047 93.144 209.568C97.708 210.981 102.652 211.687 107.977 211.687C117.105 211.687 123.571 210.057 127.374 206.797C131.177 203.537 133.079 199.734 133.079 195.387C133.079 186.802 124.766 181.315 108.14 178.924C97.2733 177.403 89.232 174.469 84.016 170.122C78.8 165.775 76.192 160.722 76.192 154.963C76.192 146.813 79.126 140.619 84.994 136.381C90.9707 132.034 98.523 129.861 107.651 129.861C115.04 129.861 121.289 131.219 126.396 133.936C131.503 136.544 135.633 140.076 138.784 144.531C139.653 145.618 139.925 146.813 139.599 148.117C139.382 149.312 138.567 150.29 137.154 151.051C136.067 151.594 134.926 151.757 133.731 151.54C132.536 151.323 131.503 150.671 130.634 149.584C125.092 142.521 117.322 138.989 107.325 138.989C100.479 138.989 95.1543 140.456 91.351 143.39C87.5477 146.324 85.646 149.856 85.646 153.985C85.646 158.223 87.4933 161.7 91.188 164.417C94.8827 167.025 101.185 168.981 110.096 170.285C118.246 171.372 124.657 173.219 129.33 175.827C134.111 178.435 137.48 181.478 139.436 184.955C141.501 188.324 142.533 191.964 142.533 195.876C142.533 200.983 140.903 205.439 137.643 209.242C134.383 213.045 130.091 215.979 124.766 218.044C119.441 220 113.682 220.978 107.488 220.978ZM204.006 220.815C195.421 220.815 187.76 218.913 181.023 215.11C174.394 211.198 169.178 205.819 165.375 198.973C161.571 192.127 159.67 184.303 159.67 175.501C159.67 166.59 161.463 158.766 165.049 152.029C168.635 145.183 173.579 139.804 179.882 135.892C186.184 131.98 193.411 130.024 201.561 130.024C209.602 130.024 216.72 131.926 222.914 135.729C229.108 139.424 233.943 144.585 237.421 151.214C240.898 157.734 242.637 165.286 242.637 173.871C242.637 175.284 242.202 176.425 241.333 177.294C240.463 178.055 239.322 178.435 237.91 178.435H169.613C169.939 184.955 171.623 190.714 174.666 195.713C177.708 200.712 181.729 204.624 186.728 207.449C191.835 210.274 197.594 211.687 204.006 211.687C208.244 211.687 212.482 210.981 216.72 209.568C221.066 208.047 224.489 206.091 226.989 203.7C227.858 202.831 228.89 202.396 230.086 202.396C231.39 202.287 232.476 202.613 233.346 203.374C234.541 204.352 235.139 205.439 235.139 206.634C235.247 207.829 234.758 208.916 233.672 209.894C230.194 213.045 225.63 215.653 219.98 217.718C214.438 219.783 209.113 220.815 204.006 220.815ZM201.561 139.152C195.91 139.152 190.803 140.456 186.239 143.064C181.675 145.672 177.926 149.312 174.992 153.985C172.166 158.549 170.428 163.874 169.776 169.959H233.183C232.422 160.831 229.162 153.442 223.403 147.791C217.643 142.032 210.363 139.152 201.561 139.152ZM301.454 220.978C292.761 220.978 284.937 219.022 277.982 215.11C271.136 211.089 265.703 205.656 261.682 198.81C257.77 191.855 255.814 184.086 255.814 175.501C255.814 166.808 257.77 159.038 261.682 152.192C265.703 145.237 271.136 139.804 277.982 135.892C284.937 131.871 292.761 129.861 301.454 129.861C310.148 129.861 317.917 131.871 324.763 135.892C331.609 139.804 336.988 145.237 340.9 152.192C344.921 159.038 346.931 166.808 346.931 175.501C346.931 184.086 344.921 191.855 340.9 198.81C336.988 205.656 331.609 211.089 324.763 215.11C317.917 219.022 310.148 220.978 301.454 220.978ZM301.454 211.85C308.3 211.85 314.386 210.274 319.71 207.123C325.144 203.863 329.382 199.516 332.424 194.083C335.576 188.541 337.151 182.347 337.151 175.501C337.151 168.546 335.576 162.352 332.424 156.919C329.382 151.377 325.144 147.03 319.71 143.879C314.386 140.619 308.3 138.989 301.454 138.989C294.717 138.989 288.632 140.619 283.198 143.879C277.765 147.03 273.473 151.377 270.321 156.919C267.17 162.352 265.594 168.546 265.594 175.501C265.594 182.347 267.17 188.541 270.321 194.083C273.473 199.516 277.765 203.863 283.198 207.123C288.632 210.274 294.717 211.85 301.454 211.85Z" fill="black"/>
<path d="M330.81 204.209L431.793 513.743" stroke="black" stroke-width="9"/>
<circle cx="301.393" cy="175.295" r="18" fill="#FFC758"/>
<path d="M275.782 209.148L-17.2017 499.284" stroke="black" stroke-width="9"/>
<path d="M254.978 499.988H221.657L297.12 217.736H303.49L254.978 499.988Z" fill="black"/>
<rect x="236.936" y="385.878" width="55.3747" height="52.4604" fill="white"/>
<rect x="262.573" y="290.587" width="55.3747" height="42.201" fill="white"/>
<rect x="274.597" y="237.896" width="55.3747" height="29.9843" fill="white"/>
</g>
<defs>
<clipPath id="clip0">
<rect width="500" height="500" fill="white"/>
</clipPath>
</defs>
</svg>
