<svg width="500" height="501" viewBox="0 0 500 501" fill="none" xmlns="http://www.w3.org/2000/svg">
<g clip-path="url(#clip0)">
<rect width="500" height="500" transform="translate(0 0.5)" fill="white"/>
<path d="M107.488 221.478C101.837 221.478 95.915 220.446 89.721 218.381C83.527 216.316 78.3653 212.839 74.236 207.949C73.3667 206.862 72.9863 205.721 73.095 204.526C73.3123 203.222 74.0187 202.135 75.214 201.266C76.3007 200.505 77.4417 200.234 78.637 200.451C79.941 200.668 80.9733 201.266 81.734 202.244C84.8853 205.939 88.6887 208.547 93.144 210.068C97.708 211.481 102.652 212.187 107.977 212.187C117.105 212.187 123.571 210.557 127.374 207.297C131.177 204.037 133.079 200.234 133.079 195.887C133.079 187.302 124.766 181.815 108.14 179.424C97.2733 177.903 89.232 174.969 84.016 170.622C78.8 166.275 76.192 161.222 76.192 155.463C76.192 147.313 79.126 141.119 84.994 136.881C90.9707 132.534 98.523 130.361 107.651 130.361C115.04 130.361 121.289 131.719 126.396 134.436C131.503 137.044 135.633 140.576 138.784 145.031C139.653 146.118 139.925 147.313 139.599 148.617C139.382 149.812 138.567 150.79 137.154 151.551C136.067 152.094 134.926 152.257 133.731 152.04C132.536 151.823 131.503 151.171 130.634 150.084C125.092 143.021 117.322 139.489 107.325 139.489C100.479 139.489 95.1543 140.956 91.351 143.89C87.5477 146.824 85.646 150.356 85.646 154.485C85.646 158.723 87.4933 162.2 91.188 164.917C94.8827 167.525 101.185 169.481 110.096 170.785C118.246 171.872 124.657 173.719 129.33 176.327C134.111 178.935 137.48 181.978 139.436 185.455C141.501 188.824 142.533 192.464 142.533 196.376C142.533 201.483 140.903 205.939 137.643 209.742C134.383 213.545 130.091 216.479 124.766 218.544C119.441 220.5 113.682 221.478 107.488 221.478ZM169.45 220.5C168.037 220.5 166.842 220.065 165.864 219.196C164.994 218.218 164.56 217.023 164.56 215.61V136.229C164.56 134.708 164.994 133.512 165.864 132.643C166.842 131.774 168.037 131.339 169.45 131.339C170.971 131.339 172.166 131.774 173.036 132.643C173.905 133.512 174.34 134.708 174.34 136.229V142.586C177.382 138.674 181.077 135.631 185.424 133.458C189.879 131.285 194.715 130.198 199.931 130.198C206.342 130.198 212.047 131.774 217.046 134.925C222.044 137.968 225.956 142.206 228.782 147.639C231.716 142.206 235.791 137.968 241.007 134.925C246.223 131.774 252.091 130.198 258.611 130.198C265.239 130.198 271.053 131.828 276.052 135.088C281.05 138.348 284.962 142.858 287.788 148.617C290.722 154.376 292.189 161.005 292.189 168.503V215.61C292.189 217.023 291.754 218.218 290.885 219.196C290.015 220.065 288.82 220.5 287.299 220.5C285.886 220.5 284.691 220.065 283.713 219.196C282.843 218.218 282.409 217.023 282.409 215.61V168.503C282.409 160.136 280.181 153.29 275.726 147.965C271.379 142.64 265.674 139.978 258.611 139.978C251.113 139.978 244.973 142.477 240.192 147.476C235.519 152.366 233.291 158.995 233.509 167.362C233.509 167.688 233.509 168.068 233.509 168.503V215.61C233.509 217.023 233.074 218.218 232.205 219.196C231.335 220.065 230.14 220.5 228.619 220.5C227.206 220.5 226.011 220.065 225.033 219.196C224.163 218.218 223.729 217.023 223.729 215.61V168.503C223.729 160.136 221.501 153.29 217.046 147.965C212.699 142.64 206.994 139.978 199.931 139.978C192.433 139.978 186.293 142.369 181.512 147.15C176.73 151.931 174.34 158.125 174.34 165.732V215.61C174.34 217.023 173.905 218.218 173.036 219.196C172.166 220.065 170.971 220.5 169.45 220.5ZM324.809 220.5C323.396 220.5 322.201 220.065 321.223 219.196C320.354 218.218 319.919 217.023 319.919 215.61V136.229C319.919 134.708 320.354 133.512 321.223 132.643C322.201 131.774 323.396 131.339 324.809 131.339C326.33 131.339 327.526 131.774 328.395 132.643C329.264 133.512 329.699 134.708 329.699 136.229V142.586C332.742 138.674 336.436 135.631 340.783 133.458C345.238 131.285 350.074 130.198 355.29 130.198C361.701 130.198 367.406 131.774 372.405 134.925C377.404 137.968 381.316 142.206 384.141 147.639C387.075 142.206 391.15 137.968 396.366 134.925C401.582 131.774 407.45 130.198 413.97 130.198C420.599 130.198 426.412 131.828 431.411 135.088C436.41 138.348 440.322 142.858 443.147 148.617C446.081 154.376 447.548 161.005 447.548 168.503V215.61C447.548 217.023 447.113 218.218 446.244 219.196C445.375 220.065 444.179 220.5 442.658 220.5C441.245 220.5 440.05 220.065 439.072 219.196C438.203 218.218 437.768 217.023 437.768 215.61V168.503C437.768 160.136 435.54 153.29 431.085 147.965C426.738 142.64 421.033 139.978 413.97 139.978C406.472 139.978 400.332 142.477 395.551 147.476C390.878 152.366 388.651 158.995 388.868 167.362C388.868 167.688 388.868 168.068 388.868 168.503V215.61C388.868 217.023 388.433 218.218 387.564 219.196C386.695 220.065 385.499 220.5 383.978 220.5C382.565 220.5 381.37 220.065 380.392 219.196C379.523 218.218 379.088 217.023 379.088 215.61V168.503C379.088 160.136 376.86 153.29 372.405 147.965C368.058 142.64 362.353 139.978 355.29 139.978C347.792 139.978 341.652 142.369 336.871 147.15C332.09 151.931 329.699 158.125 329.699 165.732V215.61C329.699 217.023 329.264 218.218 328.395 219.196C327.526 220.065 326.33 220.5 324.809 220.5Z" fill="black"/>
<rect x="192.774" y="357.205" width="11" height="383.451" rx="5.5" fill="#FFC758"/>
<rect x="252.465" y="410.205" width="11" height="383.451" rx="5.5" fill="black"/>
<rect x="349.192" y="247.205" width="11" height="383.451" rx="5.5" fill="#FFC758"/>
<rect x="408.884" y="306.372" width="11" height="383.451" rx="5.5" fill="black"/>
<path d="M52.9303 72.3833L81.3444 111.492L90.3776 88.0757L109.826 105.354L123.015 61.2989" stroke="#FFC758" stroke-width="9" stroke-linecap="round" stroke-linejoin="round"/>
</g>
<defs>
<clipPath id="clip0">
<rect width="500" height="500" fill="white" transform="translate(0 0.5)"/>
</clipPath>
</defs>
</svg>
